<svg width="400" height="373" viewBox="0 0 400 373" fill="none" xmlns="http://www.w3.org/2000/svg">
<mask id="mask0_132_46" style="mask-type:luminance" maskUnits="userSpaceOnUse" x="0" y="0" width="193" height="373">
<path d="M117.303 121.687C112.271 121.687 107.446 123.668 103.889 127.193C100.331 130.718 98.3325 135.498 98.3328 140.483C98.3331 145.467 100.332 150.247 103.89 153.772C107.448 157.296 112.274 159.276 117.305 159.276C122.337 159.276 127.163 157.296 130.721 153.772C134.279 150.247 136.278 145.467 136.278 140.483C136.278 135.498 134.28 130.718 130.722 127.193C127.165 123.668 122.339 121.687 117.308 121.687M118.821 23.4731C116.677 21.3469 114.038 19.7753 111.137 18.8969C108.236 18.0185 105.161 17.8601 102.184 18.4357C99.2064 19.0114 96.4175 20.3033 94.0627 22.1978C91.7078 24.0924 89.8593 26.5313 88.6798 29.3001C87.5004 32.0688 87.0262 35.0823 87.299 38.0753C87.5718 41.0682 88.5832 43.9489 90.2442 46.4635C91.9052 48.9782 94.1648 51.0498 96.8241 52.4958C99.4834 53.9419 102.461 54.7181 105.494 54.7561C108.866 54.7521 112.204 55.4193 115.311 56.718C118.417 58.0168 121.229 59.9206 123.578 62.3165L123.633 62.3665C126.704 65.3228 128.97 69.0014 130.219 73.0593C131.468 77.1172 131.659 81.4223 130.775 85.5732C129.49 92.0617 130.342 98.7876 133.208 104.759C136.073 110.731 140.8 115.633 146.691 118.743C152.581 121.852 159.325 123.005 165.927 122.031C172.529 121.056 178.64 118.006 183.36 113.331C188.079 108.655 191.158 102.601 192.142 96.0613C193.125 89.5212 191.962 82.8411 188.823 77.0057C185.684 71.1702 180.736 66.4881 174.707 63.6496C168.679 60.811 161.889 59.9661 155.339 61.2394C151.149 62.1132 146.804 61.9222 142.709 60.6841C138.613 59.446 134.901 57.2013 131.917 54.1589L131.863 54.1089C129.443 51.7818 127.521 48.9962 126.21 45.9178C124.9 42.8394 124.228 39.5313 124.235 36.1905C124.183 31.4129 122.242 26.846 118.829 23.4699L118.821 23.4731ZM67.1057 55.6939C58.4396 55.6953 50.129 59.1068 44.0019 65.1778C37.8749 71.2489 34.4331 79.4824 34.4338 88.0671C34.4345 96.6519 37.8776 104.885 44.0057 110.955C50.1338 117.025 58.4449 120.435 67.111 120.435C75.777 120.435 84.0882 117.025 90.2163 110.955C96.3444 104.885 99.7874 96.6519 99.7881 88.0671C99.7888 79.4824 96.3471 71.2489 90.22 65.1778C84.093 59.1068 75.7823 55.6953 67.1163 55.6939H67.1057ZM164.023 0.00976562C157.583 0.0105668 151.407 2.54561 146.853 7.05724C142.3 11.5689 139.742 17.6876 139.742 24.0674C139.743 30.4472 142.301 36.5656 146.855 41.0767C151.41 45.5878 157.586 48.122 164.026 48.122C170.466 48.122 176.643 45.5878 181.197 41.0767C185.751 36.5656 188.31 30.4472 188.31 24.0674C188.311 17.6876 185.753 11.5689 181.199 7.05724C176.646 2.54561 170.47 0.0105668 164.029 0.00976562H164.023ZM117.303 250.467C121.054 250.466 124.72 249.364 127.839 247.299C130.957 245.234 133.387 242.3 134.822 238.867C136.257 235.434 136.632 231.656 135.9 228.012C135.168 224.368 133.362 221.021 130.709 218.393C128.057 215.766 124.678 213.977 120.999 213.252C117.32 212.527 113.507 212.899 110.042 214.321C106.576 215.743 103.614 218.15 101.53 221.24C99.4463 224.329 98.3336 227.961 98.3331 231.677C98.3328 234.144 98.8233 236.588 99.7766 238.868C100.73 241.148 102.127 243.219 103.889 244.964C105.651 246.709 107.742 248.093 110.044 249.037C112.345 249.981 114.812 250.466 117.303 250.466L117.303 250.467ZM118.82 348.684C116.676 350.809 114.037 352.38 111.136 353.257C108.236 354.135 105.161 354.292 102.184 353.716C99.2076 353.14 96.4194 351.848 94.0651 349.954C91.7109 348.059 89.8629 345.62 88.6837 342.852C87.5046 340.084 87.0305 337.07 87.3032 334.078C87.5758 331.085 88.5869 328.205 90.2474 325.691C91.9079 323.176 94.1669 321.105 96.8256 319.658C99.4842 318.212 102.461 317.435 105.494 317.397C108.866 317.403 112.204 316.737 115.311 315.439C118.418 314.141 121.229 312.237 123.578 309.841L123.632 309.786C126.704 306.831 128.969 303.153 130.218 299.096C131.467 295.039 131.659 290.735 130.775 286.585C129.49 280.097 130.342 273.371 133.208 267.399C136.073 261.427 140.8 256.525 146.691 253.415C152.581 250.306 159.325 249.153 165.927 250.128C172.529 251.102 178.64 254.152 183.36 258.827C188.079 263.503 191.158 269.557 192.142 276.097C193.125 282.637 191.962 289.317 188.823 295.153C185.684 300.988 180.736 305.67 174.707 308.509C168.679 311.347 161.889 312.192 155.339 310.919C151.149 310.043 146.804 310.233 142.708 311.471C138.612 312.709 134.9 314.955 131.917 317.999L131.863 318.049C129.443 320.376 127.521 323.161 126.211 326.238C124.901 329.316 124.229 332.623 124.235 335.963C124.182 340.74 122.241 345.307 118.829 348.684L118.82 348.684ZM67.1057 316.459C58.3811 316.458 50.0143 313.023 43.8457 306.911C37.6771 300.799 34.212 292.51 34.2126 283.868C34.2133 275.225 37.6795 266.936 43.849 260.825C50.0184 254.714 58.3857 251.281 67.1103 251.281C75.835 251.281 84.2023 254.714 90.3717 260.825C96.5412 266.936 100.007 275.225 100.008 283.868C100.009 292.51 96.5436 300.799 90.375 306.911C84.2064 313.023 75.8396 316.458 67.115 316.459H67.1057ZM164.023 372.143C157.583 372.142 151.407 369.606 146.853 365.094C142.3 360.583 139.742 354.463 139.742 348.083C139.743 341.703 142.302 335.585 146.856 331.074C151.411 326.563 157.587 324.028 164.028 324.028C170.468 324.028 176.645 326.563 181.199 331.074C185.753 335.585 188.312 341.703 188.313 348.083C188.314 354.463 185.756 360.583 181.202 365.094C176.649 369.606 170.473 372.142 164.032 372.143H164.023ZM164.727 158.582C169.277 158.581 173.758 159.688 177.774 161.806C181.791 163.924 185.22 166.987 187.761 170.726C190.301 174.465 191.875 178.766 192.343 183.249C192.812 187.733 192.16 192.261 190.447 196.437C188.733 200.612 186.01 204.306 182.516 207.194C179.023 210.081 174.866 212.074 170.412 212.996C165.959 213.919 161.344 213.742 156.976 212.483C152.607 211.223 148.618 208.919 145.359 205.773C141.789 202.224 137.534 199.423 132.849 197.535C128.163 195.648 123.142 194.713 118.085 194.787H117.971C111.544 194.692 105.198 196.21 99.5242 199.201C93.8503 202.192 89.0336 206.558 85.5232 211.891C79.9398 220.128 71.8324 226.37 62.3962 229.697C52.9601 233.024 42.6946 233.259 33.1133 230.368C23.532 227.477 15.142 221.613 9.18007 213.64C3.21818 205.667 0 196.008 0 186.086C0 176.164 3.21818 166.505 9.18007 158.532C15.142 150.559 23.532 144.695 33.1133 141.804C42.6946 138.913 52.9601 139.149 62.3962 142.475C71.8324 145.802 79.9398 152.044 85.5232 160.281C89.0342 165.614 93.8511 169.979 99.5248 172.97C105.199 175.961 111.544 177.479 117.971 177.385H118.085C123.142 177.457 128.163 176.522 132.848 174.635C137.533 172.747 141.788 169.946 145.359 166.397C150.537 161.382 157.494 158.577 164.736 158.583L164.727 158.582Z" fill="white"/>
</mask>
<g mask="url(#mask0_132_46)">
<path d="M195.547 0.00976562H0.0439453V372.145H195.547V0.00976562Z" fill="url(#paint0_linear_132_46)"/>
</g>
<mask id="mask1_132_46" style="mask-type:luminance" maskUnits="userSpaceOnUse" x="202" y="0" width="198" height="373">
<path d="M264.635 125.398C268.418 121.648 273.396 119.314 278.722 118.792C284.047 118.271 289.391 119.595 293.841 122.539C298.291 125.483 301.574 129.865 303.128 134.938C304.683 140.01 304.413 145.46 302.366 150.358C300.319 155.256 296.621 159.3 291.901 161.799C287.182 164.299 281.734 165.1 276.485 164.066C271.236 163.032 266.512 160.227 263.117 156.129C259.722 152.031 257.867 146.893 257.867 141.592C257.867 135.519 260.302 129.694 264.635 125.398ZM280.987 127.843C277.774 127.842 274.659 128.945 272.175 130.964C269.691 132.983 267.99 135.793 267.362 138.914C266.735 142.036 267.219 145.277 268.734 148.085C270.248 150.892 272.698 153.093 275.667 154.311C278.636 155.53 281.939 155.691 285.014 154.767C288.089 153.843 290.746 151.892 292.531 149.245C294.316 146.598 295.12 143.42 294.805 140.252C294.49 137.084 293.076 134.123 290.804 131.872C288.2 129.293 284.669 127.844 280.987 127.843V127.843ZM282.774 30.703C280.28 33.142 278.861 36.4584 278.825 39.9295C278.821 43.7775 278.042 47.586 276.536 51.1327C275.029 54.6795 272.825 57.8935 270.051 60.5871L270.001 60.637C266.548 64.1241 262.267 66.6973 257.55 68.121C252.832 69.5446 247.83 69.7733 243.001 68.7861C237.572 67.7219 231.941 68.4149 226.94 70.7628C221.938 73.1107 217.831 76.989 215.225 81.8255C212.618 86.662 211.65 92.2004 212.464 97.6234C213.277 103.046 215.829 108.067 219.742 111.944C223.656 115.82 228.724 118.348 234.198 119.154C239.672 119.96 245.263 119.002 250.146 116.42C255.028 113.838 258.943 109.769 261.313 104.815C263.684 99.8608 264.383 94.2829 263.309 88.9046C262.312 84.1212 262.543 79.1665 263.98 74.4944C265.417 69.8223 268.015 65.5821 271.536 62.1625L271.586 62.1126C274.305 59.3637 277.549 57.179 281.129 55.6858C284.71 54.1926 288.554 53.421 292.439 53.4158C294.641 53.3873 296.802 52.823 298.732 51.7728C300.662 50.7226 302.302 49.2186 303.507 47.3931C304.712 45.5677 305.446 43.4767 305.645 41.3042C305.843 39.1318 305.499 36.9444 304.643 34.9345C303.787 32.9247 302.446 31.154 300.737 29.7782C299.028 28.4025 297.004 27.4639 294.843 27.045C292.682 26.6262 290.45 26.7399 288.344 27.3761C286.238 28.0124 284.322 29.1517 282.764 30.6938L282.774 30.703ZM276.239 24.2337C278.864 21.6276 282.096 19.7011 285.649 18.6238C289.203 17.5464 292.97 17.3514 296.618 18.0557C300.266 18.7601 303.683 20.3423 306.568 22.663C309.453 24.9837 311.718 27.9716 313.163 31.3635C314.608 34.7555 315.189 38.4474 314.854 42.1141C314.519 45.7807 313.28 49.3096 311.244 52.3899C309.209 55.4702 306.44 58.0073 303.181 59.7778C299.923 61.5483 296.274 62.4979 292.558 62.5428C289.865 62.5273 287.197 63.0554 284.716 64.095C282.236 65.1346 279.995 66.6639 278.131 68.5895L278.081 68.6395C275.611 70.9863 273.789 73.9211 272.79 77.1636C271.791 80.4062 271.647 83.8483 272.373 87.1615C273.812 94.4461 272.851 101.996 269.631 108.699C266.412 115.401 261.104 120.902 254.49 124.391C247.877 127.88 240.307 129.172 232.896 128.077C225.485 126.983 218.624 123.559 213.326 118.31C208.028 113.061 204.571 106.266 203.466 98.924C202.361 91.5825 203.665 84.0834 207.187 77.5318C210.709 70.9801 216.262 65.7223 223.029 62.5331C229.795 59.3439 237.416 58.3919 244.77 59.8175C248.114 60.5359 251.588 60.3934 254.861 59.4035C258.134 58.4136 261.097 56.6093 263.466 54.1629L263.516 54.1132C265.46 52.2666 267.004 50.047 268.054 47.5897C269.104 45.1324 269.637 42.489 269.622 39.8208C269.699 33.9706 272.072 28.38 276.239 24.2337H276.239ZM304.189 64.8923C300.185 64.8953 296.346 66.4735 293.516 69.2798C290.687 72.0861 289.098 75.8908 289.099 79.8573C289.101 83.8238 290.693 87.6273 293.524 90.4315C296.356 93.2357 300.196 94.811 304.2 94.811C308.204 94.811 312.045 93.2357 314.876 90.4315C317.708 87.6273 319.3 83.8238 319.301 79.8573C319.303 75.8908 317.714 72.0861 314.884 69.2798C312.055 66.4735 308.216 64.8953 304.212 64.8923H304.189ZM329.946 63.4753C323.656 63.476 317.561 65.6372 312.699 69.5906C307.838 73.544 304.51 79.045 303.284 85.1563C302.057 91.2676 303.008 97.611 305.974 103.106C308.939 108.601 313.736 112.907 319.548 115.291C325.359 117.675 331.825 117.989 337.844 116.179C343.863 114.37 349.062 110.549 352.556 105.368C356.05 100.187 357.622 93.9662 357.005 87.7654C356.388 81.5645 353.62 75.7675 349.172 71.362C346.647 68.8611 343.65 66.8775 340.351 65.5243C337.052 64.1711 333.517 63.4748 329.946 63.4753H329.946ZM215.397 8.21659C220.028 3.62789 226.123 0.771932 232.641 0.135342C239.16 -0.501248 245.699 1.12092 251.146 4.72545C256.592 8.32997 260.609 13.6938 262.511 19.903C264.412 26.1122 264.082 32.7826 261.576 38.7775C259.069 44.7724 254.542 49.7209 248.765 52.7798C242.989 55.8388 236.32 56.8189 229.896 55.5531C223.472 54.2873 217.689 50.854 213.534 45.8382C209.378 40.8224 207.107 34.5344 207.107 28.0457C207.107 20.6086 210.089 13.476 215.397 8.21659ZM235.414 9.15823C231.006 9.15904 226.734 10.6739 223.326 13.4449C219.919 16.2158 217.586 20.0713 216.727 24.3547C215.867 28.638 216.533 33.0841 218.611 36.9356C220.689 40.7871 224.051 43.8057 228.124 45.4772C232.197 47.1487 236.729 47.3697 240.947 46.1025C245.166 44.8353 248.811 42.1583 251.261 38.5276C253.711 34.8968 254.814 30.537 254.383 26.1907C253.952 21.8445 252.014 17.7807 248.897 14.6917C247.127 12.937 245.025 11.5451 242.712 10.5956C240.398 9.64618 237.918 9.15773 235.414 9.15823ZM271.171 240.276C273.442 242.528 276.431 243.93 279.629 244.244C282.827 244.557 286.035 243.762 288.708 241.995C291.38 240.227 293.352 237.596 294.285 234.55C295.219 231.504 295.058 228.232 293.829 225.291C292.6 222.349 290.38 219.921 287.546 218.42C284.712 216.919 281.441 216.437 278.289 217.058C275.137 217.678 272.3 219.362 270.261 221.823C268.222 224.284 267.108 227.368 267.108 230.552C267.108 234.198 268.569 237.696 271.171 240.276ZM280.987 253.459C280.989 255.968 281.997 258.374 283.789 260.148C285.581 261.921 288.011 262.917 290.544 262.916C293.077 262.915 295.506 261.918 297.297 260.143C299.088 258.368 300.094 255.962 300.094 253.452C300.094 250.943 299.088 248.536 297.297 246.762C295.506 244.987 293.077 243.989 290.544 243.988C288.011 243.988 285.581 244.983 283.789 246.757C281.997 248.53 280.989 250.936 280.987 253.445V253.459ZM292.266 354.487C286.304 354.486 280.583 352.156 276.344 348.003C272.105 343.85 269.69 338.21 269.621 332.304C269.638 329.636 269.105 326.992 268.055 324.535C267.005 322.077 265.461 319.858 263.515 318.012L263.465 317.962C261.096 315.516 258.134 313.711 254.861 312.722C251.588 311.732 248.113 311.589 244.769 312.308C237.414 313.734 229.792 312.783 223.024 309.594C216.257 306.405 210.702 301.147 207.179 294.595C203.656 288.043 202.35 280.543 203.455 273.2C204.56 265.857 208.016 259.06 213.315 253.81C218.613 248.56 225.474 245.135 232.886 244.04C240.298 242.944 247.87 244.236 254.485 247.725C261.099 251.214 266.408 256.715 269.629 263.419C272.849 270.122 273.811 277.673 272.372 284.959C271.646 288.272 271.789 291.714 272.788 294.956C273.788 298.199 275.609 301.133 278.08 303.479L278.13 303.529C279.994 305.455 282.235 306.985 284.716 308.025C287.196 309.065 289.864 309.593 292.558 309.578C295.533 309.597 298.476 310.196 301.217 311.342C303.959 312.487 306.446 314.156 308.536 316.254C310.626 318.351 312.279 320.836 313.4 323.567C314.521 326.297 315.088 329.219 315.069 332.167C315.05 335.114 314.444 338.029 313.288 340.745C312.132 343.461 310.447 345.924 308.329 347.995C306.212 350.066 303.703 351.703 300.947 352.813C298.191 353.924 295.241 354.486 292.265 354.466L292.266 354.487ZM282.774 341.44C284.021 342.675 285.501 343.655 287.13 344.323C288.759 344.992 290.505 345.336 292.268 345.336C294.031 345.336 295.777 344.992 297.406 344.323C299.035 343.655 300.516 342.675 301.762 341.44C303.009 340.205 303.998 338.739 304.673 337.125C305.348 335.511 305.695 333.781 305.695 332.035C305.695 330.288 305.348 328.558 304.673 326.945C303.998 325.331 303.009 323.865 301.762 322.63C299.301 320.159 295.952 318.754 292.448 318.722C288.564 318.717 284.719 317.946 281.139 316.452C277.558 314.959 274.314 312.775 271.595 310.026L271.545 309.976C268.025 306.555 265.427 302.315 263.989 297.642C262.552 292.969 262.322 288.014 263.319 283.23C264.39 277.854 263.688 272.28 261.317 267.329C258.946 262.379 255.032 258.314 250.152 255.735C245.272 253.156 239.684 252.199 234.213 253.006C228.742 253.812 223.678 256.339 219.767 260.214C215.856 264.089 213.306 269.107 212.493 274.527C211.68 279.946 212.647 285.482 215.252 290.315C217.856 295.149 221.96 299.026 226.958 301.373C231.956 303.721 237.583 304.415 243.01 303.353C247.839 302.366 252.841 302.594 257.558 304.018C262.275 305.442 266.556 308.015 270.009 311.502L270.06 311.552C272.834 314.245 275.039 317.459 276.545 321.006C278.052 324.553 278.83 328.361 278.834 332.209C278.868 335.68 280.288 338.995 282.783 341.432L282.774 341.44ZM310.725 300.782C315.173 305.187 321.025 307.928 327.285 308.538C333.545 309.148 339.824 307.589 345.053 304.127C350.283 300.665 354.139 295.513 355.964 289.551C357.789 283.588 357.471 277.183 355.063 271.427C352.656 265.67 348.308 260.919 342.761 257.982C337.214 255.045 330.81 254.105 324.641 255.321C318.472 256.537 312.92 259.834 308.93 264.65C304.94 269.467 302.759 275.505 302.759 281.736C302.759 285.273 303.463 288.776 304.83 292.044C306.196 295.312 308.199 298.281 310.725 300.782ZM329.946 317.827C321.518 317.827 313.35 314.932 306.834 309.635C300.318 304.338 295.858 296.967 294.214 288.778C292.569 280.589 293.842 272.088 297.815 264.724C301.788 257.36 308.216 251.589 316.004 248.393C323.791 245.198 332.455 244.776 340.521 247.2C348.587 249.623 355.555 254.743 360.238 261.685C364.921 268.628 367.029 276.964 366.203 285.274C365.377 293.583 361.668 301.352 355.708 307.256C348.876 314.024 339.609 317.827 329.946 317.827L329.946 317.827ZM221.951 357.457C225.07 360.547 229.174 362.469 233.564 362.897C237.954 363.325 242.358 362.232 246.025 359.804C249.693 357.376 252.397 353.764 253.677 349.582C254.957 345.4 254.734 340.908 253.046 336.872C251.357 332.835 248.308 329.502 244.418 327.443C240.528 325.383 236.037 324.724 231.711 325.576C227.385 326.429 223.491 328.741 220.692 332.119C217.894 335.497 216.365 339.731 216.365 344.101C216.365 346.581 216.858 349.038 217.817 351.33C218.775 353.621 220.18 355.704 221.951 357.457ZM235.434 372.139C242.867 372.137 249.996 369.209 255.251 364.001C260.506 358.793 263.457 351.73 263.456 344.366C263.455 337.002 260.501 329.94 255.244 324.734C249.988 319.527 242.858 316.602 235.425 316.602C227.991 316.602 220.862 319.527 215.605 324.734C210.348 329.94 207.394 337.002 207.393 344.366C207.392 351.73 210.343 358.793 215.598 364.001C220.854 369.209 227.982 372.137 235.415 372.139H235.434ZM212.335 163.888C218.223 158.045 226.199 154.738 234.533 154.686C242.867 154.633 250.886 157.839 256.848 163.608C259.906 166.657 263.555 169.063 267.575 170.68C271.595 172.298 275.904 173.094 280.242 173.021H280.352C285.861 173.119 291.304 171.825 296.168 169.263C301.033 166.701 305.158 162.953 308.157 158.374C314.154 149.529 322.861 142.827 332.994 139.255C343.128 135.683 354.152 135.432 364.441 138.537C374.73 141.642 383.74 147.94 390.142 156.502C396.544 165.064 400 175.437 400 186.092C400 196.747 396.544 207.12 390.142 215.682C383.74 224.244 374.73 230.542 364.441 233.647C354.152 236.752 343.128 236.501 332.994 232.929C322.861 229.357 314.154 222.655 308.157 213.81C305.159 209.23 301.033 205.482 296.169 202.919C291.304 200.356 285.861 199.062 280.352 199.16H280.242C275.904 199.089 271.596 199.886 267.576 201.504C263.556 203.122 259.907 205.528 256.848 208.577C250.866 214.424 242.784 217.678 234.38 217.622C225.976 217.567 217.938 214.206 212.035 208.28C206.133 202.354 202.848 194.348 202.904 186.022C202.96 177.697 206.352 169.735 212.335 163.888L212.335 163.888ZM234.728 163.848C231.046 163.847 227.42 164.743 224.17 166.456C220.92 168.17 218.144 170.649 216.088 173.675C214.033 176.701 212.759 180.181 212.38 183.81C212.002 187.438 212.529 191.103 213.916 194.481C215.303 197.86 217.508 200.849 220.335 203.186C223.163 205.522 226.527 207.134 230.131 207.88C233.736 208.626 237.47 208.482 241.005 207.462C244.54 206.442 247.768 204.576 250.404 202.03C254.313 198.156 258.965 195.096 264.086 193.031C269.208 190.967 274.695 189.939 280.224 190.009H280.333C287.355 189.927 294.285 191.599 300.483 194.871C306.68 198.143 311.945 202.909 315.792 208.729C320.691 215.955 327.803 221.432 336.082 224.35C344.36 227.269 353.366 227.475 361.771 224.939C370.177 222.403 377.538 217.258 382.768 210.264C387.998 203.269 390.822 194.795 390.822 186.091C390.822 177.386 387.998 168.912 382.768 161.918C377.538 154.923 370.177 149.779 361.771 147.242C353.366 144.706 344.36 144.912 336.082 147.831C327.803 150.75 320.691 156.226 315.792 163.452C311.946 169.273 306.68 174.039 300.483 177.311C294.285 180.583 287.356 182.255 280.333 182.174H280.224C274.694 182.244 269.207 181.217 264.085 179.151C258.964 177.086 254.312 174.025 250.404 170.149C246.219 166.097 240.599 163.828 234.747 163.829L234.728 163.848Z" fill="white"/>
</mask>
<g mask="url(#mask1_132_46)">
<path d="M400.005 0H203.035V372.135H400.005V0Z" fill="url(#paint1_linear_132_46)"/>
</g>
<defs>
<linearGradient id="paint0_linear_132_46" x1="97.7953" y1="0.00976562" x2="97.7953" y2="372.145" gradientUnits="userSpaceOnUse">
<stop stop-color="#00DC81"/>
<stop offset="1" stop-color="#004537"/>
</linearGradient>
<linearGradient id="paint1_linear_132_46" x1="301.52" y1="0" x2="301.52" y2="372.135" gradientUnits="userSpaceOnUse">
<stop stop-color="#00DC81"/>
<stop offset="1" stop-color="#004537"/>
</linearGradient>
</defs>
</svg>
