<svg width="121" height="45" viewBox="0 0 121 45" fill="none" xmlns="http://www.w3.org/2000/svg">
<g clip-path="url(#clip0_431_20)">
<mask id="mask0_431_20" style="mask-type:luminance" maskUnits="userSpaceOnUse" x="0" y="0" width="122" height="45">
<path d="M121.007 0.928589H0.00732422V44.9286H121.007V0.928589Z" fill="white"/>
</mask>
<g mask="url(#mask0_431_20)">
<mask id="mask1_431_20" style="mask-type:luminance" maskUnits="userSpaceOnUse" x="0" y="0" width="122" height="45">
<path d="M121.007 0.928589H0.00732422V44.9286H121.007V0.928589Z" fill="white"/>
</mask>
<g mask="url(#mask1_431_20)">
<g style="mix-blend-mode:luminosity">
<path d="M56.2302 7.51102C56.6352 7.66953 57.024 7.89478 57.3876 8.2118L56.4453 9.34644C56.1972 9.15453 55.9495 9.00436 55.7098 8.90424C55.4702 8.80411 55.2057 8.75407 54.9329 8.75407C54.371 8.75407 53.9247 8.99602 53.5941 9.47155C53.2635 9.95544 53.1065 10.698 53.1065 11.6991C53.1065 12.6836 53.2718 13.4177 53.5941 13.8933C53.9247 14.3688 54.3792 14.6108 54.9578 14.6108C55.2636 14.6108 55.5445 14.5523 55.7924 14.4355C56.0403 14.3187 56.3131 14.1519 56.6022 13.9266L57.4867 15.0779C57.1724 15.395 56.7926 15.6536 56.3378 15.8622C55.8916 16.0624 55.3958 16.1708 54.8503 16.1708C54.0734 16.1708 53.404 15.9956 52.8255 15.6536C52.2553 15.3115 51.809 14.8026 51.4867 14.1352C51.1643 13.4594 51.0073 12.6502 51.0073 11.7074C51.0073 10.7897 51.1726 9.98884 51.4949 9.32139C51.8255 8.65394 52.2718 8.14507 52.8503 7.803C53.4288 7.45258 54.0817 7.28571 54.8173 7.28571C55.3544 7.27742 55.8172 7.3525 56.2302 7.51102Z" fill="#EBEDEF"/>
<path d="M64.0574 7.48602L63.8506 8.92099H60.9001V10.9483H63.4787V12.3499H60.9001V14.519H64.0574V15.9623H58.9087V7.48602H64.0574Z" fill="#EBEDEF"/>
<path d="M68.5857 12.717H67.8087V15.954H65.8257V7.47766H68.5773C69.7263 7.47766 70.5856 7.68627 71.1642 8.11171C71.7429 8.53721 72.032 9.18796 72.032 10.0556C72.032 10.5979 71.8998 11.0568 71.6438 11.4155C71.3872 11.7743 70.9743 12.0829 70.4203 12.3415L72.5529 15.9456H70.3133L68.5857 12.717ZM67.8171 11.3404H68.6518C69.0983 11.3404 69.4288 11.2403 69.6517 11.0317C69.8753 10.8315 69.9823 10.5061 69.9823 10.064C69.9823 9.65515 69.8669 9.35483 69.6271 9.17127C69.3873 8.98771 69.0238 8.88764 68.528 8.88764H67.8171V11.3404Z" fill="#EBEDEF"/>
<path d="M80.0244 7.48602L77.6856 15.9623H75.2141L72.793 7.48602H74.892L76.4868 14.3939L77.9909 7.48602H80.0244Z" fill="#EBEDEF"/>
<path d="M86.3382 7.48602L86.1315 8.92099H83.1726V10.9483H85.7511V12.3499H83.1726V14.519H86.3382V15.9623H81.189V7.48602H86.3382Z" fill="#EBEDEF"/>
<path d="M92.7593 7.51102C93.1643 7.66953 93.5525 7.89478 93.9161 8.2118L92.9744 9.34644C92.7262 9.15453 92.4781 9.00436 92.2389 8.90424C91.9991 8.80411 91.7347 8.75407 91.4619 8.75407C90.9 8.75407 90.4536 8.99602 90.1231 9.47155C89.7926 9.95544 89.6351 10.698 89.6351 11.6991C89.6351 12.6836 89.8004 13.4177 90.1231 13.8933C90.4536 14.3688 90.9079 14.6108 91.4866 14.6108C91.7924 14.6108 92.0731 14.5523 92.3212 14.4355C92.5694 14.3187 92.8417 14.1519 93.1313 13.9266L94.0152 15.0779C93.7015 15.395 93.3212 15.6536 92.8669 15.8622C92.4204 16.0624 91.9246 16.1708 91.379 16.1708C90.602 16.1708 89.9326 15.9956 89.3545 15.6536C88.7842 15.3115 88.3378 14.8026 88.0157 14.1352C87.693 13.4594 87.5361 12.6502 87.5361 11.7074C87.5361 10.7897 87.7014 9.98884 88.0235 9.32139C88.3546 8.65394 88.8005 8.14507 89.3791 7.803C89.9578 7.45258 90.6104 7.28571 91.3459 7.28571C91.8832 7.27742 92.3543 7.3525 92.7593 7.51102Z" fill="#EBEDEF"/>
<path d="M100.594 7.48602L100.387 8.92099H97.4284V10.9483H100.007V12.3499H97.4284V14.519H100.594V15.9623H95.4453V7.48602H100.594Z" fill="#EBEDEF"/>
<path d="M105.123 12.717H104.346V15.954H102.363V7.47766H105.115C106.263 7.47766 107.123 7.68627 107.701 8.11171C108.28 8.53721 108.569 9.18796 108.569 10.0556C108.569 10.5979 108.437 11.0568 108.181 11.4155C107.925 11.7743 107.511 12.0829 106.958 12.3415L109.09 15.9456H106.85L105.123 12.717ZM104.346 11.3404H105.181C105.627 11.3404 105.958 11.2403 106.181 11.0317C106.404 10.8315 106.512 10.5061 106.512 10.064C106.512 9.65515 106.396 9.35483 106.156 9.17127C105.917 8.98771 105.552 8.88764 105.057 8.88764H104.346V11.3404Z" fill="#EBEDEF"/>
<path d="M112.346 4.27405L113.057 5.71736L110.148 6.78524L109.66 5.80913L112.346 4.27405ZM112.371 15.9623H110.387V7.48603H112.371V15.9623Z" fill="#EBEDEF"/>
<path d="M118.9 15.9623L118.462 14.1436H116.016L115.594 15.9623H113.536L116.065 7.48602H118.478L121.007 15.9623H118.9ZM116.354 12.6836H118.123L117.238 8.93768L116.354 12.6836Z" fill="#EBEDEF"/>
<path d="M57.8917 19.3746L55.2055 24.6723V27.8509H53.2138V24.6806L50.5278 19.3746H52.6932L54.2468 23.1038L55.8006 19.3746H57.8917Z" fill="#EBEDEF"/>
<path d="M70.8917 27.8508H68.9417L68.7927 24.5387C68.7512 23.7461 68.735 23.0453 68.735 22.4196C68.735 21.9441 68.7428 21.5019 68.768 21.0765L67.4706 26.9581H65.5946L64.2143 21.0765C64.2636 21.7856 64.2888 22.453 64.2888 23.0787C64.2888 23.5543 64.2804 24.0465 64.2557 24.5554L64.1067 27.8425H62.1646L62.7925 19.3661H65.2965L66.553 25.1144L67.7266 19.3661H70.2475L70.8917 27.8508Z" fill="#EBEDEF"/>
<path d="M77.0405 27.8509L76.6025 26.0322H74.1561L73.7343 27.8509H71.6768L74.2054 19.3746H76.6187L79.1479 27.8509H77.0405ZM74.5035 24.5722H76.272L75.3874 20.8262L74.5035 24.5722Z" fill="#EBEDEF"/>
<path d="M82.3049 19.3746V26.2574H85.5697L85.363 27.8509H80.3135V19.3746H82.3049Z" fill="#EBEDEF"/>
<path d="M91.6768 19.3746L91.4869 20.918H89.4125V27.8509H87.4289V20.918H85.2554V19.3746H91.6768Z" fill="#EBEDEF"/>
<path d="M98.1726 19.3746L97.9659 20.8095H95.0075V22.8369H97.5861V24.2468H95.0075V26.4076H98.1726V27.8509H93.0239V19.3746H98.1726Z" fill="#EBEDEF"/>
<path d="M102.701 24.6138H101.924V27.8509H99.9414V19.3746H102.693C103.842 19.3746 104.701 19.5831 105.28 20.0086C105.859 20.4341 106.148 21.0849 106.148 21.9525C106.148 22.4948 106.015 22.9536 105.759 23.3124C105.503 23.6711 105.09 23.9798 104.536 24.2384L106.669 27.8425H104.428L102.701 24.6138ZM101.924 23.229H102.759C103.206 23.229 103.536 23.1288 103.759 22.9203C103.983 22.72 104.09 22.3947 104.09 21.9525C104.09 21.5437 103.974 21.2434 103.734 21.0598C103.495 20.8763 103.131 20.7761 102.635 20.7761H101.924V23.229Z" fill="#EBEDEF"/>
<path d="M109.916 16.1625L110.627 17.6058L107.718 18.6738L107.23 17.6976L109.916 16.1625ZM109.941 27.8509H107.958V19.3745H109.941V27.8509Z" fill="#EBEDEF"/>
<path d="M116.47 27.8509L116.032 26.0322H113.586L113.164 27.8509H111.106L113.635 19.3746H116.048L118.577 27.8509H116.47ZM113.933 24.5722H115.701L114.817 20.8262L113.933 24.5722Z" fill="#EBEDEF"/>
<path d="M58.636 40.0813L57.9414 40.974C57.0075 40.1314 56.2804 39.8644 54.7763 39.8644C52.7267 39.8644 51.3135 38.3711 51.3135 35.5595C51.3135 32.7814 52.7432 31.1796 54.8011 31.1796C56.8753 31.1796 58.2887 32.7063 58.2887 35.5428C58.2887 37.6619 57.5285 38.7214 56.3381 39.3055C57.2887 39.3138 58.0243 39.6308 58.636 40.0813ZM54.8011 39.0051C56.2558 39.0051 57.1728 38.004 57.1728 35.5428C57.1728 33.0817 56.2642 32.0556 54.8011 32.0556C53.3713 32.0556 52.4292 33.0817 52.4292 35.5512C52.4292 38.004 53.3961 39.0051 54.8011 39.0051Z" fill="#EBEDEF"/>
<path d="M66.396 37.0613C66.396 38.7132 65.3793 39.8895 63.5116 39.8895C61.6187 39.8895 60.6519 38.7132 60.6519 37.0613V31.3298H61.6932V36.9779C61.6932 38.296 62.2719 38.9802 63.5116 38.9802C64.7597 38.9802 65.33 38.296 65.33 36.9779V31.3298H66.396V37.0613Z" fill="#EBEDEF"/>
<path d="M70.3544 31.3298H69.313V39.7394H70.3544V31.3298Z" fill="#EBEDEF"/>
<path d="M74.4369 38.8133H77.8832L77.7593 39.7394H73.3955V31.3298H74.4369V38.8133Z" fill="#EBEDEF"/>
<path d="M87.1811 39.7394H86.1644L85.8501 35.885C85.7263 34.5501 85.6356 33.1068 85.6188 32.3977L83.7427 38.7716H82.7596L80.8006 32.3893C80.7922 33.3404 80.7183 34.7003 80.6107 35.9518L80.3211 39.7394H79.3296L80.0321 31.3298H81.4617L83.2884 37.5536L85.0323 31.3298H86.4619L87.1811 39.7394Z" fill="#EBEDEF"/>
<path d="M94.0651 32.1808H90.7841V35.0173H93.627V35.8767H90.7841V38.8884H94.2718V39.7394H89.7427V31.3298H94.1805L94.0651 32.1808Z" fill="#EBEDEF"/>
<path d="M101.123 32.1473L100.553 32.7981C99.9248 32.2808 99.3383 32.0639 98.6359 32.0639C97.7513 32.0639 97.0819 32.4894 97.0819 33.3153C97.0819 34.0578 97.4371 34.4166 98.9333 34.8838C100.305 35.301 101.38 35.8349 101.38 37.4117C101.38 38.88 100.288 39.8978 98.4622 39.8978C97.2718 39.8978 96.3548 39.4974 95.6602 38.8216L96.2388 38.1625C96.8668 38.6881 97.52 39.0218 98.4454 39.0218C99.4621 39.0218 100.288 38.4962 100.288 37.4534C100.288 36.5857 99.8755 36.2019 98.4454 35.7681C96.8091 35.2676 95.9991 34.6419 95.9991 33.3571C95.9991 32.0973 97.0651 31.1963 98.5776 31.1963C99.7349 31.1796 100.445 31.5216 101.123 32.1473Z" fill="#EBEDEF"/>
<path d="M31.8338 38.4963L33.2966 38.7716L33.4371 36.6859L31.6768 36.8361L31.8338 38.4963Z" fill="#EBEDEF"/>
<path d="M31.5774 35.8432L33.4782 36.0017L33.6187 33.8743L31.4038 34.0161L31.5774 35.8432Z" fill="#EBEDEF"/>
<path d="M34.098 36.0517L36.1807 36.2353L36.4285 33.6907L33.9492 33.8492L34.098 36.0517Z" fill="#EBEDEF"/>
<path d="M31.9749 40.023C31.9582 40.0399 31.9332 40.0483 31.9165 40.0653C31.9415 40.0483 31.9582 40.0399 31.9749 40.023Z" fill="#EBEDEF"/>
<path d="M8.72656 36.4106L8.85877 38.6215L10.3464 38.8217V36.2771L8.72656 36.4106Z" fill="#EBEDEF"/>
<path d="M5.94112 35.7933L8.13946 35.9685L8.27172 33.6825L5.76758 33.8494L5.94112 35.7933Z" fill="#EBEDEF"/>
<path d="M10.3379 33.549L8.56104 33.6658L8.70153 36.0185L10.3462 36.1521L10.3379 33.549Z" fill="#EBEDEF"/>
<path d="M23.8335 31.5885C22.9988 31.1213 22.065 30.8793 21.0897 30.8793C19.5691 30.8793 18.1393 31.48 17.0649 32.5646C15.9905 33.6491 15.3955 35.0924 15.3955 36.6275C15.3955 38.1626 15.9905 39.6059 17.0649 40.6905C18.1393 41.775 19.5691 42.3757 21.0897 42.3757C22.065 42.3757 23.0071 42.1255 23.8335 41.6666C24.4451 41.3913 25.0071 41.0075 25.4947 40.5153C26.5195 39.4808 27.0897 38.0958 27.0897 36.6275C27.0897 35.1592 26.5195 33.7826 25.4947 32.7397C25.0071 32.2476 24.4451 31.8637 23.8335 31.5885ZM24.9575 40.557C24.5856 40.9324 24.1806 41.2495 23.7344 41.4914C23.0815 41.7834 22.379 41.9335 21.6434 41.9335C20.2468 41.9335 18.941 41.3829 17.9492 40.3818C16.9658 39.3806 16.4203 38.0458 16.4203 36.6275C16.4203 35.2093 16.9658 33.8744 17.9492 32.8733C18.9327 31.8721 20.2468 31.3215 21.6434 31.3215C22.3707 31.3215 23.0815 31.4716 23.7344 31.7637C24.1806 32.014 24.5856 32.331 24.9575 32.6981C25.9906 33.7493 26.5608 35.1425 26.5608 36.6275C26.5525 38.1125 25.9823 39.5058 24.9575 40.557Z" fill="#EBEDEF"/>
<path d="M23.2637 33.4405C23.1645 33.3738 23.057 33.3238 22.9579 33.2654L22.9496 33.282C22.4041 32.9817 21.7843 32.8148 21.1397 32.8148C20.1314 32.8148 19.1893 33.2069 18.4703 33.9328C17.7595 34.6502 17.3628 35.6097 17.3628 36.6275C17.3628 37.6453 17.7512 38.5964 18.4703 39.3223C19.181 40.0397 20.1314 40.4402 21.1397 40.4402C21.7843 40.4402 22.4041 40.2817 22.9579 39.973C23.3628 39.7894 23.7347 39.5391 24.057 39.2138C24.7347 38.5297 25.1149 37.6119 25.1149 36.6358C25.1149 35.6598 24.743 34.7504 24.057 34.0579C23.8174 33.8076 23.5529 33.6074 23.2637 33.4405ZM21.5198 33.1736C21.5281 33.1736 21.5281 33.1736 21.5198 33.1736C21.9909 33.1736 22.4372 33.2654 22.8504 33.4489L22.024 34.9005C21.867 34.8254 21.6934 34.7671 21.5198 34.7337V33.1736ZM21.3711 34.9673C21.5942 34.9673 21.8091 35.0174 22.0075 35.1008C22.1397 35.1759 22.2719 35.2759 22.3794 35.3928C22.5694 35.593 22.7099 35.8349 22.7926 36.0936L21.5612 36.2938C21.5116 36.2521 21.462 36.2187 21.3959 36.202L20.9578 35.0174C21.0983 34.984 21.2306 34.9673 21.3711 34.9673ZM21.0901 33.1986V34.7003C21.0075 34.7003 20.9331 34.717 20.8504 34.7253L20.7512 34.45L20.7843 34.742C20.7017 34.7587 20.619 34.7838 20.5446 34.8088L19.8587 33.6157C20.2388 33.3988 20.6603 33.257 21.0901 33.1986ZM19.1314 34.183C19.2471 34.0663 19.3711 33.9578 19.5033 33.8577L20.1644 35.009C20.0488 35.0841 19.9413 35.1675 19.8504 35.2676C19.8091 35.3093 19.7595 35.3594 19.7264 35.4095L18.6686 34.7921C18.7843 34.5668 18.9496 34.3666 19.1314 34.183ZM18.4455 35.1675L19.4785 35.7682C19.3876 35.9517 19.3215 36.1603 19.2967 36.3689H18.1397C18.1727 35.9434 18.2802 35.5429 18.4455 35.1675ZM18.4206 38.0208C18.2554 37.637 18.1562 37.2282 18.1397 36.8027H19.2884C19.305 37.0196 19.3628 37.2282 19.4454 37.4201L18.4206 38.0208ZM19.1314 39.072C18.933 38.8717 18.7595 38.6465 18.619 38.4045L19.6686 37.7872C19.7182 37.8539 19.776 37.929 19.8422 37.9874C19.9331 38.0791 20.024 38.1542 20.1232 38.221L19.4703 39.3639C19.3463 39.2805 19.2389 39.1804 19.1314 39.072ZM21.0901 40.0564C20.6356 39.998 20.2058 39.8478 19.8174 39.6142L20.4951 38.4296C20.6851 38.5046 20.8835 38.5463 21.0901 38.5547V40.0564ZM20.2388 37.8039C19.9331 37.4868 19.7678 37.0697 19.7678 36.6275C19.7678 36.1853 19.9331 35.7682 20.2388 35.4512C20.4042 35.2759 20.6025 35.1425 20.8256 35.0674L20.9744 36.3105C20.8917 36.3939 20.8422 36.5024 20.8422 36.6275C20.8422 36.8694 21.0405 37.0697 21.2802 37.0697C21.4785 37.0697 21.6521 36.9279 21.7017 36.7443L22.8587 36.3271C22.8752 36.4273 22.8835 36.5274 22.8835 36.6358C22.8835 37.1031 22.7099 37.5369 22.3959 37.8706C22.2802 37.9874 22.1562 38.0875 22.024 38.1626C21.8256 38.2543 21.6107 38.2961 21.3876 38.2961C20.9413 38.2877 20.5446 38.1125 20.2388 37.8039ZM22.8918 39.7978C22.4703 39.9813 22.0075 40.0814 21.5364 40.0814H21.5281V38.5297C21.7182 38.4963 21.9 38.4379 22.0736 38.3461L22.8918 39.7978ZM23.6852 39.1887C23.5529 39.3222 23.4124 39.4474 23.2554 39.5558L22.4372 38.1292C22.5199 38.0708 22.5943 38.0041 22.6686 37.9373C22.7347 37.8706 22.7926 37.8039 22.8421 37.7288L24.1976 38.5213C24.057 38.7549 23.8835 38.9802 23.6852 39.1887ZM24.4042 38.1376L23.057 37.3533C23.1314 37.1782 23.181 36.9946 23.1975 36.8027H24.7182C24.7017 37.2699 24.5942 37.7204 24.4042 38.1376ZM24.7182 36.3689H23.1893C23.181 36.3188 23.1728 36.2604 23.1562 36.2104L24.0157 35.8934L23.1066 36.0435C23.0818 35.9684 23.057 35.9017 23.024 35.8349L24.3711 35.0507C24.5694 35.4595 24.6851 35.9017 24.7182 36.3689ZM22.8008 35.4678C22.7595 35.4178 22.7182 35.3677 22.6686 35.326C22.586 35.2426 22.495 35.1675 22.4041 35.1091L23.2223 33.6825C23.3876 33.7993 23.5364 33.9328 23.6852 34.0829C23.8669 34.2665 24.024 34.4667 24.1644 34.6836L22.8008 35.4678Z" fill="#EBEDEF"/>
<path d="M19.0238 22.7366H19.1313C19.3213 22.7366 19.404 22.6532 19.404 22.453V21.7272C19.404 21.5436 19.3296 21.4769 19.1478 21.4769H19.0156C18.8337 21.4769 18.7593 21.5436 18.7593 21.7272V22.453C18.7511 22.6532 18.8337 22.7366 19.0238 22.7366Z" fill="#EBEDEF"/>
<path d="M18.9989 24.764H19.1642C19.346 24.764 19.4121 24.6972 19.4121 24.5137V23.6627C19.4121 23.4708 19.3377 23.3958 19.1394 23.3958H19.0154C18.8171 23.3958 18.7427 23.4708 18.7427 23.6627V24.5137C18.751 24.6972 18.8171 24.764 18.9989 24.764Z" fill="#EBEDEF"/>
<path d="M27.4703 26.5243L27.2389 21.3101V21.3017L27.2306 21.2934L27.181 21.2433C27.1645 21.2266 27.148 21.2099 27.1314 21.1933C27.0984 21.1599 27.057 21.1349 27.024 21.1015C26.9496 21.0431 26.867 20.993 26.7926 20.9347C26.867 20.993 26.9414 21.0514 27.0075 21.1182C27.0405 21.1515 27.0736 21.1849 27.1066 21.2183C27.1231 21.235 27.1397 21.2517 27.1562 21.2684L27.1975 21.3101L26.9579 26.5243H24.5116H15.5116V21.3101L16.1645 25.8652H20.7926L20.9662 19.7833C20.8504 19.7833 20.7347 19.775 20.6273 19.775C19.7265 19.775 18.8752 19.8668 18.0901 20.042C17.71 20.1254 17.3381 20.2339 16.9909 20.3673C17.024 20.3423 17.0571 20.3089 17.0984 20.2839C17.1397 20.2589 17.1727 20.2255 17.2141 20.2005L17.3298 20.117C17.6521 19.9001 17.991 19.7166 18.3463 19.5581C18.7017 19.3996 19.0736 19.2661 19.462 19.1576C19.6521 19.0992 19.8422 19.0575 20.0405 19.0158C20.2389 18.9824 20.4289 18.9324 20.6273 18.9073C21.024 18.8406 21.4207 18.8072 21.8256 18.7739L22.429 18.7488C22.6273 18.7405 22.8339 18.7405 23.0322 18.7405C23.4372 18.7405 23.8421 18.7655 24.2471 18.8072C23.8504 18.7238 23.4455 18.6654 23.0405 18.632C22.8339 18.6153 22.6356 18.5986 22.429 18.5903L21.8174 18.5653C21.4124 18.557 20.9992 18.557 20.586 18.5903C20.3794 18.5986 20.1728 18.6237 19.9661 18.6487C19.7595 18.6737 19.5529 18.7071 19.3546 18.7405C18.5364 18.8906 17.7265 19.1493 16.9744 19.5581L16.8339 19.6332C16.7843 19.6582 16.743 19.6915 16.6934 19.7166C16.6025 19.775 16.5116 19.8334 16.4207 19.8918C16.2472 20.0169 16.0653 20.1421 15.9083 20.2923C15.743 20.4341 15.586 20.5926 15.4372 20.7594C15.3628 20.8429 15.2885 20.9347 15.2223 21.0264L15.1728 21.0932L15.1231 21.1682C15.1066 21.1933 15.0901 21.2183 15.0736 21.2433L15.0488 21.285L15.0323 21.3101L15.024 21.3184L15.0157 21.3351L15.0653 26.541H14.0405V29.2441H28.3545V26.5243H27.4703ZM18.1562 23.596C18.1562 23.329 18.2306 23.1455 18.3959 23.0287C18.2471 22.8952 18.1727 22.6866 18.1727 22.4197V21.7523C18.1727 21.4769 18.2471 21.2684 18.3876 21.1182C18.5281 20.9763 18.743 20.9013 19.0157 20.9013H19.1397C19.4041 20.9013 19.619 20.9763 19.7595 21.1182C19.9083 21.2684 19.9744 21.4769 19.9744 21.7439V22.4113C19.9744 22.6866 19.9 22.8868 19.7513 23.0204C19.9083 23.1371 19.9909 23.329 19.9909 23.5877V24.4803C19.9909 24.7557 19.9165 24.9642 19.776 25.1144C19.6355 25.2562 19.4207 25.3313 19.148 25.3313H18.9826C18.71 25.3313 18.5034 25.2562 18.3546 25.1144C18.2141 24.9726 18.1397 24.7557 18.1397 24.4803V23.596H18.1562ZM16.8174 21.552L16.9992 21.527C17.1397 21.502 17.1893 21.4686 17.2637 21.3601L17.3546 21.2266H17.7265V25.1728H17.1479V22.0442H16.8174V21.552ZM28.0901 28.6768L15.0984 28.4598V27.0166L27.2802 26.808H27.4703L28.0901 26.7996V28.6768Z" fill="#EBEDEF"/>
<path d="M24.9662 24.7056H25.1232C25.3051 24.7056 25.3629 24.6555 25.3629 24.497V21.9024C25.3629 21.7522 25.3051 21.7021 25.1232 21.7021H24.9662C24.7844 21.7021 24.7266 21.7522 24.7266 21.9024V24.497C24.7348 24.6555 24.7927 24.7056 24.9662 24.7056Z" fill="#EBEDEF"/>
<path d="M22.8836 23.0788C23.0324 23.0788 23.1729 23.0371 23.2473 22.9786V21.7356C23.2473 21.552 23.1812 21.4853 22.9993 21.4853H22.8754C22.6935 21.4853 22.6274 21.552 22.6274 21.7356V22.8201C22.6274 23.0037 22.6935 23.0788 22.8836 23.0788Z" fill="#EBEDEF"/>
<path d="M21.412 25.8653H26.379L26.5526 21.3768C26.3707 21.2266 26.0153 20.968 25.4617 20.7094C24.3046 20.1671 22.7261 19.8501 21.1807 19.7833L21.412 25.8653ZM24.2054 21.9859C24.2054 21.7356 24.2715 21.5437 24.4038 21.4102C24.536 21.2767 24.7344 21.2099 24.974 21.2099H25.1228C25.3707 21.2099 25.5608 21.2767 25.693 21.4102C25.8253 21.5437 25.8914 21.7356 25.8914 21.9859V24.4219C25.8914 24.6722 25.8253 24.8641 25.693 24.9976C25.5608 25.1311 25.3707 25.1978 25.1228 25.1978H24.974C24.7261 25.1978 24.5278 25.1311 24.3955 24.9976C24.2633 24.8641 24.1971 24.6722 24.1971 24.4136V21.9859H24.2054ZM22.0319 21.7439C22.0319 21.4686 22.1063 21.26 22.2468 21.1182C22.3872 20.9763 22.6021 20.9013 22.8748 20.9013H22.9988C23.2633 20.9013 23.4782 20.9763 23.6186 21.1182C23.7674 21.26 23.8335 21.4769 23.8335 21.7439V24.4887C23.8335 24.764 23.7591 24.9726 23.6186 25.1227C23.4782 25.2645 23.2633 25.3396 22.9906 25.3396H22.8666C22.5938 25.3396 22.379 25.2729 22.2385 25.1311C22.098 24.9893 22.0236 24.7807 22.0236 24.5137V23.8546H22.6104V24.5137C22.6104 24.6973 22.6765 24.764 22.8583 24.764H22.9823C23.1641 24.764 23.2302 24.6973 23.2302 24.5137V23.5793C23.098 23.6294 22.9575 23.6544 22.817 23.6544H22.7922C22.3129 23.6544 22.0236 23.3624 22.0236 22.8785V21.7439H22.0319Z" fill="#EBEDEF"/>
<path d="M36.0156 8.57879C35.1478 7.7028 34.2139 6.91024 33.2222 6.20943V5.45857H35.4288V3.09756H27.371C26.8916 3.09756 26.3627 2.86396 25.6933 2.56362C24.9743 2.23825 24.0652 1.83779 22.8916 1.61253H22.9577V0.936768H19.1561V1.61253H19.2222C18.2057 1.81276 17.404 2.14647 16.6768 2.46351C15.8668 2.80556 15.1644 3.1059 14.3545 3.1059H6.68501V5.46692H8.89164V6.27617C7.93294 6.96027 7.02387 7.73614 6.1809 8.59549C2.19741 12.6 0.00732422 17.9394 0.00732422 23.6292C0.00732422 29.319 2.19741 34.6668 6.18914 38.688C10.1726 42.7093 15.4701 44.9284 21.1065 44.9284C26.7428 44.9284 32.0404 42.7176 36.0239 38.688C40.0073 34.6668 42.2057 29.319 42.2057 23.6292C42.2057 17.9394 39.9991 12.6 36.0156 8.57879ZM39.5693 14.3854C39.7098 14.6941 39.8338 15.0027 39.9577 15.3198L2.13956 15.5951C2.18088 15.4866 2.2222 15.3782 2.26352 15.2697L39.5693 14.3854ZM14.3957 9.2045C14.5362 9.16275 14.6767 9.11272 14.8172 9.07103L14.8834 9.05433L14.7842 8.73731C14.7264 8.55375 14.7511 8.3619 14.842 8.19503C14.9412 8.01148 15.123 7.87801 15.3296 7.81957C15.3958 7.80293 15.4619 7.79458 15.528 7.79458C15.8751 7.79458 16.1726 8.02817 16.247 8.35355L16.3214 8.67892C16.4205 8.65388 16.5528 8.62883 16.5941 8.62048C16.8999 8.55375 17.2139 8.49536 17.528 8.44533L17.5941 8.43698L17.5445 8.1116C17.5114 7.92805 17.5611 7.73614 17.6685 7.57762C17.7925 7.41076 17.9743 7.30234 18.1891 7.26895C18.2222 7.2606 18.2552 7.2606 18.2966 7.2606C18.685 7.2606 18.9991 7.54429 19.0321 7.91135L19.0652 8.23672C19.1644 8.22837 19.3049 8.21168 19.3462 8.21168C19.6271 8.18669 19.9164 8.16999 20.1974 8.15329L20.3627 8.14494L20.3462 7.81122C20.3379 7.61937 20.404 7.43581 20.5363 7.29399C20.6768 7.14383 20.8751 7.0604 21.0982 7.05205C21.3131 7.05205 21.5114 7.13548 21.652 7.28565C21.7842 7.42746 21.8586 7.61102 21.8503 7.79458L21.8421 8.12825C21.9412 8.12825 22.0817 8.13659 22.123 8.13659C22.4123 8.14494 22.6933 8.16164 22.9742 8.18669L23.1396 8.20338L23.1644 7.86966C23.1891 7.50254 23.5197 7.21056 23.8999 7.21056C23.9329 7.21056 23.966 7.21056 23.999 7.21891C24.2139 7.24396 24.3958 7.35238 24.528 7.51924C24.6437 7.67775 24.6933 7.86131 24.6602 8.05316L24.6107 8.37854C24.7098 8.39523 24.842 8.41193 24.8834 8.42028C25.1643 8.47032 25.4536 8.52041 25.7263 8.57879L25.8833 8.61213L25.9495 8.28676C26.0156 7.95309 26.3131 7.7195 26.6685 7.7195C26.7346 7.7195 26.8007 7.72779 26.8586 7.74449C27.0652 7.79458 27.247 7.92805 27.3462 8.1116C27.4454 8.27847 27.4701 8.47867 27.4123 8.65388L27.3214 8.9709C27.4205 8.99595 27.5528 9.03763 27.5941 9.04598C27.7511 9.09602 27.9081 9.13776 28.0569 9.1878V13.8348L14.3957 13.8431V9.2045ZM39.3296 13.8681L33.2305 13.8598V6.40965C35.8007 8.35355 37.9082 10.9148 39.3296 13.8681ZM17.0487 3.69824C18.0982 3.24773 19.2387 2.25493 21.0569 2.25493C23.0156 2.25493 24.3214 2.83893 25.3627 3.30613C26.09 3.6315 26.7181 3.91515 27.371 3.91515H34.6106V4.62429H32.6354H32.5528V5.04143V13.8681H30.842L30.4618 7.80293V7.76118L30.4371 7.74449C30.09 7.47755 29.7181 7.25225 29.3462 7.05205C29.685 7.29399 30.0156 7.55264 30.3048 7.84461L29.9247 13.8765H28.809V8.77899H28.8007V8.77065L28.7346 8.74566C28.561 8.68721 28.3875 8.62883 28.2139 8.57045L28.1313 8.5454V8.46197C28.123 7.83627 27.6685 7.28565 27.0239 7.12713C26.8999 7.09374 26.7759 7.08545 26.6602 7.08545C26.1974 7.08545 25.7677 7.30234 25.5114 7.6694L25.3627 7.88636L25.2966 7.63607C25.1561 7.08545 24.6685 6.66829 24.0734 6.59321C24.0156 6.58486 23.9495 6.58486 23.8916 6.58486C23.3544 6.58486 22.8751 6.86849 22.6437 7.31904L22.5197 7.55264L22.4288 7.31069C22.2222 6.78506 21.685 6.43468 21.09 6.43468C20.4949 6.43468 19.9578 6.79341 19.7594 7.32739L19.6685 7.57762L19.5445 7.34403C19.3049 6.90189 18.8337 6.62655 18.3048 6.62655C18.2387 6.62655 18.1726 6.6349 18.1065 6.64325C17.5114 6.71833 17.0238 7.14383 16.8916 7.69445L16.8338 7.95309L16.685 7.73614C16.4371 7.37742 16.0073 7.16888 15.5445 7.16888C15.4205 7.16888 15.2883 7.18552 15.1644 7.21891C14.5197 7.38577 14.0735 7.93639 14.0735 8.5621V8.64553L13.9908 8.67057C13.8999 8.69556 13.8172 8.72896 13.7263 8.76235L13.6602 8.78734V8.79569H13.652V13.8431H12.4867L12.3544 7.94474C12.7594 7.59432 13.2222 7.2773 13.7098 7.01036C14.2387 6.70998 14.8007 6.45137 15.3793 6.23445C16.5363 5.80063 17.7511 5.51697 18.9825 5.35011C19.6024 5.26669 20.2222 5.21663 20.842 5.1916C21.4619 5.16657 22.09 5.16657 22.7181 5.19994C23.966 5.26669 25.2139 5.44189 26.4288 5.76726C25.2304 5.38349 23.9908 5.14155 22.7346 5.02475C22.1065 4.96635 21.4784 4.93298 20.842 4.93298C20.2139 4.92463 19.5776 4.94966 18.9495 4.99972C17.685 5.10818 16.4288 5.34177 15.2139 5.73388C14.6024 5.93411 14.0073 6.17606 13.4288 6.46805C12.8503 6.76007 12.2966 7.09374 11.7759 7.52759L11.6602 7.61937V7.78623L11.528 13.8431H10.1065L9.62716 4.61595L14.3462 4.38235C15.3296 4.38235 16.1974 4.06532 17.0487 3.69824ZM8.89987 6.46805V13.8431L2.94121 13.8348C2.7098 14.2185 2.48666 14.7942 2.28831 15.2113C3.66848 11.7157 5.97425 8.70391 8.89987 6.46805ZM2.966 31.8802C2.99079 31.9303 3.01559 31.972 3.04039 32.0221C3.01559 31.9804 2.99079 31.9303 2.966 31.8802ZM3.26352 32.4642C3.36269 32.6478 3.46187 32.8397 3.56931 33.0232C3.46187 32.8314 3.36269 32.6478 3.26352 32.4642ZM6.19743 36.619C6.23048 36.6524 6.26353 36.6857 6.29658 36.7275C6.25524 36.6857 6.23048 36.6524 6.19743 36.619ZM6.5197 36.961C6.55275 36.9944 6.58586 37.0278 6.61891 37.0695C6.58586 37.0361 6.55275 36.9944 6.5197 36.961ZM6.63544 37.0862C6.66849 37.1196 6.69325 37.1446 6.72635 37.1779C6.69325 37.1446 6.6602 37.1112 6.63544 37.0862ZM6.74288 37.1946C6.76764 37.2196 6.80069 37.253 6.82551 37.2781C6.80069 37.253 6.77593 37.228 6.74288 37.1946ZM6.85032 37.3031C6.92466 37.3699 6.99082 37.4449 7.06515 37.5117C6.99082 37.4449 6.91642 37.3699 6.85032 37.3031ZM7.18089 37.6284C7.28833 37.7369 7.40401 37.837 7.51974 37.9455C7.40401 37.837 7.29657 37.7369 7.18089 37.6284ZM7.52798 37.9455C7.685 38.0873 7.83378 38.2208 7.9908 38.3543C7.83378 38.2208 7.67676 38.0873 7.52798 37.9455ZM9.52801 39.5556C9.80071 39.7475 10.0735 39.9311 10.3544 40.1063C10.0652 39.9311 9.79247 39.7392 9.52801 39.5556ZM11.3793 40.7153C11.4371 40.7487 11.4949 40.7821 11.561 40.8154L11.2057 32.2474V32.239L11.1974 32.2307L11.1478 32.1806C11.1313 32.1639 11.1148 32.1472 11.0983 32.1305C11.0652 32.0972 11.0239 32.0721 10.9908 32.0388C10.9164 31.9804 10.8338 31.9303 10.7594 31.8719C10.8338 31.9303 10.9081 31.9887 10.9743 32.0554C11.0073 32.0888 11.0404 32.1222 11.0734 32.1556C11.09 32.1723 11.1065 32.189 11.123 32.2056L11.1644 32.2474L11.1065 33.4904L10.809 40.3732C10.652 40.2815 10.5032 40.1897 10.3544 40.0896V39.0134L9.04866 39.1886C8.68499 38.9216 8.33789 38.638 7.99904 38.3459L8.11477 36.4438L6.20566 36.6023C5.85857 36.2185 5.52798 35.8264 5.20567 35.4176L5.3379 33.8575L4.13956 33.9493C4.42881 34.3998 4.7346 34.8336 5.05691 35.2507C4.51146 34.5416 4.01559 33.7908 3.56931 33.0149L5.39576 33.1317L5.55278 31.3296L5.70979 33.1484L8.29655 33.3152L8.42052 31.3296L8.54449 33.3319L10.3379 33.4487V32.239C10.214 32.1639 9.00732 31.046 6.75111 30.9876C5.70155 30.9542 4.57757 31.1378 3.88336 31.3296C3.92468 31.2963 3.95774 31.2712 3.99906 31.2379C4.02385 31.2128 4.05691 31.1961 4.0817 31.1711L4.17261 31.1127C4.40402 30.9542 4.66022 30.8124 4.92468 30.6956C5.18914 30.5788 5.46187 30.4787 5.74284 30.4036C5.88333 30.3619 6.02388 30.3285 6.16438 30.2951C6.30487 30.2701 6.4536 30.2367 6.59409 30.2117C6.88337 30.1616 7.18089 30.1366 7.4784 30.1116L7.9247 30.0866C8.07343 30.0782 8.22222 30.0782 8.37095 30.0782C8.66846 30.0782 8.96603 30.0949 9.26354 30.1282C8.97426 30.0699 8.67675 30.0282 8.37924 29.9948C8.23045 29.9781 8.08172 29.9697 7.93294 29.9614L7.48664 29.9447C7.18912 29.9364 6.88337 29.9364 6.57757 29.9614C6.42884 29.9697 6.27176 29.9864 6.12303 30.0031C5.97425 30.0282 5.81723 30.0449 5.6685 30.0699C5.06517 30.1783 4.47013 30.3702 3.91641 30.6706L3.80898 30.729C3.77592 30.7457 3.74286 30.7706 3.7098 30.7873C3.64369 30.8291 3.57757 30.8708 3.51146 30.9209C3.37922 31.0126 3.25526 31.1044 3.13129 31.2128C3.01559 31.313 2.90815 31.4214 2.80071 31.5382C2.8255 31.5883 2.8503 31.6466 2.87509 31.6967C1.57757 28.9937 0.842034 25.9652 0.842034 22.7616C0.842034 20.3171 1.26352 17.9728 2.04865 15.8036L40.2718 16.1958C40.966 18.2564 41.3379 20.4673 41.3379 22.7616C41.3379 26.5826 40.2966 30.1616 38.4949 33.2151C38.5362 33.1484 38.5776 33.0816 38.6106 33.0149V32.2223C38.4867 32.1472 37.28 31.0293 35.0239 30.9709C33.9743 30.9375 32.8503 31.1211 32.1561 31.313C32.1974 31.2796 32.2305 31.2545 32.2718 31.2212C32.2966 31.1961 32.3296 31.1794 32.3544 31.1545L32.4454 31.096C32.6768 30.9375 32.9329 30.7957 33.1974 30.6789C33.4619 30.5621 33.7346 30.462 34.0156 30.3869C34.1561 30.3452 34.2966 30.3118 34.4371 30.2785C34.5776 30.2534 34.7263 30.22 34.8668 30.195C35.1561 30.1449 35.4536 30.12 35.7511 30.0949L36.1974 30.0699C36.3461 30.0615 36.4949 30.0615 36.6437 30.0615C36.9412 30.0615 37.2387 30.0782 37.5363 30.1116C37.247 30.0532 36.9495 30.0115 36.652 29.9781C36.5032 29.9614 36.3544 29.9531 36.2057 29.9447L35.7594 29.928C35.4619 29.9197 35.1561 29.9197 34.8503 29.9447C34.7016 29.9531 34.5445 29.9697 34.3957 29.9864C34.247 30.0115 34.0899 30.0282 33.9412 30.0532C33.3379 30.1616 32.7429 30.3535 32.1891 30.6539L32.0817 30.7123C32.0486 30.729 32.0156 30.754 31.9825 30.7706C31.9164 30.8124 31.8503 30.8541 31.7842 30.9042C31.652 30.9959 31.528 31.0877 31.404 31.1961C31.2801 31.3046 31.1644 31.413 31.0569 31.5382C30.9991 31.5966 30.9495 31.6633 30.8999 31.7301L30.8586 31.7802L30.8255 31.8302C30.8172 31.8469 30.8007 31.8636 30.7925 31.8886L30.7759 31.922L30.7677 31.9387L30.7594 31.947L30.7511 31.9637L30.7842 40.6903C27.9081 42.2754 24.6024 43.1764 21.09 43.1764C17.5776 43.2181 14.2635 42.3171 11.3793 40.7153ZM10.8007 40.3816C10.8586 40.4149 10.9164 40.4483 10.9743 40.4817C10.9247 40.4567 10.8586 40.4233 10.8007 40.3816ZM37.0404 35.3843C36.7181 35.793 36.3875 36.1935 36.0404 36.5773C36.0734 36.5355 36.1148 36.4939 36.1478 36.4605L34.1313 36.6357L34.2387 38.3376C34.2801 38.3042 34.3214 38.2625 34.3627 38.2292C34.0073 38.5378 33.6437 38.8382 33.2718 39.1218V39.0884L31.9081 39.3471L31.9743 40.0312C32.1148 39.9394 32.247 39.8477 32.3875 39.7559C32.2056 39.881 32.0239 39.9978 31.842 40.1146C31.6437 40.2398 31.4371 40.3649 31.2305 40.4817C31.214 40.4901 31.1974 40.4984 31.1891 40.5067C31.1974 40.4984 31.214 40.49 31.2222 40.49C31.214 40.4984 31.1974 40.5067 31.1891 40.5067V31.9971L31.3049 32.9815L33.6685 33.1317L33.7842 31.3296L33.8999 33.1484L36.4536 33.3152L36.6437 31.3296L36.8338 33.3319L38.3709 33.432C38.247 33.6323 38.1231 33.8325 37.9991 34.0244C38.0982 33.8742 38.1974 33.7157 38.2966 33.5655L36.8751 33.6573L37.0404 35.3843ZM37.9991 34.041C37.9743 34.0744 37.9577 34.1078 37.9329 34.1412C37.9577 34.1078 37.9826 34.0744 37.9991 34.041ZM37.8503 34.2746C37.8255 34.308 37.809 34.3414 37.7842 34.3748C37.8007 34.3414 37.8255 34.308 37.8503 34.2746ZM37.7759 34.3831C37.6768 34.5333 37.5693 34.6834 37.4619 34.8336C37.561 34.6834 37.6685 34.5333 37.7759 34.3831ZM37.3709 34.9504C37.3462 34.9838 37.3214 35.0088 37.3048 35.0422C37.3214 35.0172 37.3462 34.9838 37.3709 34.9504ZM37.2883 35.0672C37.2635 35.1006 37.247 35.1256 37.2222 35.159C37.2387 35.1256 37.2635 35.0922 37.2883 35.0672ZM37.2057 35.1757C37.1809 35.2091 37.1561 35.234 37.1313 35.2674C37.1561 35.234 37.1809 35.2007 37.2057 35.1757ZM37.123 35.2758C37.0983 35.3091 37.0734 35.3425 37.0404 35.3843C37.0734 35.3509 37.0983 35.3175 37.123 35.2758ZM33.28 39.1135C33.0487 39.2887 32.8173 39.4639 32.5776 39.6307C32.809 39.4639 33.0487 39.2887 33.28 39.1135ZM31.1891 40.5067C31.123 40.5401 31.0569 40.5818 30.9991 40.6152C31.0569 40.5818 31.123 40.5485 31.1891 40.5067ZM34.3792 38.2125C34.4206 38.1791 34.4536 38.1457 34.4949 38.1123C34.4536 38.1457 34.4123 38.1791 34.3792 38.2125ZM34.5032 38.104C34.5858 38.0372 34.6602 37.9622 34.7428 37.8871C34.6602 37.9622 34.5858 38.0289 34.5032 38.104ZM34.7511 37.8787C34.7842 37.8454 34.8255 37.812 34.8586 37.7786C34.8255 37.812 34.7925 37.8454 34.7511 37.8787ZM34.8751 37.7703C34.9495 37.6952 35.0321 37.6201 35.1065 37.545C35.0239 37.6201 34.9495 37.6952 34.8751 37.7703ZM35.1147 37.5367C35.1561 37.5033 35.1891 37.4616 35.2305 37.4282C35.1891 37.4616 35.1561 37.495 35.1147 37.5367ZM35.8172 36.8192C35.8916 36.7358 35.966 36.6607 36.0404 36.5773C35.966 36.6607 35.8916 36.7441 35.8172 36.8192ZM35.4701 37.1779C35.5445 37.1029 35.6189 37.0194 35.6932 36.9444C35.6189 37.0278 35.5445 37.1029 35.4701 37.1779Z" fill="#EBEDEF"/>
<path d="M24.1313 12.5668L24.2388 11.6074L22.3462 11.7325L22.528 12.5751L24.1313 12.5668Z" fill="#EBEDEF"/>
<path d="M26.4783 12.5667V11.4488L24.6519 11.574L24.7592 12.5667H26.4783Z" fill="#EBEDEF"/>
<path d="M26.9823 10.9483L26.974 10.94L26.941 10.9149C26.9327 10.9066 26.9245 10.8982 26.9079 10.8899C26.8831 10.8732 26.8666 10.8565 26.8418 10.8398C26.8005 10.8065 26.7509 10.7731 26.7013 10.7481C26.7426 10.7815 26.784 10.8148 26.8253 10.8565C26.8418 10.8732 26.8666 10.8982 26.8831 10.9149C26.8914 10.9233 26.8997 10.9316 26.9079 10.9483L26.9327 10.9733L26.7757 12.9089H22.1228V10.8231L22.2137 11.2653L24.2385 11.3571L24.3625 10.2308C24.3542 10.2308 24.3542 10.2308 24.3459 10.2308C23.7344 10.2141 23.0732 10.3143 22.6682 10.431C22.6931 10.4143 22.7096 10.3977 22.7344 10.381C22.7509 10.3727 22.7674 10.356 22.784 10.3476L22.8335 10.3143C22.974 10.2225 23.1228 10.1391 23.2716 10.0723C23.4286 10.0055 23.5856 9.94715 23.7509 9.89712C23.8335 9.87207 23.9162 9.85537 23.9988 9.83038C24.0815 9.81369 24.1642 9.79699 24.255 9.78029C24.4286 9.7553 24.5939 9.7386 24.7674 9.72191L25.0319 9.71356C25.1228 9.71356 25.2054 9.70521 25.2963 9.70521C25.4699 9.70521 25.6435 9.71356 25.817 9.73026C25.6435 9.69686 25.4699 9.67187 25.2963 9.65517C25.2054 9.64682 25.1228 9.63848 25.0319 9.63848L24.7674 9.63013C24.5939 9.63013 24.4121 9.63013 24.2385 9.63848C24.1476 9.63848 24.0649 9.65517 23.974 9.66352C23.8832 9.68022 23.8005 9.68851 23.7096 9.70521C23.3542 9.77194 23.0071 9.88042 22.6848 10.0556L22.627 10.089C22.6104 10.0973 22.5856 10.114 22.5691 10.1224C22.5277 10.1474 22.4947 10.1724 22.4534 10.1974C22.379 10.2475 22.3046 10.3059 22.2302 10.3727C22.1559 10.431 22.0897 10.4978 22.0236 10.5729C21.9906 10.6062 21.9575 10.6479 21.9327 10.6897L21.908 10.723L21.8831 10.7564C21.8749 10.7648 21.8666 10.7815 21.8583 10.7898L21.8501 10.8065L21.8418 10.8148V10.8231V10.8315L21.8666 13.1842H26.7592H26.7757H27.1228L27.1145 13.009L26.9823 10.9483Z" fill="#EBEDEF"/>
<path d="M24.6273 11.3487L26.4786 11.4322V10.9316C26.4125 10.8899 25.743 10.2725 24.4951 10.2057L24.6273 11.3487Z" fill="#EBEDEF"/>
<path d="M5.08197 26.833L5.20593 25.2813L3.51172 25.3897L3.71006 26.8664L5.08197 26.833Z" fill="#EBEDEF"/>
<path d="M7.9578 26.7579L8.08177 25.0977L5.8999 25.2395L6.01564 26.808L7.9578 26.7579Z" fill="#EBEDEF"/>
<path d="M5.37096 23.0954L3.23047 23.2289L3.37923 24.4052L5.26353 24.5304L5.37096 23.0954Z" fill="#EBEDEF"/>
<path d="M10.3378 26.6911V24.9559L8.75098 25.0559L8.87495 26.7329L10.3378 26.6911Z" fill="#EBEDEF"/>
<path d="M10.338 22.7701L8.58594 22.8868L8.72643 24.7473L10.338 24.8558V22.7701Z" fill="#EBEDEF"/>
<path d="M8.24729 22.9036L5.73486 23.0704L5.84231 24.5638L8.11503 24.7139L8.24729 22.9036Z" fill="#EBEDEF"/>
<path d="M11.2059 21.6187V21.6104L11.1976 21.602L11.148 21.552C11.1315 21.5353 11.115 21.5186 11.0984 21.5019C11.0654 21.4685 11.024 21.4435 10.991 21.4102C10.9166 21.3517 10.834 21.3017 10.7596 21.2433C10.834 21.3017 10.9084 21.3601 10.9745 21.4268C11.0075 21.4602 11.0406 21.4936 11.0736 21.5269C11.0901 21.5436 11.1067 21.5603 11.1232 21.577L11.1645 21.6187L10.9001 27.5588H2.95793V21.3684L3.09842 22.1944L5.43727 22.3445L5.56123 20.701L5.68519 22.3612L8.28849 22.5281L8.42898 20.701L8.56947 22.5531L10.3546 22.6699V21.6104C10.2306 21.5353 9.02406 20.4173 6.76786 20.3589C5.71824 20.3255 4.59429 20.5091 3.90007 20.701C3.9414 20.6676 3.97445 20.6426 4.01578 20.6092C4.04057 20.5842 4.07363 20.5675 4.09842 20.5425L4.18933 20.4841C4.42074 20.3256 4.67694 20.1837 4.9414 20.067C5.20586 19.9501 5.47859 19.85 5.75959 19.7749C5.90008 19.7332 6.04057 19.6998 6.18107 19.6665C6.32156 19.6415 6.47035 19.6081 6.61084 19.5831C6.90007 19.533 7.19758 19.508 7.49509 19.483L7.94139 19.4579C8.09018 19.4496 8.23891 19.4496 8.38769 19.4496C8.68521 19.4496 8.98272 19.4663 9.28024 19.4996C8.99096 19.4412 8.69344 19.3995 8.39593 19.3661C8.2472 19.3495 8.09841 19.3411 7.94969 19.3328L7.50339 19.3161C7.20587 19.3077 6.90007 19.3077 6.59432 19.3328C6.44553 19.3411 6.28851 19.3578 6.13973 19.3745C5.991 19.3995 5.83398 19.4162 5.68519 19.4412C5.0819 19.5497 4.48685 19.7416 3.93313 20.0419L3.8257 20.1003C3.79264 20.117 3.75958 20.142 3.72652 20.1587C3.6604 20.2004 3.59429 20.2421 3.52817 20.2922C3.39594 20.384 3.27198 20.4757 3.14801 20.5842C3.02404 20.6927 2.90834 20.8011 2.8009 20.9263C2.74305 20.9846 2.69346 21.0514 2.64387 21.1181L2.60256 21.1682L2.56949 21.2182C2.56123 21.2349 2.5447 21.2516 2.53644 21.2766L2.51991 21.31L2.51164 21.3267L2.50338 21.3351L2.49512 21.3517L2.52817 27.9926H10.8835H10.9084H11.4951L11.4786 27.6923L11.2059 21.6187Z" fill="#EBEDEF"/>
<path d="M17.7182 12.5668L17.8257 11.6074L15.9331 11.7325L16.1067 12.5751L17.7182 12.5668Z" fill="#EBEDEF"/>
<path d="M20.0569 12.5667V11.4488L18.2305 11.574L18.3379 12.5667H20.0569Z" fill="#EBEDEF"/>
<path d="M20.5692 10.9483L20.561 10.94L20.5279 10.9149C20.5196 10.9066 20.5114 10.8982 20.4948 10.8899C20.47 10.8732 20.4535 10.8565 20.4287 10.8398C20.3874 10.8065 20.3378 10.7731 20.2882 10.7481C20.3295 10.7815 20.3708 10.8148 20.4122 10.8565C20.4287 10.8732 20.4535 10.8982 20.47 10.9149C20.4783 10.9233 20.4866 10.9316 20.4948 10.9483L20.5196 10.9733L20.3626 12.9089H15.7097V10.8231L15.8006 11.2653L17.8254 11.3571L17.9494 10.2308C17.9411 10.2308 17.9411 10.2308 17.9329 10.2308C17.3213 10.2141 16.6601 10.3143 16.2552 10.431C16.28 10.4143 16.2965 10.3977 16.3213 10.381C16.3378 10.3727 16.3543 10.356 16.3708 10.3476L16.4205 10.3143C16.561 10.2225 16.7097 10.1391 16.8585 10.0723C17.0155 10.0055 17.1725 9.94715 17.3378 9.89712C17.4204 9.87207 17.5031 9.85537 17.5858 9.83038C17.6684 9.81369 17.751 9.79699 17.8419 9.78029C18.0155 9.7553 18.1808 9.7386 18.3543 9.72191L18.6188 9.71356C18.7097 9.71356 18.7923 9.70521 18.8833 9.70521C19.0568 9.70521 19.2304 9.71356 19.4039 9.73026C19.2304 9.69686 19.0568 9.67187 18.8833 9.65517C18.7923 9.64682 18.7097 9.63848 18.6188 9.63848L18.3543 9.63013C18.1808 9.63013 17.999 9.63013 17.8254 9.63848C17.7345 9.63848 17.6519 9.65517 17.5609 9.66352C17.47 9.68022 17.3874 9.68851 17.2965 9.70521C16.9411 9.77194 16.594 9.88042 16.2717 10.0556L16.2138 10.089C16.1973 10.0973 16.1725 10.114 16.156 10.1224C16.1147 10.1474 16.0816 10.1724 16.0403 10.1974C15.9659 10.2475 15.8915 10.3059 15.8171 10.3727C15.7428 10.431 15.6766 10.4978 15.6105 10.5729C15.5774 10.6062 15.5444 10.6479 15.5196 10.6897L15.4948 10.723L15.4701 10.7564C15.4618 10.7648 15.4535 10.7815 15.4452 10.7898L15.437 10.8065L15.4287 10.8148V10.8231V10.8315L15.4535 13.1842H20.3461H20.3626H20.7097L20.7015 13.009L20.5692 10.9483Z" fill="#EBEDEF"/>
<path d="M20.0572 10.9399C19.9911 10.8982 19.3217 10.2808 18.0737 10.2141L18.1977 11.3571L20.0489 11.4405V10.9399H20.0572Z" fill="#EBEDEF"/>
<path d="M33.3627 26.833L33.4867 25.2813L31.7925 25.3897L31.9908 26.8664L33.3627 26.833Z" fill="#EBEDEF"/>
<path d="M36.2385 26.7579L36.3625 25.0977L34.1807 25.2395L34.2964 26.808L36.2385 26.7579Z" fill="#EBEDEF"/>
<path d="M33.6517 23.0954L31.5112 23.2289L31.66 24.4052L33.5443 24.5304L33.6517 23.0954Z" fill="#EBEDEF"/>
<path d="M38.6189 26.6911V24.9559L37.0322 25.0559L37.1561 26.7329L38.6189 26.6911Z" fill="#EBEDEF"/>
<path d="M38.6188 22.7701L36.8667 22.8868L37.0072 24.7473L38.6188 24.8558V22.7701Z" fill="#EBEDEF"/>
<path d="M36.528 22.9036L34.0156 23.0704L34.1313 24.5638L36.3958 24.7139L36.528 22.9036Z" fill="#EBEDEF"/>
<path d="M39.156 28.026H39.1808H39.7676L39.751 27.7257L39.4783 21.6187V21.6104L39.4701 21.602L39.4205 21.552C39.404 21.5353 39.3874 21.5186 39.3709 21.5019C39.3379 21.4685 39.2965 21.4435 39.2635 21.4102C39.1891 21.3517 39.1064 21.3017 39.032 21.2433C39.1064 21.3017 39.1808 21.3601 39.2469 21.4268C39.28 21.4602 39.313 21.4936 39.3461 21.5269C39.3626 21.5436 39.3791 21.5603 39.3957 21.577L39.437 21.6187L39.1725 27.5588H31.2304V21.3768L31.3709 22.2027L33.7097 22.3529L33.8337 20.7094L33.9577 22.3696L36.561 22.5364L36.7015 20.7094L36.842 22.5614L38.6271 22.6783V21.6104C38.5031 21.5353 37.2965 20.4173 35.0403 20.3589C33.9907 20.3255 32.8668 20.5091 32.1726 20.701C32.2139 20.6676 32.2469 20.6426 32.2883 20.6092C32.3131 20.5842 32.3461 20.5675 32.3709 20.5425L32.4618 20.4841C32.6932 20.3256 32.9494 20.1837 33.2139 20.067C33.4783 19.9501 33.7511 19.85 34.0321 19.7749C34.1726 19.7332 34.313 19.6998 34.4535 19.6665C34.594 19.6415 34.7428 19.6081 34.8833 19.5831C35.1725 19.533 35.4701 19.508 35.7676 19.483L36.2139 19.4579C36.3627 19.4496 36.5114 19.4496 36.6602 19.4496C36.9577 19.4496 37.2552 19.4663 37.5527 19.4996C37.2635 19.4412 36.9659 19.3995 36.6684 19.3661C36.5197 19.3495 36.3709 19.3411 36.2222 19.3328L35.7759 19.3161C35.4783 19.3077 35.1725 19.3077 34.8668 19.3328C34.718 19.3411 34.561 19.3578 34.4122 19.3745C34.2635 19.3995 34.1065 19.4162 33.9577 19.4412C33.3543 19.5497 32.7593 19.7416 32.2056 20.0419L32.0982 20.1003C32.0651 20.117 32.0321 20.142 31.999 20.1587C31.9329 20.2004 31.8668 20.2421 31.8007 20.2922C31.6684 20.384 31.5444 20.4757 31.4205 20.5842C31.2965 20.6927 31.1808 20.8011 31.0734 20.9263C31.0155 20.9846 30.9659 21.0514 30.9164 21.1181L30.875 21.1682L30.842 21.2182C30.8337 21.2349 30.8172 21.2516 30.8089 21.2766L30.7924 21.31L30.7841 21.3267L30.7759 21.3351L30.7676 21.3517L30.8006 27.9926H39.156V28.026Z" fill="#EBEDEF"/>
</g>
</g>
</g>
</g>
<defs>
<clipPath id="clip0_431_20">
<rect width="121" height="44" fill="white" transform="translate(0.00732422 0.928589)"/>
</clipPath>
</defs>
</svg>
