<svg width="161" height="35" viewBox="0 0 161 35" fill="none" xmlns="http://www.w3.org/2000/svg">
<g clip-path="url(#clip0_409_236)">
<path d="M10.4966 1.8233C15.3536 1.8233 19.4081 5.30001 20.3639 9.92872L30.658 4.17792L34.5352 19.3708L20.9651 33.2743C20.9651 33.2743 20.2495 34.0311 18.9987 34.0311C17.7481 34.0311 17.1644 33.1902 17.1644 33.1902L3.46237 19.3708L3.48558 19.3578C1.59275 17.5029 0.416016 14.9039 0.416016 12.0266C0.416016 6.3915 4.92928 1.8233 10.4966 1.8233Z" fill="#EBEDEF"/>
<path d="M27.8244 1.88022C33.3011 1.95024 37.7201 6.4533 37.7201 11.9987L37.7199 12.0696C37.6995 15.0642 36.39 17.7497 34.3245 19.5892C34.1639 19.7577 33.9877 19.9426 33.7976 20.1419L33.1826 20.786C32.0195 22.0031 30.5085 23.5794 28.9316 25.2111L28.2525 25.9129C26.5491 27.6712 24.8156 29.444 23.3991 30.8573L23.1202 31.135C22.4805 31.7705 21.9138 32.3231 21.4559 32.7548C21.5136 32.6942 21.5467 32.6576 21.5467 32.6576V26.1544L28.9687 18.6421C28.9698 18.6408 29.4397 18.0252 29.5504 17.8012C29.6611 17.5769 29.7165 17.0723 29.7165 17.0723V12.38C30.9021 12.0191 31.7659 10.9057 31.7659 9.58802C31.7659 7.97798 30.4763 6.67279 28.8857 6.67278C27.295 6.67278 26.0054 7.97797 26.0054 9.58802C26.0054 10.9076 26.8717 12.0224 28.06 12.3817L28.0825 16.5118C28.0825 16.5118 28.0825 16.792 28.0272 16.9882C27.9718 17.1842 27.7509 17.4359 27.7502 17.4367L20.7159 24.5567C20.7159 24.5567 20.3836 24.865 20.1343 25.3976C19.8852 25.9299 19.8021 26.4901 19.802 26.4909V33.919C19.8142 33.9203 19.8269 33.9207 19.8397 33.9207C19.4164 34.0404 19.0082 34.0517 18.6803 34.0161C18.4754 33.9938 18.2974 33.9527 18.163 33.9055L18.1367 33.896C18.0692 33.8707 18.0076 33.8418 17.9598 33.8095C17.943 33.7983 17.9249 33.7845 17.9079 33.7679L17.7848 21.9498L20.7954 18.7815C21.1374 18.9264 21.5128 19.0065 21.9068 19.0065C23.4974 19.0065 24.787 17.7013 24.787 16.0912C24.787 14.4812 23.4974 13.176 21.9068 13.176C20.3161 13.176 19.0265 14.4812 19.0265 16.0912C19.0265 16.7257 19.2269 17.3127 19.5669 17.7913L16.6493 20.7444C16.6493 20.7444 16.2893 21.1368 16.2062 21.4452C16.1231 21.7536 16.1508 22.3982 16.1508 22.3982V26.3464L12.0464 22.5504L12.0381 22.5431L12.0341 22.538L12.031 22.5342L12.0298 22.5327L12.0289 22.5316C12.0288 22.5314 12.0285 22.5311 12.0282 22.5308L12.0253 22.5273L12.0113 22.5095C12.0052 22.5018 11.9976 22.4924 11.9891 22.4812L11.9596 22.4424C11.9266 22.3986 11.8833 22.3394 11.8323 22.2659L11.7788 22.1876C11.6392 21.9804 11.4566 21.6851 11.2714 21.3178L11.2342 21.2433C10.8454 20.4525 10.4538 19.3421 10.4417 18.0587L10.4414 17.998L10.4417 17.9361C10.4538 16.6526 10.8454 15.542 11.2342 14.7514L11.2714 14.6769C11.4566 14.3095 11.6392 14.0143 11.7788 13.807L11.8323 13.7288C11.8833 13.6552 11.9266 13.5961 11.9596 13.5521L11.9891 13.5135C11.9976 13.5023 12.0052 13.4927 12.0113 13.485L12.0253 13.4674L12.0282 13.4637C12.0286 13.4634 12.029 13.4629 12.0291 13.4628C12.0291 13.4629 12.0292 13.4627 12.0291 13.4628L12.0337 13.457L12.0359 13.4542L12.0429 13.4475L19.8995 5.63508C21.7373 3.34426 24.5467 1.8794 27.6948 1.87939L27.8244 1.88022Z" fill="#606E7C"/>
<path d="M21.9066 14.8018C22.6101 14.8018 23.1805 15.3791 23.1805 16.0912C23.1805 16.8033 22.6101 17.3806 21.9066 17.3806C21.2029 17.3806 20.6326 16.8033 20.6326 16.0912C20.6326 15.3791 21.2029 14.8018 21.9066 14.8018Z" fill="#606E7C"/>
<path d="M28.8856 8.29858C29.5891 8.29858 30.1595 8.87589 30.1595 9.58802C30.1595 10.3001 29.5891 10.8774 28.8856 10.8774C28.1819 10.8774 27.6116 10.3001 27.6116 9.58802C27.6116 8.87589 28.1819 8.29858 28.8856 8.29858Z" fill="#606E7C"/>
<path d="M51.7152 22.4023C51.3475 22.4023 51.0646 22.3021 50.8666 22.1016C50.6686 21.9012 50.5696 21.6149 50.5696 21.2427V13.4692C50.5696 13.097 50.6686 12.8107 50.8666 12.6103C51.0646 12.4098 51.3475 12.3096 51.7152 12.3096H56.6513C56.9342 12.3096 57.1464 12.386 57.2878 12.5387C57.4386 12.6818 57.5141 12.8918 57.5141 13.1686C57.5141 13.4549 57.4386 13.6744 57.2878 13.8271C57.1464 13.9703 56.9342 14.0418 56.6513 14.0418H52.6628V16.4039H56.326C56.6183 16.4039 56.8352 16.4803 56.9767 16.633C57.1275 16.7762 57.2029 16.9909 57.2029 17.2772C57.2029 17.5635 57.1275 17.783 56.9767 17.9357C56.8352 18.0789 56.6183 18.1505 56.326 18.1505H52.6628V20.6701H56.6513C56.9342 20.6701 57.1464 20.7464 57.2878 20.8991C57.4386 21.0423 57.5141 21.2523 57.5141 21.529C57.5141 21.8153 57.4386 22.0348 57.2878 22.1875C57.1464 22.3307 56.9342 22.4023 56.6513 22.4023H51.7152ZM63.4045 22.5597C62.6973 22.5597 62.0702 22.4691 61.5234 22.2877C60.9859 22.0969 60.5333 21.8201 60.1656 21.4574C59.7979 21.0948 59.5197 20.6414 59.3311 20.0974C59.1519 19.5438 59.0624 18.9045 59.0624 18.1791V13.3117C59.0624 12.9395 59.1566 12.658 59.3453 12.4671C59.5338 12.2763 59.8072 12.1808 60.1656 12.1808C60.5144 12.1808 60.7832 12.2763 60.9718 12.4671C61.1603 12.658 61.2547 12.9395 61.2547 13.3117V18.1934C61.2547 19.0142 61.4385 19.6346 61.8063 20.0545C62.174 20.4649 62.7067 20.6701 63.4045 20.6701C64.1022 20.6701 64.6302 20.4649 64.9886 20.0545C65.3563 19.6346 65.5402 19.0142 65.5402 18.1934V13.3117C65.5402 12.9395 65.6344 12.658 65.8231 12.4671C66.0116 12.2763 66.2803 12.1808 66.6293 12.1808C66.9781 12.1808 67.2421 12.2763 67.4213 12.4671C67.6098 12.658 67.7042 12.9395 67.7042 13.3117V18.1791C67.7042 19.143 67.5391 19.9543 67.2091 20.6128C66.8885 21.2617 66.4076 21.7485 65.7665 22.073C65.1347 22.3975 64.3473 22.5597 63.4045 22.5597ZM70.6625 22.5311C70.3324 22.5311 70.0778 22.4405 69.8987 22.2591C69.729 22.0683 69.6441 21.801 69.6441 21.4574V13.2974C69.6441 12.9348 69.729 12.658 69.8987 12.4671C70.0778 12.2763 70.3136 12.1808 70.6059 12.1808C70.8605 12.1808 71.0537 12.2333 71.1858 12.3383C71.3272 12.4337 71.4875 12.5959 71.6667 12.825L76.6311 19.2242H76.2492V13.2402C76.2492 12.9062 76.3341 12.6485 76.5038 12.4671C76.6829 12.2763 76.9375 12.1808 77.2676 12.1808C77.5976 12.1808 77.8475 12.2763 78.0172 12.4671C78.1963 12.6485 78.2859 12.9062 78.2859 13.2402V21.5004C78.2859 21.8153 78.2057 22.0683 78.0455 22.2591C77.8851 22.4405 77.6683 22.5311 77.3949 22.5311C77.1308 22.5311 76.9187 22.4786 76.7584 22.3736C76.6075 22.2687 76.4425 22.1016 76.2634 21.8726L71.3131 15.4734H71.6808V21.4574C71.6808 21.801 71.596 22.0683 71.4262 22.2591C71.2565 22.4405 71.0019 22.5311 70.6625 22.5311ZM84.9183 22.5597C83.9376 22.5597 83.0749 22.345 82.33 21.9155C81.5946 21.4765 81.0193 20.8657 80.6045 20.0831C80.199 19.3005 79.9963 18.3891 79.9963 17.3488C79.9963 16.5567 80.1095 15.8456 80.3358 15.2157C80.5714 14.5763 80.9062 14.0323 81.34 13.5837C81.7736 13.1256 82.2923 12.7725 82.8958 12.5244C83.5086 12.2763 84.1828 12.1522 84.9183 12.1522C85.9177 12.1522 86.7853 12.3669 87.5207 12.7964C88.2562 13.2258 88.8263 13.8318 89.232 14.6145C89.6466 15.3875 89.8544 16.2942 89.8544 17.3345C89.8544 18.1266 89.7368 18.8424 89.5008 19.4818C89.2647 20.1213 88.9306 20.6701 88.4967 21.1282C88.0629 21.5863 87.5443 21.9394 86.9409 22.1875C86.3374 22.4356 85.6632 22.5597 84.9183 22.5597ZM84.9183 20.6701C85.4746 20.6701 85.946 20.5412 86.3327 20.2835C86.7287 20.0163 87.0304 19.6346 87.2379 19.1383C87.4547 18.6325 87.5632 18.0359 87.5632 17.3488C87.5632 16.299 87.3321 15.4877 86.8701 14.9151C86.4081 14.3329 85.7575 14.0418 84.9183 14.0418C84.3714 14.0418 83.9 14.1707 83.5039 14.4284C83.1079 14.6861 82.8061 15.063 82.5988 15.5593C82.3913 16.0556 82.2876 16.6521 82.2876 17.3488C82.2876 18.3891 82.5186 19.2051 82.9806 19.7968C83.4426 20.379 84.0885 20.6701 84.9183 20.6701ZM92.653 22.5311C92.295 22.5311 92.0219 22.4309 91.8327 22.2305C91.6444 22.0301 91.5498 21.7485 91.5498 21.3858V13.3261C91.5498 12.9634 91.6444 12.6818 91.8327 12.4814C92.0219 12.281 92.295 12.1808 92.653 12.1808C93.0022 12.1808 93.2709 12.281 93.4592 12.4814C93.6484 12.6818 93.7421 12.9634 93.7421 13.3261V21.3858C93.7421 21.7485 93.6484 22.0301 93.4592 22.2305C93.2807 22.4309 93.0119 22.5311 92.653 22.5311ZM96.0316 22.5311C95.7682 22.5311 95.5507 22.4691 95.381 22.345C95.221 22.2209 95.1176 22.0539 95.0698 21.8439C95.0327 21.634 95.0751 21.4002 95.1971 21.1425L98.8179 13.1113C98.9691 12.7868 99.1485 12.553 99.3554 12.4098C99.5631 12.2571 99.8035 12.1808 100.077 12.1808C100.351 12.1808 100.591 12.2571 100.798 12.4098C101.006 12.553 101.18 12.7868 101.321 13.1113L104.97 21.1425C105.093 21.4002 105.136 21.6388 105.098 21.8583C105.069 22.0683 104.976 22.2352 104.815 22.3593C104.655 22.4738 104.447 22.5311 104.192 22.5311C103.872 22.5311 103.622 22.4548 103.443 22.3021C103.273 22.1493 103.123 21.9108 102.99 21.5863L102.142 19.5964L103.019 20.212H97.1207L97.9976 19.5964L97.1631 21.5863C97.0216 21.9203 96.8714 22.1636 96.7105 22.3164C96.5602 22.4595 96.3339 22.5311 96.0316 22.5311ZM100.048 14.6717L98.238 19.0381L97.8561 18.4797H102.283L101.901 19.0381L100.077 14.6717H100.048ZM115.186 22.5597C114.111 22.5597 113.191 22.345 112.428 21.9155C111.664 21.4861 111.074 20.8848 110.66 20.1117C110.254 19.3291 110.051 18.4082 110.051 17.3488C110.051 16.5567 110.165 15.8456 110.391 15.2157C110.627 14.5763 110.966 14.0323 111.409 13.5837C111.852 13.1256 112.39 12.7725 113.022 12.5244C113.663 12.2763 114.384 12.1522 115.186 12.1522C115.657 12.1522 116.133 12.2142 116.614 12.3383C117.105 12.4528 117.529 12.6198 117.887 12.8393C118.123 12.9729 118.283 13.14 118.368 13.3404C118.453 13.5408 118.477 13.7412 118.439 13.9416C118.41 14.1421 118.33 14.3138 118.198 14.457C118.075 14.6002 117.92 14.6908 117.731 14.729C117.543 14.7672 117.331 14.7243 117.095 14.6002C116.812 14.4284 116.515 14.3043 116.204 14.228C115.893 14.1516 115.577 14.1134 115.256 14.1134C114.624 14.1134 114.092 14.2423 113.658 14.5C113.234 14.7481 112.913 15.1108 112.696 15.588C112.48 16.0651 112.371 16.6521 112.371 17.3488C112.371 18.0359 112.48 18.6229 112.696 19.1096C112.913 19.5964 113.234 19.9686 113.658 20.2263C114.092 20.4744 114.624 20.5985 115.256 20.5985C115.558 20.5985 115.865 20.5603 116.176 20.484C116.497 20.4076 116.802 20.2883 117.095 20.1261C117.34 20.002 117.557 19.959 117.746 19.9972C117.944 20.0258 118.104 20.1117 118.227 20.2549C118.358 20.3885 118.439 20.5508 118.467 20.7416C118.505 20.9325 118.486 21.1234 118.41 21.3143C118.335 21.5051 118.194 21.6674 117.986 21.801C117.637 22.0396 117.208 22.2257 116.699 22.3593C116.19 22.4929 115.685 22.5597 115.186 22.5597ZM120.12 22.5311C119.857 22.5311 119.639 22.4691 119.469 22.345C119.309 22.2209 119.206 22.0539 119.158 21.8439C119.121 21.634 119.164 21.4002 119.286 21.1425L122.906 13.1113C123.057 12.7868 123.237 12.553 123.444 12.4098C123.651 12.2571 123.892 12.1808 124.165 12.1808C124.439 12.1808 124.68 12.2571 124.886 12.4098C125.094 12.553 125.268 12.7868 125.41 13.1113L129.059 21.1425C129.182 21.4002 129.224 21.6388 129.186 21.8583C129.158 22.0683 129.064 22.2352 128.903 22.3593C128.743 22.4738 128.535 22.5311 128.281 22.5311C127.961 22.5311 127.711 22.4548 127.531 22.3021C127.362 22.1493 127.211 21.9108 127.079 21.5863L126.23 19.5964L127.107 20.212H121.209L122.086 19.5964L121.251 21.5863C121.11 21.9203 120.96 22.1636 120.799 22.3164C120.649 22.4595 120.422 22.5311 120.12 22.5311ZM124.137 14.6717L122.326 19.0381L121.945 18.4797H126.371L125.99 19.0381L124.165 14.6717H124.137ZM131.59 22.5311C131.232 22.5311 130.958 22.4309 130.769 22.2305C130.581 22.0301 130.486 21.7485 130.486 21.3858V13.4406C130.486 13.0684 130.581 12.7868 130.769 12.596C130.967 12.4051 131.246 12.3096 131.604 12.3096H135.041C136.154 12.3096 137.012 12.5816 137.615 13.1256C138.219 13.6696 138.52 14.4284 138.52 15.4018C138.52 16.0317 138.384 16.5757 138.11 17.0338C137.837 17.492 137.441 17.8451 136.922 18.0932C136.413 18.3413 135.786 18.4654 135.041 18.4654L135.154 18.2221H135.734C136.13 18.2221 136.474 18.3223 136.766 18.5227C137.068 18.7135 137.328 19.0094 137.544 19.4103L138.421 21.0566C138.554 21.2952 138.615 21.529 138.605 21.7581C138.596 21.9871 138.511 22.1732 138.35 22.3164C138.19 22.4595 137.954 22.5311 137.643 22.5311C137.332 22.5311 137.077 22.4643 136.879 22.3307C136.691 22.1971 136.521 21.9919 136.37 21.7151L135.012 19.1812C134.871 18.914 134.697 18.7327 134.489 18.6372C134.291 18.5417 134.046 18.4941 133.754 18.4941H132.679V21.3858C132.679 21.7485 132.585 22.0301 132.396 22.2305C132.217 22.4309 131.948 22.5311 131.59 22.5311ZM132.679 16.8907H134.645C135.23 16.8907 135.668 16.7714 135.96 16.5328C136.262 16.2942 136.413 15.9363 136.413 15.4591C136.413 14.9914 136.262 14.6384 135.96 14.3997C135.668 14.1611 135.23 14.0418 134.645 14.0418H132.679V16.8907ZM141.48 22.4023C141.113 22.4023 140.83 22.3021 140.632 22.1016C140.434 21.9012 140.335 21.6149 140.335 21.2427V13.4692C140.335 13.097 140.434 12.8107 140.632 12.6103C140.83 12.4098 141.113 12.3096 141.48 12.3096H146.417C146.699 12.3096 146.912 12.386 147.053 12.5387C147.204 12.6818 147.279 12.8918 147.279 13.1686C147.279 13.4549 147.204 13.6744 147.053 13.8271C146.912 13.9703 146.699 14.0418 146.417 14.0418H142.428V16.4039H146.091C146.384 16.4039 146.6 16.4803 146.742 16.633C146.893 16.7762 146.968 16.9909 146.968 17.2772C146.968 17.5635 146.893 17.783 146.742 17.9357C146.6 18.0789 146.384 18.1505 146.091 18.1505H142.428V20.6701H146.417C146.699 20.6701 146.912 20.7464 147.053 20.8991C147.204 21.0423 147.279 21.2523 147.279 21.529C147.279 21.8153 147.204 22.0348 147.053 22.1875C146.912 22.3307 146.699 22.4023 146.417 22.4023H141.48Z" fill="#EBEDEF"/>
</g>
<defs>
<clipPath id="clip0_409_236">
<rect width="160" height="34" fill="white" transform="translate(0.416016 0.928589)"/>
</clipPath>
</defs>
</svg>
