<svg width="161" height="35" viewBox="0 0 161 35" fill="none" xmlns="http://www.w3.org/2000/svg">
<g clip-path="url(#clip0_1_17)">
<path d="M10.4965 1.8233C15.3534 1.8233 19.408 5.30001 20.3637 9.92872L30.6578 4.17792L34.5351 19.3708L20.9649 33.2743C20.9649 33.2743 20.2493 34.0311 18.9986 34.0311C17.748 34.0311 17.1643 33.1902 17.1643 33.1902L3.46225 19.3708L3.48545 19.3578C1.59263 17.5029 0.415894 14.9039 0.415894 12.0266C0.415894 6.3915 4.92916 1.8233 10.4965 1.8233Z" fill="#9F9FAA"/>
<path d="M27.8242 1.88022C33.3008 1.95024 37.7199 6.4533 37.7199 11.9987L37.7197 12.0696C37.6993 15.0642 36.3898 17.7497 34.3243 19.5892C34.1637 19.7577 33.9874 19.9426 33.7974 20.1419L33.1824 20.786C32.0193 22.0031 30.5083 23.5794 28.9313 25.2111L28.2523 25.9129C26.5488 27.6712 24.8154 29.444 23.3989 30.8573L23.12 31.135C22.4802 31.7705 21.9136 32.3231 21.4556 32.7548C21.5134 32.6942 21.5465 32.6576 21.5465 32.6576V26.1544L28.9685 18.6421C28.9695 18.6408 29.4395 18.0252 29.5501 17.8012C29.6609 17.5769 29.7162 17.0723 29.7162 17.0723V12.38C30.9019 12.0191 31.7656 10.9057 31.7656 9.58802C31.7656 7.97798 30.4761 6.67279 28.8855 6.67278C27.2947 6.67278 26.0052 7.97797 26.0052 9.58802C26.0052 10.9076 26.8715 12.0224 28.0597 12.3817L28.0823 16.5118C28.0823 16.5118 28.0823 16.792 28.0269 16.9882C27.9716 17.1842 27.7507 17.4359 27.75 17.4367L20.7157 24.5567C20.7157 24.5567 20.3834 24.865 20.1341 25.3976C19.885 25.9299 19.8019 26.4901 19.8018 26.4909V33.919C19.814 33.9203 19.8266 33.9207 19.8395 33.9207C19.4162 34.0404 19.008 34.0517 18.6801 34.0161C18.4751 33.9938 18.2972 33.9527 18.1628 33.9055L18.1365 33.896C18.0689 33.8707 18.0074 33.8418 17.9596 33.8095C17.9428 33.7983 17.9247 33.7845 17.9077 33.7679L17.7846 21.9498L20.7952 18.7815C21.1371 18.9264 21.5126 19.0065 21.9065 19.0065C23.4972 19.0065 24.7867 17.7013 24.7867 16.0912C24.7867 14.4812 23.4972 13.176 21.9065 13.176C20.3158 13.176 19.0263 14.4812 19.0263 16.0912C19.0263 16.7257 19.2267 17.3127 19.5667 17.7913L16.6491 20.7444C16.6491 20.7444 16.289 21.1368 16.206 21.4452C16.1229 21.7536 16.1505 22.3982 16.1505 22.3982V26.3464L12.0461 22.5504L12.0379 22.5431L12.0338 22.538L12.0307 22.5342L12.0296 22.5327L12.0287 22.5316C12.0285 22.5314 12.0283 22.5311 12.028 22.5308L12.0251 22.5273L12.011 22.5095C12.0049 22.5018 11.9974 22.4924 11.9888 22.4812L11.9594 22.4424C11.9263 22.3986 11.883 22.3394 11.832 22.2659L11.7785 22.1876C11.639 21.9804 11.4563 21.6851 11.2711 21.3178L11.234 21.2433C10.8452 20.4525 10.4536 19.3421 10.4414 18.0587L10.4412 17.998L10.4414 17.9361C10.4536 16.6526 10.8452 15.542 11.234 14.7514L11.2711 14.6769C11.4563 14.3095 11.639 14.0143 11.7785 13.807L11.832 13.7288C11.883 13.6552 11.9263 13.5961 11.9594 13.5521L11.9888 13.5135C11.9974 13.5023 12.0049 13.4927 12.011 13.485L12.0251 13.4674L12.028 13.4637C12.0284 13.4634 12.0288 13.4629 12.0289 13.4628C12.0289 13.4629 12.029 13.4627 12.0289 13.4628L12.0335 13.457L12.0357 13.4542L12.0427 13.4475L19.8993 5.63508C21.7371 3.34426 24.5465 1.8794 27.6946 1.87939L27.8242 1.88022Z" fill="#606E7C"/>
<path d="M21.9065 14.8018C22.6101 14.8018 23.1804 15.3791 23.1804 16.0912C23.1804 16.8033 22.6101 17.3806 21.9065 17.3806C21.2029 17.3806 20.6326 16.8033 20.6326 16.0912C20.6326 15.3791 21.2029 14.8018 21.9065 14.8018Z" fill="#606E7C"/>
<path d="M28.8855 8.29858C29.589 8.29858 30.1594 8.87589 30.1594 9.58802C30.1594 10.3001 29.589 10.8774 28.8855 10.8774C28.1818 10.8774 27.6115 10.3001 27.6115 9.58802C27.6115 8.87589 28.1818 8.29858 28.8855 8.29858Z" fill="#606E7C"/>
<path d="M51.715 22.4023C51.3473 22.4023 51.0644 22.3021 50.8664 22.1016C50.6684 21.9012 50.5694 21.6149 50.5694 21.2427V13.4692C50.5694 13.097 50.6684 12.8107 50.8664 12.6103C51.0644 12.4098 51.3473 12.3096 51.715 12.3096H56.6511C56.934 12.3096 57.1461 12.386 57.2876 12.5387C57.4384 12.6818 57.5139 12.8918 57.5139 13.1686C57.5139 13.4549 57.4384 13.6744 57.2876 13.8271C57.1461 13.9703 56.934 14.0418 56.6511 14.0418H52.6626V16.4039H56.3258C56.6181 16.4039 56.835 16.4803 56.9764 16.633C57.1272 16.7762 57.2027 16.9909 57.2027 17.2772C57.2027 17.5635 57.1272 17.783 56.9764 17.9357C56.835 18.0789 56.6181 18.1505 56.3258 18.1505H52.6626V20.6701H56.6511C56.934 20.6701 57.1461 20.7464 57.2876 20.8991C57.4384 21.0423 57.5139 21.2523 57.5139 21.529C57.5139 21.8153 57.4384 22.0348 57.2876 22.1875C57.1461 22.3307 56.934 22.4023 56.6511 22.4023H51.715ZM63.4043 22.5597C62.6971 22.5597 62.07 22.4691 61.5232 22.2877C60.9857 22.0969 60.5331 21.8201 60.1654 21.4574C59.7976 21.0948 59.5194 20.6414 59.3309 20.0974C59.1517 19.5438 59.0622 18.9045 59.0622 18.1791V13.3117C59.0622 12.9395 59.1564 12.658 59.345 12.4671C59.5336 12.2763 59.807 12.1808 60.1654 12.1808C60.5142 12.1808 60.7829 12.2763 60.9716 12.4671C61.1601 12.658 61.2544 12.9395 61.2544 13.3117V18.1934C61.2544 19.0142 61.4383 19.6346 61.806 20.0545C62.1738 20.4649 62.7065 20.6701 63.4043 20.6701C64.102 20.6701 64.63 20.4649 64.9884 20.0545C65.3561 19.6346 65.54 19.0142 65.54 18.1934V13.3117C65.54 12.9395 65.6342 12.658 65.8228 12.4671C66.0114 12.2763 66.2801 12.1808 66.629 12.1808C66.9778 12.1808 67.2419 12.2763 67.4211 12.4671C67.6096 12.658 67.7039 12.9395 67.7039 13.3117V18.1791C67.7039 19.143 67.5389 19.9543 67.2089 20.6128C66.8883 21.2617 66.4074 21.7485 65.7663 22.073C65.1345 22.3975 64.3471 22.5597 63.4043 22.5597ZM70.6623 22.5311C70.3322 22.5311 70.0776 22.4405 69.8985 22.2591C69.7288 22.0683 69.6439 21.801 69.6439 21.4574V13.2974C69.6439 12.9348 69.7288 12.658 69.8985 12.4671C70.0776 12.2763 70.3134 12.1808 70.6057 12.1808C70.8603 12.1808 71.0535 12.2333 71.1856 12.3383C71.327 12.4337 71.4873 12.5959 71.6665 12.825L76.6309 19.2242H76.249V13.2402C76.249 12.9062 76.3339 12.6485 76.5036 12.4671C76.6827 12.2763 76.9373 12.1808 77.2673 12.1808C77.5973 12.1808 77.8472 12.2763 78.017 12.4671C78.196 12.6485 78.2857 12.9062 78.2857 13.2402V21.5004C78.2857 21.8153 78.2055 22.0683 78.0452 22.2591C77.8849 22.4405 77.668 22.5311 77.3946 22.5311C77.1306 22.5311 76.9184 22.4786 76.7582 22.3736C76.6073 22.2687 76.4422 22.1016 76.2631 21.8726L71.3129 15.4734H71.6806V21.4574C71.6806 21.801 71.5957 22.0683 71.426 22.2591C71.2563 22.4405 71.0017 22.5311 70.6623 22.5311ZM84.9181 22.5597C83.9374 22.5597 83.0746 22.345 82.3298 21.9155C81.5943 21.4765 81.0191 20.8657 80.6043 20.0831C80.1988 19.3005 79.9961 18.3891 79.9961 17.3488C79.9961 16.5567 80.1092 15.8456 80.3355 15.2157C80.5712 14.5763 80.906 14.0323 81.3397 13.5837C81.7734 13.1256 82.292 12.7725 82.8955 12.5244C83.5084 12.2763 84.1826 12.1522 84.9181 12.1522C85.9175 12.1522 86.785 12.3669 87.5205 12.7964C88.256 13.2258 88.8261 13.8318 89.2318 14.6145C89.6464 15.3875 89.8541 16.2942 89.8541 17.3345C89.8541 18.1266 89.7366 18.8424 89.5005 19.4818C89.2645 20.1213 88.9304 20.6701 88.4964 21.1282C88.0627 21.5863 87.544 21.9394 86.9406 22.1875C86.3371 22.4356 85.6629 22.5597 84.9181 22.5597ZM84.9181 20.6701C85.4744 20.6701 85.9458 20.5412 86.3324 20.2835C86.7285 20.0163 87.0302 19.6346 87.2376 19.1383C87.4545 18.6325 87.5629 18.0359 87.5629 17.3488C87.5629 16.299 87.3319 15.4877 86.8699 14.9151C86.4078 14.3329 85.7572 14.0418 84.9181 14.0418C84.3712 14.0418 83.8997 14.1707 83.5037 14.4284C83.1077 14.6861 82.8059 15.063 82.5985 15.5593C82.3911 16.0556 82.2874 16.6521 82.2874 17.3488C82.2874 18.3891 82.5183 19.2051 82.9804 19.7968C83.4424 20.379 84.0883 20.6701 84.9181 20.6701ZM92.6528 22.5311C92.2948 22.5311 92.0216 22.4309 91.8325 22.2305C91.6442 22.0301 91.5496 21.7485 91.5496 21.3858V13.3261C91.5496 12.9634 91.6442 12.6818 91.8325 12.4814C92.0216 12.281 92.2948 12.1808 92.6528 12.1808C93.002 12.1808 93.2707 12.281 93.459 12.4814C93.6482 12.6818 93.7419 12.9634 93.7419 13.3261V21.3858C93.7419 21.7485 93.6482 22.0301 93.459 22.2305C93.2804 22.4309 93.0117 22.5311 92.6528 22.5311ZM96.0314 22.5311C95.7679 22.5311 95.5505 22.4691 95.3808 22.345C95.2208 22.2209 95.1173 22.0539 95.0696 21.8439C95.0325 21.634 95.0749 21.4002 95.1969 21.1425L98.8177 13.1113C98.9688 12.7868 99.1483 12.553 99.3551 12.4098C99.5629 12.2571 99.8033 12.1808 100.076 12.1808C100.35 12.1808 100.591 12.2571 100.798 12.4098C101.006 12.553 101.18 12.7868 101.321 13.1113L104.97 21.1425C105.093 21.4002 105.135 21.6388 105.097 21.8583C105.069 22.0683 104.975 22.2352 104.815 22.3593C104.655 22.4738 104.447 22.5311 104.192 22.5311C103.872 22.5311 103.622 22.4548 103.443 22.3021C103.273 22.1493 103.123 21.9108 102.99 21.5863L102.141 19.5964L103.018 20.212H97.1204L97.9973 19.5964L97.1629 21.5863C97.0214 21.9203 96.8711 22.1636 96.7103 22.3164C96.56 22.4595 96.3337 22.5311 96.0314 22.5311ZM100.048 14.6717L98.2378 19.0381L97.8559 18.4797H102.283L101.901 19.0381L100.076 14.6717H100.048ZM115.185 22.5597C114.11 22.5597 113.191 22.345 112.427 21.9155C111.664 21.4861 111.074 20.8848 110.659 20.1117C110.254 19.3291 110.051 18.4082 110.051 17.3488C110.051 16.5567 110.164 15.8456 110.391 15.2157C110.627 14.5763 110.966 14.0323 111.409 13.5837C111.852 13.1256 112.389 12.7725 113.021 12.5244C113.662 12.2763 114.384 12.1522 115.185 12.1522C115.657 12.1522 116.133 12.2142 116.614 12.3383C117.105 12.4528 117.529 12.6198 117.887 12.8393C118.123 12.9729 118.283 13.14 118.368 13.3404C118.453 13.5408 118.476 13.7412 118.438 13.9416C118.41 14.1421 118.33 14.3138 118.198 14.457C118.075 14.6002 117.92 14.6908 117.731 14.729C117.543 14.7672 117.331 14.7243 117.095 14.6002C116.812 14.4284 116.515 14.3043 116.204 14.228C115.893 14.1516 115.577 14.1134 115.256 14.1134C114.624 14.1134 114.092 14.2423 113.658 14.5C113.234 14.7481 112.913 15.1108 112.696 15.588C112.48 16.0651 112.371 16.6521 112.371 17.3488C112.371 18.0359 112.48 18.6229 112.696 19.1096C112.913 19.5964 113.234 19.9686 113.658 20.2263C114.092 20.4744 114.624 20.5985 115.256 20.5985C115.558 20.5985 115.864 20.5603 116.175 20.484C116.496 20.4076 116.802 20.2883 117.095 20.1261C117.34 20.002 117.557 19.959 117.745 19.9972C117.943 20.0258 118.103 20.1117 118.226 20.2549C118.358 20.3885 118.438 20.5508 118.467 20.7416C118.505 20.9325 118.485 21.1234 118.41 21.3143C118.335 21.5051 118.194 21.6674 117.986 21.801C117.637 22.0396 117.208 22.2257 116.699 22.3593C116.19 22.4929 115.685 22.5597 115.185 22.5597ZM120.12 22.5311C119.856 22.5311 119.639 22.4691 119.469 22.345C119.309 22.2209 119.206 22.0539 119.158 21.8439C119.121 21.634 119.163 21.4002 119.285 21.1425L122.906 13.1113C123.057 12.7868 123.237 12.553 123.444 12.4098C123.651 12.2571 123.892 12.1808 124.165 12.1808C124.439 12.1808 124.679 12.2571 124.886 12.4098C125.094 12.553 125.268 12.7868 125.409 13.1113L129.059 21.1425C129.181 21.4002 129.224 21.6388 129.186 21.8583C129.158 22.0683 129.064 22.2352 128.903 22.3593C128.743 22.4738 128.535 22.5311 128.281 22.5311C127.961 22.5311 127.71 22.4548 127.531 22.3021C127.361 22.1493 127.211 21.9108 127.078 21.5863L126.23 19.5964L127.107 20.212H121.209L122.086 19.5964L121.251 21.5863C121.11 21.9203 120.96 22.1636 120.799 22.3164C120.648 22.4595 120.422 22.5311 120.12 22.5311ZM124.137 14.6717L122.326 19.0381L121.944 18.4797H126.371L125.989 19.0381L124.165 14.6717H124.137ZM131.589 22.5311C131.231 22.5311 130.958 22.4309 130.769 22.2305C130.581 22.0301 130.486 21.7485 130.486 21.3858V13.4406C130.486 13.0684 130.581 12.7868 130.769 12.596C130.967 12.4051 131.246 12.3096 131.604 12.3096H135.04C136.153 12.3096 137.012 12.5816 137.615 13.1256C138.218 13.6696 138.52 14.4284 138.52 15.4018C138.52 16.0317 138.384 16.5757 138.11 17.0338C137.836 17.492 137.44 17.8451 136.922 18.0932C136.412 18.3413 135.786 18.4654 135.04 18.4654L135.154 18.2221H135.733C136.129 18.2221 136.474 18.3223 136.766 18.5227C137.068 18.7135 137.327 19.0094 137.544 19.4103L138.421 21.0566C138.553 21.2952 138.614 21.529 138.605 21.7581C138.596 21.9871 138.511 22.1732 138.35 22.3164C138.19 22.4595 137.954 22.5311 137.643 22.5311C137.332 22.5311 137.077 22.4643 136.879 22.3307C136.691 22.1971 136.521 21.9919 136.37 21.7151L135.012 19.1812C134.871 18.914 134.697 18.7327 134.489 18.6372C134.291 18.5417 134.046 18.4941 133.753 18.4941H132.678V21.3858C132.678 21.7485 132.585 22.0301 132.396 22.2305C132.217 22.4309 131.948 22.5311 131.589 22.5311ZM132.678 16.8907H134.644C135.23 16.8907 135.668 16.7714 135.96 16.5328C136.262 16.2942 136.412 15.9363 136.412 15.4591C136.412 14.9914 136.262 14.6384 135.96 14.3997C135.668 14.1611 135.23 14.0418 134.644 14.0418H132.678V16.8907ZM141.48 22.4023C141.112 22.4023 140.83 22.3021 140.632 22.1016C140.434 21.9012 140.335 21.6149 140.335 21.2427V13.4692C140.335 13.097 140.434 12.8107 140.632 12.6103C140.83 12.4098 141.112 12.3096 141.48 12.3096H146.416C146.699 12.3096 146.911 12.386 147.053 12.5387C147.204 12.6818 147.279 12.8918 147.279 13.1686C147.279 13.4549 147.204 13.6744 147.053 13.8271C146.911 13.9703 146.699 14.0418 146.416 14.0418H142.428V16.4039H146.091C146.384 16.4039 146.6 16.4803 146.742 16.633C146.893 16.7762 146.968 16.9909 146.968 17.2772C146.968 17.5635 146.893 17.783 146.742 17.9357C146.6 18.0789 146.384 18.1505 146.091 18.1505H142.428V20.6701H146.416C146.699 20.6701 146.911 20.7464 147.053 20.8991C147.204 21.0423 147.279 21.2523 147.279 21.529C147.279 21.8153 147.204 22.0348 147.053 22.1875C146.911 22.3307 146.699 22.4023 146.416 22.4023H141.48Z" fill="#9F9FAA"/>
</g>
<defs>
<clipPath id="clip0_1_17">
<rect width="160" height="34" fill="white" transform="translate(0.415894 0.928589)"/>
</clipPath>
</defs>
</svg>
