<svg width="127" height="33" viewBox="0 0 127 33" fill="none" xmlns="http://www.w3.org/2000/svg">
<path fill-rule="evenodd" clip-rule="evenodd" d="M17.7663 22.0467C20.7421 22.0467 23.1516 19.6274 23.1516 16.6394C23.1516 13.6515 20.7421 11.2322 17.7663 11.2322C14.7905 11.2322 12.3811 13.6515 12.3811 16.6394C12.3811 19.6274 14.7905 22.0467 17.7663 22.0467ZM17.7663 23.772C21.6925 23.772 24.8699 20.5816 24.8699 16.6394C24.8699 12.6973 21.6925 9.5069 17.7663 9.5069C13.8402 9.5069 10.6628 12.6973 10.6628 16.6394C10.6628 20.5816 13.8402 23.772 17.7663 23.772Z" fill="#9F9FAA"/>
<path fill-rule="evenodd" clip-rule="evenodd" d="M14.6465 25.3334C19.3982 25.3334 23.2572 21.4683 23.2572 16.6876C23.2572 11.9069 19.3982 8.04183 14.6465 8.04183C9.8948 8.04183 6.03584 11.9165 6.03584 16.6876C6.03584 21.4587 9.8948 25.3334 14.6465 25.3334ZM14.6465 27.0491C20.3485 27.0491 24.9658 22.4129 24.9658 16.6876C24.9658 10.9623 20.3485 6.32617 14.6465 6.32617C8.94446 6.32617 4.32715 10.9623 4.32715 16.6876C4.32715 22.4129 8.94446 27.0491 14.6465 27.0491Z" fill="#9F9FAA"/>
<path fill-rule="evenodd" clip-rule="evenodd" d="M14.6945 18.972C15.9808 18.972 17.0176 17.931 17.0176 16.6394C17.0176 15.3479 15.9808 14.3069 14.6945 14.3069C13.4082 14.3069 12.3715 15.3479 12.3715 16.6394C12.3715 17.931 13.4082 18.972 14.6945 18.972ZM14.6945 20.6876C16.9216 20.6876 18.7263 18.8756 18.7263 16.6394C18.7263 14.4033 16.9216 12.5912 14.6945 12.5912C12.4675 12.5912 10.6628 14.4033 10.6628 16.6394C10.6628 18.8756 12.4675 20.6876 14.6945 20.6876Z" fill="#9F9FAA"/>
<path fill-rule="evenodd" clip-rule="evenodd" d="M10.634 11.1455C10.9987 11.4443 11.0563 11.984 10.7492 12.3503C8.89647 14.5672 8.76208 18.4033 10.7876 21.1696C11.0659 21.5551 10.9795 22.0852 10.5956 22.3648C10.2116 22.6443 9.66442 22.5575 9.38604 22.172C6.9478 18.8274 7.02459 14.1334 9.41484 11.2611C9.72202 10.8949 10.2692 10.8467 10.634 11.1455Z" fill="#9F9FAA"/>
<path d="M111.197 26.1623C110.679 26.1623 110.16 26.0852 109.652 25.9213C109.143 25.7575 108.73 25.5358 108.404 25.2467L109.46 23.1744C109.681 23.3768 109.94 23.531 110.228 23.637C110.525 23.7527 110.813 23.8009 111.101 23.8009C111.514 23.8009 111.831 23.7045 112.071 23.5021C112.32 23.3189 112.541 23.0009 112.743 22.5479L113.261 21.3141L113.482 20.996L117.072 12.3214H119.865L115.344 23.0009C115.018 23.8105 114.653 24.4467 114.231 24.9093C113.818 25.372 113.357 25.69 112.858 25.8828C112.359 26.0756 111.802 26.1623 111.197 26.1623ZM112.906 22.7792L108.442 12.331H111.437L114.903 20.7454L112.906 22.7792Z" fill="#9F9FAA"/>
<path d="M102.894 22.3937V12.1093C102.894 10.972 103.23 10.0756 103.902 9.40089C104.574 8.71656 105.524 8.36957 106.772 8.36957C107.194 8.36957 107.597 8.41776 107.981 8.50451C108.375 8.59125 108.711 8.72619 108.989 8.91897L108.221 11.0298C108.058 10.9141 107.876 10.8274 107.684 10.7696C107.482 10.7117 107.271 10.6732 107.05 10.6732C106.628 10.6732 106.302 10.7985 106.062 11.0491C105.841 11.2901 105.726 11.6467 105.726 12.1382V13.0732L105.802 14.3262V22.4033H102.894V22.3937ZM101.358 14.7985V12.5527H108.308V14.7985H101.358Z" fill="#9F9FAA"/>
<path d="M96.9422 22.3936V12.331H99.8508V22.3936H96.9422ZM98.3917 10.9334C97.8541 10.9334 97.4221 10.7792 97.0861 10.4707C96.7502 10.1623 96.587 9.77675 96.587 9.3141C96.587 8.85145 96.7598 8.46591 97.0861 8.15748C97.4221 7.84904 97.8541 7.69482 98.3917 7.69482C98.9292 7.69482 99.3612 7.84904 99.6972 8.14784C100.033 8.43699 100.196 8.8129 100.196 9.26591C100.196 9.74784 100.024 10.1527 99.6972 10.4804C99.3804 10.7695 98.9388 10.9334 98.3917 10.9334Z" fill="#9F9FAA"/>
<path d="M92.9488 22.5382C91.7681 22.5382 90.8465 22.2394 90.1938 21.6418C89.5314 21.0346 89.2051 20.1286 89.2051 18.9334V10.1045H92.1137V18.8949C92.1137 19.3189 92.2289 19.6467 92.4496 19.8876C92.6704 20.1093 92.9776 20.225 93.3616 20.225C93.8224 20.225 94.2159 20.0997 94.5327 19.8491L95.3103 21.9021C95.0127 22.1141 94.6479 22.278 94.2351 22.384C93.8224 22.49 93.4 22.5382 92.9488 22.5382ZM87.6595 14.7985V12.5527H94.6095V14.7985H87.6595Z" fill="#9F9FAA"/>
<path d="M82.0727 22.5382C80.9304 22.5382 79.9224 22.3165 79.0585 21.8635C78.2041 21.4105 77.5418 20.8033 77.0618 20.0322C76.5914 19.2515 76.3514 18.3551 76.3514 17.3623C76.3514 16.3503 76.5818 15.4635 77.0426 14.6924C77.513 13.9117 78.1561 13.2948 78.9625 12.8611C79.7688 12.4081 80.6808 12.1864 81.6983 12.1864C82.6774 12.1864 83.5606 12.3984 84.3381 12.8225C85.1349 13.237 85.7588 13.8346 86.2196 14.6153C86.6804 15.3864 86.9108 16.3213 86.9108 17.4009C86.9108 17.5165 86.9012 17.6418 86.8916 17.796C86.882 17.931 86.8628 18.0659 86.8532 18.1912H78.7225V16.4852H85.3365L84.2229 16.9864C84.2229 16.4659 84.1174 16.0033 83.9062 15.6177C83.695 15.2322 83.407 14.9334 83.0326 14.7213C82.6582 14.4997 82.2263 14.384 81.7271 14.384C81.2279 14.384 80.7864 14.4997 80.4024 14.7213C80.028 14.9334 79.74 15.2418 79.5288 15.637C79.3177 16.0225 79.2121 16.4852 79.2121 17.025V17.478C79.2121 18.0274 79.3273 18.5093 79.5672 18.9334C79.8168 19.3478 80.1528 19.6659 80.5944 19.8876C81.0455 20.0997 81.5639 20.2057 82.1591 20.2057C82.6966 20.2057 83.1574 20.1286 83.551 19.9647C83.9638 19.8009 84.3285 19.5599 84.6645 19.2322L86.21 20.9189C85.7493 21.4394 85.1733 21.8442 84.4821 22.1334C83.7814 22.4033 82.9846 22.5382 82.0727 22.5382Z" fill="#9F9FAA"/>
<path d="M70.2463 12.1865C71.043 12.1865 71.7438 12.3503 72.3677 12.6684C73.0013 12.9768 73.5004 13.4684 73.8556 14.1238C74.2204 14.7696 74.3932 15.6081 74.3932 16.6298V22.384H71.4846V17.0732C71.4846 16.2636 71.3022 15.666 70.947 15.2804C70.6014 14.8949 70.1023 14.7021 69.4591 14.7021C68.9983 14.7021 68.5856 14.7985 68.2112 15.0009C67.8464 15.184 67.568 15.4828 67.3568 15.878C67.1552 16.2732 67.0593 16.784 67.0593 17.4105V22.384H64.1506V8.51416H67.0593V15.1166L66.4065 14.278C66.7713 13.6033 67.28 13.0925 67.952 12.7262C68.624 12.3599 69.3919 12.1865 70.2463 12.1865Z" fill="#9F9FAA"/>
<path d="M58.055 22.5382C56.9799 22.5382 56.0103 22.3165 55.1656 21.8828C54.3208 21.4298 53.6585 20.8129 53.1689 20.0322C52.6985 19.2515 52.4586 18.3551 52.4586 17.3623C52.4586 16.3503 52.6985 15.4635 53.1689 14.6924C53.6489 13.9117 54.3208 13.2948 55.1656 12.8611C56.0103 12.4081 56.9703 12.1864 58.055 12.1864C59.1109 12.1864 60.0325 12.4081 60.81 12.8611C61.5876 13.2948 62.1731 13.931 62.5379 14.7503L60.2917 15.9551C60.0325 15.4828 59.7061 15.1358 59.3029 14.9045C58.9189 14.6828 58.4966 14.5671 58.0358 14.5671C57.5366 14.5671 57.0951 14.6828 56.6919 14.9045C56.2983 15.1262 55.9815 15.4442 55.7415 15.8587C55.5208 16.2731 55.4056 16.7647 55.4056 17.3527C55.4056 17.9406 55.5208 18.4418 55.7415 18.8466C55.9815 19.2611 56.2983 19.5792 56.6919 19.8009C57.0855 20.0225 57.5366 20.1382 58.0358 20.1382C58.4966 20.1382 58.9189 20.0322 59.3029 19.8201C59.6965 19.5984 60.0325 19.2418 60.2917 18.7503L62.5475 19.984C62.1731 20.7936 61.5972 21.4201 60.8196 21.8731C60.0229 22.3262 59.1109 22.5382 58.055 22.5382Z" fill="#9F9FAA"/>
<path d="M45.3358 22.3936V12.331H48.11V15.1744L47.7165 14.3551C48.014 13.6418 48.494 13.1117 49.1468 12.7454C49.8091 12.3695 50.6059 12.1864 51.5466 12.1864V14.8756C51.4218 14.8659 51.3066 14.8563 51.2106 14.8563C51.1147 14.8466 51.0091 14.837 50.8939 14.837C50.0971 14.837 49.454 15.0683 48.9548 15.531C48.4748 15.984 48.2252 16.6876 48.2252 17.6418V22.3936H45.3358Z" fill="#9F9FAA"/>
<path d="M29.5736 22.3937L35.3812 9.3045H38.3571L44.1839 22.3937H41.0161L36.2452 10.837H37.4355L32.6454 22.3937H29.5736ZM32.4822 19.5888L33.279 17.2852H39.9794L40.7953 19.5888H32.4822Z" fill="#9F9FAA"/>
</svg>
