<svg width="72" height="23" viewBox="0 0 72 23" fill="none" xmlns="http://www.w3.org/2000/svg">
<g clip-path="url(#clip0_431_2)">
<path d="M0.00765651 18.0107V13.444C0.00765651 11.8288 0.48811 10.6203 1.43677 9.79527C2.38542 8.97021 3.7688 8.56335 5.59684 8.56335C7.30756 8.56335 8.62013 8.91197 9.52224 9.62083C10.4244 10.3297 10.8816 11.329 10.8816 12.6307V14.1758C10.8844 14.1947 10.8827 14.2141 10.8766 14.2323C10.8705 14.2504 10.8603 14.267 10.8466 14.2805C10.833 14.294 10.8163 14.3042 10.798 14.3103C10.7797 14.3163 10.7602 14.3181 10.7411 14.3154H7.99896C7.97984 14.3181 7.96033 14.3164 7.942 14.3104C7.92367 14.3044 7.90702 14.2942 7.89336 14.2806C7.87969 14.2671 7.86935 14.2506 7.86325 14.2324C7.85715 14.2142 7.85544 14.1949 7.8582 14.1759V12.7118C7.86378 12.4727 7.81633 12.2353 7.71917 12.0165C7.62201 11.7976 7.47754 11.6026 7.29596 11.4452C6.92085 11.1078 6.34678 10.9459 5.585 10.9459C4.7063 10.9459 4.0617 11.1899 3.63991 11.6663C3.21812 12.1428 3.0071 12.7702 3.0071 13.5255V17.8134C3.0071 18.5692 3.21785 19.1961 3.63991 19.6843C4.06198 20.1725 4.70616 20.4164 5.585 20.4164C6.34719 20.4164 6.92085 20.242 7.29596 19.9051C7.47774 19.7453 7.62222 19.5483 7.7193 19.3275C7.81639 19.1067 7.86373 18.8676 7.85806 18.6268V17.0813C7.85529 17.0623 7.85703 17.043 7.86311 17.0248C7.86921 17.0065 7.87949 16.9901 7.89315 16.9764C7.90682 16.9629 7.92346 16.9527 7.94181 16.9466C7.96014 16.9405 7.97969 16.9389 7.99882 16.9416H10.7409C10.7601 16.9389 10.7795 16.9407 10.7978 16.9466C10.8161 16.9527 10.8328 16.9629 10.8465 16.9764C10.8601 16.9899 10.8704 17.0065 10.8765 17.0248C10.8825 17.0428 10.8843 17.0623 10.8815 17.0812V18.8243C10.8815 20.0795 10.4245 21.0553 9.49885 21.7531C8.57333 22.462 7.22585 22.8106 5.45648 22.8106C3.6871 22.8106 2.33964 22.404 1.402 21.5789C0.464377 20.7538 0.00732422 19.5678 0.00732422 18.0114L0.00765651 18.0107Z" fill="#EBEDEF"/>
<path d="M23.7134 13.0487V16.1746C23.7134 16.2791 23.6665 16.3366 23.5727 16.3366H15.8505V17.8347C15.8505 18.5905 16.0614 19.2176 16.4833 19.7057C16.9053 20.1937 17.5495 20.4377 18.4286 20.4377C19.1901 20.4377 19.7527 20.2866 20.1163 19.9845C20.2872 19.8449 20.4246 19.6692 20.5178 19.4701C20.6112 19.2711 20.6581 19.0536 20.6554 18.8342V17.4748C20.6527 17.4559 20.6544 17.4364 20.6606 17.4183C20.6666 17.4001 20.6769 17.3835 20.6905 17.37C20.7043 17.3564 20.7209 17.3463 20.7392 17.3402C20.7575 17.3341 20.7771 17.3325 20.7961 17.3352H23.5381C23.5573 17.3325 23.5768 17.3341 23.5951 17.3402C23.6134 17.3463 23.6301 17.3564 23.6437 17.37C23.6573 17.3835 23.6677 17.4001 23.6738 17.4183C23.6798 17.4364 23.6817 17.4559 23.6789 17.4748V19.0202C23.6789 20.2519 23.2217 21.1932 22.3196 21.8437C21.4175 22.4943 20.0814 22.8198 18.3119 22.8198C16.5424 22.8198 15.1951 22.413 14.2575 21.5879C13.3198 20.7629 12.8628 19.5777 12.8628 18.0204V13.4537C12.8628 11.8387 13.3432 10.6302 14.2919 9.80509C15.2406 8.98003 16.6239 8.57324 18.452 8.57324C20.1627 8.57324 21.4752 8.95668 22.3774 9.72357C23.2679 10.4906 23.7133 11.5945 23.7133 13.0471L23.7134 13.0487ZM20.7018 14.0713V13.3975C20.7018 12.584 20.5261 11.9681 20.1628 11.5619C19.8113 11.1552 19.2253 10.946 18.4286 10.946C17.5497 10.946 16.9053 11.19 16.4835 11.6665C16.0617 12.1429 15.8507 12.7704 15.8507 13.5257V14.0719H20.7019L20.7018 14.0713Z" fill="#EBEDEF"/>
<path d="M37.1894 12.6419V22.4148C37.1921 22.4337 37.1904 22.453 37.1843 22.4712C37.1783 22.4894 37.1679 22.5059 37.1542 22.5195C37.1406 22.533 37.124 22.5431 37.1056 22.5492C37.0872 22.5552 37.0677 22.5569 37.0486 22.5542H34.3181C34.2991 22.5569 34.2796 22.5552 34.2612 22.5491C34.243 22.543 34.2264 22.5329 34.2127 22.5194C34.199 22.5058 34.1888 22.4893 34.1827 22.4712C34.1766 22.453 34.1748 22.4337 34.1775 22.4148V13.1533C34.1775 12.4096 34.0135 11.8518 33.6854 11.4797C33.3574 11.1077 32.7714 10.9217 31.9277 10.9219C31.0723 10.9219 30.4395 11.1543 30.0411 11.6191C29.638 12.0924 29.4251 12.6966 29.4432 13.3158V22.4145C29.4461 22.4334 29.4443 22.4529 29.4382 22.4709C29.4321 22.4892 29.4219 22.5056 29.4083 22.5193C29.3945 22.5328 29.3779 22.5429 29.3595 22.5489C29.3413 22.555 29.3218 22.5568 29.3026 22.5541H26.5611C26.542 22.5568 26.5224 22.555 26.5042 22.5491C26.4858 22.543 26.4692 22.5328 26.4554 22.5193C26.4418 22.5058 26.4316 22.4893 26.4255 22.4711C26.4194 22.453 26.4175 22.4336 26.4202 22.4147V8.97006C26.4175 8.9511 26.4192 8.93177 26.4254 8.91359C26.4313 8.89541 26.4417 8.87889 26.4553 8.86536C26.469 8.8518 26.4857 8.8416 26.504 8.83557C26.5223 8.82952 26.5419 8.82775 26.5609 8.83049H29.3029C29.322 8.82781 29.3414 8.82956 29.3598 8.83562C29.378 8.84168 29.3946 8.8519 29.4084 8.86541C29.422 8.87893 29.4322 8.89545 29.4383 8.91359C29.4445 8.93173 29.4462 8.95101 29.4435 8.96994V10.0041H29.6078C30.2638 9.02799 31.5059 8.53992 33.334 8.53992C34.7049 8.53992 35.6893 8.88856 36.2875 9.5742C36.8969 10.2597 37.1898 11.2824 37.1898 12.6419H37.1894Z" fill="#EBEDEF"/>
<path d="M40.1775 3.89192C40.1748 3.87297 40.1766 3.85366 40.1827 3.8355C40.1888 3.81735 40.1991 3.80086 40.2128 3.78733C40.2265 3.77381 40.2431 3.76366 40.2614 3.7576C40.2797 3.75155 40.2992 3.74983 40.3182 3.75253H43.0602C43.0794 3.74981 43.0989 3.75155 43.1171 3.7576C43.1355 3.76366 43.1521 3.77385 43.1659 3.78739C43.1795 3.80094 43.1897 3.81747 43.1958 3.83564C43.2019 3.85381 43.2036 3.87309 43.2008 3.89204V6.577C43.2036 6.59595 43.2019 6.61525 43.1958 6.63342C43.1897 6.65159 43.1795 6.66811 43.1659 6.68166C43.1521 6.69519 43.1355 6.70538 43.1171 6.71144C43.0989 6.7175 43.0794 6.7193 43.0602 6.71659H40.3181C40.2991 6.71927 40.2796 6.7175 40.2614 6.71144C40.243 6.70538 40.2264 6.69518 40.2128 6.68166C40.1991 6.66813 40.1888 6.65161 40.1828 6.63349C40.1767 6.61535 40.1749 6.59606 40.1776 6.57714L40.1775 3.89192ZM40.1775 8.97001C40.1748 8.95106 40.1766 8.93176 40.1827 8.91359C40.1887 8.89544 40.199 8.8789 40.2126 8.86535C40.2262 8.8518 40.2428 8.84158 40.2611 8.8355C40.2795 8.82941 40.2989 8.82763 40.318 8.83029H43.0602C43.0794 8.82757 43.0989 8.82937 43.1171 8.83543C43.1355 8.84149 43.1521 8.85168 43.1659 8.86522C43.1795 8.87877 43.1897 8.89529 43.1958 8.91346C43.2019 8.93162 43.2036 8.95092 43.2008 8.96987V22.4146C43.2036 22.4335 43.2018 22.4528 43.1957 22.471C43.1897 22.4891 43.1793 22.5057 43.1657 22.5192C43.1521 22.5327 43.1355 22.543 43.1171 22.549C43.0989 22.5551 43.0794 22.5569 43.0602 22.5542H40.3181C40.2991 22.5569 40.2796 22.5551 40.2612 22.549C40.243 22.543 40.2264 22.5327 40.2126 22.5192C40.199 22.5057 40.1887 22.4891 40.1827 22.471C40.1766 22.4528 40.1748 22.4335 40.1775 22.4146V8.97001Z" fill="#EBEDEF"/>
<path d="M50.1971 18.8822C50.1971 19.3585 50.2788 19.6836 50.4315 19.8698C50.5842 20.0559 50.8651 20.1604 51.2634 20.1604H53.3956C53.4148 20.1575 53.4342 20.1593 53.4526 20.1652C53.4709 20.1713 53.4876 20.1815 53.5012 20.195C53.5148 20.2085 53.5252 20.225 53.5313 20.2432C53.5374 20.2614 53.539 20.2807 53.5363 20.2996V22.4145C53.5013 22.5075 53.4544 22.554 53.3956 22.5542H50.1971C48.1935 22.5542 47.1855 21.5897 47.1855 19.6723V11.2009H44.9125C44.8935 11.2036 44.874 11.2018 44.8556 11.1957C44.8374 11.1897 44.8208 11.1795 44.8072 11.1659C44.7934 11.1524 44.7832 11.1359 44.7771 11.1178C44.7711 11.0996 44.7693 11.0803 44.7721 11.0614V8.96933C44.7667 8.96192 44.7631 8.95345 44.7613 8.94448C44.7597 8.93554 44.7599 8.9263 44.7621 8.91746C44.7644 8.90864 44.7685 8.90043 44.7744 8.89335C44.7801 8.88626 44.7874 8.8805 44.7956 8.87647C44.8257 8.85153 44.8622 8.8354 44.9009 8.83002H47.1739V5.27429C47.1712 5.25534 47.173 5.23603 47.1791 5.21787C47.1852 5.19972 47.1954 5.18317 47.209 5.16964C47.2226 5.1561 47.2394 5.14591 47.2576 5.13985C47.2759 5.13377 47.2955 5.13202 47.3145 5.13471H50.0566C50.0757 5.13202 50.0952 5.13377 50.1135 5.13985C50.1318 5.14591 50.1485 5.1561 50.1621 5.16964C50.1757 5.18317 50.1861 5.19972 50.1922 5.21787C50.1982 5.23603 50.2 5.25534 50.1972 5.27429V8.831H53.3957C53.4544 8.831 53.5013 8.87749 53.5363 8.97052V11.0625C53.539 11.0815 53.5374 11.1008 53.5313 11.119C53.5252 11.1372 53.5148 11.1537 53.5012 11.1673C53.4876 11.1808 53.4709 11.191 53.4526 11.1971C53.4342 11.2031 53.4148 11.2049 53.3956 11.2021H50.1971V18.8833V18.8822Z" fill="#EBEDEF"/>
<path d="M66.7658 22.4147C66.7686 22.4336 66.7668 22.4529 66.7608 22.4712C66.7547 22.4892 66.7445 22.5057 66.7307 22.5192C66.7171 22.5327 66.7005 22.543 66.6823 22.549C66.664 22.5551 66.6444 22.5569 66.6254 22.5542H64.7855C64.0708 22.5542 63.5434 22.438 63.2151 22.2055C62.8748 21.9731 62.6761 21.5665 62.5942 21.0088H62.4419C62.2425 21.4851 61.8208 21.8919 61.1996 22.2405C60.5785 22.5891 59.6648 22.775 58.4695 22.775C57.2625 22.775 56.3486 22.5079 55.7157 21.9849C55.0828 21.4619 54.7666 20.6832 54.7666 19.6491V17.9644C54.7666 16.9301 55.0011 16.1864 55.4697 15.7216C55.9383 15.2568 56.7705 14.943 57.9775 14.7573L60.9891 14.2924C61.3999 14.2544 61.8027 14.1566 62.1846 14.0021C62.3115 13.9521 62.4186 13.863 62.4905 13.7479C62.5622 13.6328 62.5946 13.4979 62.583 13.3631V12.4212C62.583 11.8983 62.4187 11.5148 62.0794 11.2825C61.7401 11.0503 61.1304 10.9339 60.2284 10.9339C59.3264 10.9339 58.7167 11.0618 58.3774 11.3058C58.038 11.5498 57.8738 11.9216 57.8738 12.4097V13.4438C57.8765 13.4628 57.8749 13.4821 57.8687 13.5003C57.8626 13.5185 57.8523 13.535 57.8385 13.5486C57.8249 13.5621 57.8083 13.5723 57.7899 13.5783C57.7715 13.5844 57.7521 13.5862 57.7329 13.5834H54.9909C54.9719 13.5861 54.9524 13.5843 54.934 13.5783C54.9156 13.5722 54.899 13.562 54.8854 13.5485C54.8717 13.535 54.8615 13.5185 54.8553 13.5003C54.8492 13.4822 54.8475 13.4628 54.8502 13.4438V12.3051C54.8502 11.0386 55.2721 10.0973 56.1275 9.48142C56.983 8.86556 58.3424 8.56366 60.2174 8.56366C62.139 8.56366 63.51 8.90107 64.3414 9.56242C65.1727 10.2238 65.5836 11.2937 65.5836 12.7342V19.5784C65.5662 19.7444 65.6031 19.9115 65.689 20.0551C65.7592 20.1361 65.9115 20.1828 66.1577 20.1828H66.6265C66.6457 20.1801 66.6651 20.1817 66.6835 20.1877C66.7019 20.1938 66.7185 20.2041 66.7322 20.2176C66.7458 20.2312 66.7562 20.2477 66.7622 20.2659C66.7683 20.2841 66.7701 20.3034 66.7672 20.3224V22.4145L66.7658 22.4147ZM62.5826 18.1269V16.1159C62.4536 16.2438 62.1137 16.3483 61.5754 16.4413L59.3025 16.7084C58.7399 16.7781 58.3534 16.9408 58.1423 17.1848C57.9312 17.4288 57.826 17.7775 57.826 18.2307V19.0208C57.826 19.474 57.9666 19.7994 58.2596 19.9852C58.5527 20.1709 59.0447 20.2756 59.7361 20.2756C60.7433 20.2756 61.4698 20.0665 61.9157 19.6483C62.1292 19.4557 62.2991 19.2204 62.4143 18.958C62.5293 18.6957 62.587 18.4121 62.5836 18.126L62.5826 18.1269Z" fill="#EBEDEF"/>
<path d="M68.8518 3.54331C68.8491 3.52438 68.8509 3.50506 68.857 3.4869C68.863 3.46874 68.8733 3.45221 68.8869 3.43866C68.9006 3.42511 68.9172 3.41489 68.9354 3.4088C68.9538 3.40272 68.9732 3.40093 68.9923 3.40359H71.7344C71.7536 3.40087 71.7731 3.40262 71.7914 3.40867C71.8097 3.41471 71.8264 3.42492 71.8402 3.43846C71.8538 3.45201 71.8641 3.46853 71.8702 3.48671C71.8764 3.50487 71.878 3.52422 71.8753 3.54318V22.4146C71.878 22.4335 71.8764 22.4528 71.8702 22.471C71.8641 22.4893 71.8538 22.5057 71.8402 22.5194C71.8264 22.5329 71.8097 22.543 71.7914 22.549C71.7731 22.555 71.7536 22.5567 71.7344 22.554H68.9924C68.9734 22.5567 68.9539 22.555 68.9357 22.5489C68.9173 22.5428 68.9007 22.5326 68.8871 22.5191C68.8735 22.5056 68.8633 22.4891 68.8571 22.471C68.851 22.4528 68.8492 22.4335 68.852 22.4146L68.8518 3.54331Z" fill="#EBEDEF"/>
<path d="M5.59732 4.01963L3.73417 6.99469L3.66379 7.02935H1.07426C1.05442 7.03091 1.03457 7.02605 1.0177 7.01558C1.00084 7.00511 0.987863 6.98954 0.98062 6.97116C0.973858 6.95213 0.971334 6.93186 0.973309 6.91178C0.975284 6.89171 0.981708 6.87234 0.99205 6.85497L4.77716 0.963442C4.7923 0.945821 4.81282 0.933587 4.83565 0.928711H6.46447C6.48735 0.933626 6.50794 0.945847 6.52321 0.963442L10.2966 6.85485C10.3112 6.87083 10.3195 6.89142 10.32 6.91296C10.32 6.99394 10.2849 7.04082 10.2144 7.04082H7.60122L7.53111 7.00602L5.59732 4.01963Z" fill="#EBEDEF"/>
</g>
<defs>
<clipPath id="clip0_431_2">
<rect width="72" height="22" fill="white" transform="translate(0.00732422 0.928589)"/>
</clipPath>
</defs>
</svg>
