<svg width="702" height="230" viewBox="0 0 702 230" fill="none" xmlns="http://www.w3.org/2000/svg">
<g clip-path="url(#clip0_7_298)">
<mask id="mask0_7_298" style="mask-type:luminance" maskUnits="userSpaceOnUse" x="0" y="0" width="702" height="230">
<path d="M702 0H0V230H702V0Z" fill="white"/>
</mask>
<g mask="url(#mask0_7_298)">
<path d="M275.674 96.0186C254.955 96.0186 238.84 78.5843 238.84 56.3262C238.84 34.068 254.955 16.6338 275.674 16.6338C292.886 16.6338 305.602 26.3928 310.316 41.9622H294.64C291.241 35.0546 284.444 29.9012 275.674 29.9012C263.177 29.9012 253.311 41.9621 253.311 56.3262C253.311 70.7999 263.177 82.8609 275.674 82.8609C284.334 82.8609 291.241 77.4882 294.64 70.5801H310.207C305.383 86.0408 292.557 96.0186 275.674 96.0186Z" fill="#9F9FAA"/>
<path d="M374.663 94.7033H360.851V88.6726C358.617 91.006 355.926 92.8531 352.945 94.0983C349.965 95.3435 346.759 95.96 343.53 95.9092C328.839 95.9092 316.671 83.1901 316.671 66.5236C316.671 49.7478 328.839 37.0288 343.53 37.0288C346.759 36.9778 349.965 37.5941 352.945 38.8394C355.926 40.0846 358.617 41.9318 360.851 44.2654V38.2321H374.663V94.7033ZM345.723 50.4053C337.72 50.4053 331.252 57.4226 331.252 66.6332C331.252 75.6245 337.72 82.5326 345.723 82.5326C353.726 82.5326 360.193 75.4052 360.193 66.6332C360.192 57.6419 353.725 50.4053 345.723 50.4053Z" fill="#9F9FAA"/>
<path d="M438.462 64.55H423.991V61.6991C423.991 58.4095 423.005 50.5149 413.467 50.5149C406.999 50.5149 402.505 55.3393 402.505 61.6991V94.7022H388.035V38.232H401.847V43.7155C405.465 39.4399 410.398 36.8079 416.427 36.8079C429.691 36.8079 438.462 46.7862 438.462 61.6981V64.55Z" fill="#9F9FAA"/>
<path d="M478.257 95.909C475.045 95.949 471.859 95.3271 468.898 94.0821C465.937 92.8371 463.264 90.9956 461.045 88.6724V94.7032H447.121V13.125H461.701V43.6068C466.14 39.3232 472.087 36.96 478.255 37.0287C493.054 37.0287 505.113 49.7477 505.113 66.5234C505.115 83.19 493.056 95.909 478.257 95.909ZM476.173 50.4052C468.171 50.4052 461.703 57.6418 461.703 66.6331C461.703 75.4051 468.171 82.5325 476.173 82.5325C484.175 82.5325 490.644 75.6244 490.644 66.6331C490.644 57.4225 484.176 50.4052 476.172 50.4052H476.173Z" fill="#9F9FAA"/>
<path d="M568.586 66.5234C568.586 83.4088 555.759 96.0187 540.083 96.0187C524.407 96.0187 511.69 83.4088 511.69 66.5234C511.69 49.638 524.407 36.8088 540.083 36.8088C555.76 36.8088 568.586 49.6375 568.586 66.5234ZM554.005 66.6331C554.005 56.8746 547.754 50.0767 540.083 50.0767C532.413 50.0767 526.16 56.8746 526.16 66.6331C526.16 76.1722 532.411 82.7513 540.083 82.7513C547.756 82.7513 554.005 76.1722 554.005 66.6331Z" fill="#9F9FAA"/>
<path d="M628.878 94.7032H614.407V61.7001C614.407 58.4106 613.421 50.516 603.883 50.516C597.416 50.516 592.919 55.3403 592.919 61.7001V94.7032H578.448V38.232H592.261V43.7155C595.878 39.4399 600.812 36.8079 606.841 36.8079C620.106 36.8079 628.876 46.7862 628.876 61.6981L628.878 94.7032Z" fill="#9F9FAA"/>
<path d="M311.851 195.769H295.845L284.116 138.424L272.276 195.769H256.38L235.551 119.674H250.899L263.944 175.046L275.346 119.674H292.886L304.177 175.046L317.332 119.674H332.57L311.851 195.769Z" fill="#9F9FAA"/>
<path d="M388.589 195.769H374.774V189.739C372.541 192.072 369.85 193.919 366.87 195.164C363.89 196.41 360.686 197.026 357.456 196.976C342.766 196.976 330.598 184.257 330.598 167.59C330.598 150.814 342.766 138.095 357.456 138.095C360.686 138.044 363.89 138.661 366.87 139.906C369.85 141.151 372.541 142.998 374.774 145.332V139.301H388.587L388.589 195.769ZM359.648 151.472C351.645 151.472 345.177 158.489 345.177 167.7C345.177 176.691 351.645 183.598 359.648 183.598C367.65 183.598 374.119 176.471 374.119 167.7C374.119 158.708 367.653 151.472 359.648 151.472Z" fill="#9F9FAA"/>
<path d="M450.854 172.195C450.854 186.449 441.207 197.085 426.078 197.085C410.949 197.085 401.193 186.449 401.193 172.195V124.937H415.662V139.301H450.303V152.897H415.662V172.961C415.662 178.114 418.838 183.377 426.076 183.377C433.202 183.377 436.381 178.114 436.381 172.961V167.59H450.852L450.854 172.195Z" fill="#9F9FAA"/>
<path d="M487.467 197.085C470.475 197.085 458.306 183.927 458.306 167.59C458.306 151.252 470.475 137.876 487.467 137.876C501.06 137.876 511.366 145.55 514.654 158.272H499.197C498.057 156.144 496.368 154.36 494.305 153.107C492.242 151.853 489.881 151.176 487.467 151.145C479.464 151.145 472.996 158.601 472.996 167.702C472.996 176.583 479.464 183.929 487.467 183.929C492.838 183.929 497.443 180.64 499.307 176.693H514.764C511.475 189.519 501.17 197.085 487.467 197.085Z" fill="#9F9FAA"/>
<path d="M574.728 195.769H560.257V162.766C560.257 159.476 559.161 152.02 549.733 152.02C543.265 152.02 538.769 156.406 538.769 162.766V195.769H524.189V114.191H538.769V142.264C542.478 139.412 547.027 137.87 551.705 137.878C565.518 137.878 574.727 147.856 574.727 162.768L574.728 195.769Z" fill="#9F9FAA"/>
<path d="M598.844 173.182C600.708 180.09 606.189 184.366 612.985 184.366C617.808 184.366 622.523 182.282 624.934 177.787H640.392C637.102 189.3 627.127 197.085 613.095 197.085C597.198 197.085 584.153 183.927 584.153 167.59C584.153 151.252 597.198 137.876 613.095 137.876C629.758 137.876 643.571 150.814 641.488 173.182H598.844ZM627.126 161.34C625.372 154.761 619.89 150.594 612.985 150.594C606.407 150.594 601.145 154.761 599.063 161.34H627.126Z" fill="#9F9FAA"/>
<path d="M702 165.616H687.529V162.765C687.529 159.476 686.543 151.581 677.005 151.581C670.537 151.581 666.04 156.406 666.04 162.765V195.768H651.57V139.301H665.383V144.784C669.001 140.508 673.934 137.877 679.964 137.877C693.228 137.877 701.998 147.854 701.998 162.767L702 165.616Z" fill="#9F9FAA"/>
<path d="M19.6423 0.432013C14.9031 1.36578 10.5604 3.72041 7.19171 7.18279C3.10813 11.2313 0.982297 15.8912 0.205545 22.3048C-0.503063 28.2453 0.644649 33.2747 3.58053 37.1229C4.96393 38.9796 8.94606 42.4223 9.689 42.4223C9.82375 42.4223 9.2499 41.0043 8.40807 39.2829C6.1475 34.8275 5.47221 32.0258 5.47221 27.0641C5.50602 22.3719 6.07987 19.807 7.83474 16.2289C10.0135 11.852 13.8352 8.51498 18.4654 6.94654C20.3212 6.27162 21.3674 6.17015 25.2148 6.13633C30.646 6.13633 32.6053 6.57551 37.566 9.00616C44.5522 12.4151 50.6268 18.0856 57.0725 27.3014C58.422 29.259 58.7935 29.5967 59.6374 29.5967C61.1899 29.5967 63.7876 28.4826 66.1168 26.795C68.5803 25.0398 71.9891 21.9343 71.7529 21.6642C71.2365 21.6491 70.7217 21.7292 70.2342 21.9004C68.4799 22.4068 61.0213 22.4406 60.1774 21.9343C59.5364 21.5965 59.5364 21.5627 60.1774 21.2255C61.2867 20.6505 78.3291 16.0931 79.4087 16.0931C79.4763 16.0931 79.544 16.4647 79.544 16.8695C79.5949 17.4237 79.847 17.9399 80.2526 18.3208C80.8603 18.861 81.6027 18.9963 85.5172 19.0639C89.5337 19.1987 90.107 19.131 90.748 18.5909C91.2547 18.0846 91.3895 17.6797 91.2547 16.7009C91.1522 15.9922 91.1871 15.4197 91.3218 15.4197C92.2333 15.4197 100.67 16.5677 103.741 17.1411C110.693 18.39 119.366 20.4491 119.366 20.8545C119.366 20.9893 118.927 21.1917 118.354 21.3265C117.932 21.4023 117.53 21.5632 117.172 21.7995C116.936 22.2382 118.761 24.4643 120.109 25.377C121.728 26.4912 126.048 27.9092 127.769 27.9092C129.221 27.9092 130.03 27.1323 129.625 26.0863C129.523 25.7824 129.523 25.5462 129.625 25.5462C130.368 25.5462 139.547 32.0269 149.403 39.5202C154.093 43.0645 154.296 43.1654 155.68 42.9968C158.109 42.7267 160.202 41.4779 163.171 38.5076C165.803 35.8427 166.58 34.6933 165.399 35.1324C163.779 35.7735 158.277 36.0774 155.578 35.7059C152.271 35.2334 151.765 35.0648 151.765 34.4908C151.765 34.0521 164.116 27.8077 171.001 24.7026C180.484 20.4491 186.255 19.6732 190.608 22.0378C197.256 25.683 198.438 35.9442 193.24 45.0242C190.371 50.0535 185.951 54.3404 178.864 59.0659L174.781 61.7999L175.658 62.8802C176.242 63.544 176.925 64.1133 177.683 64.5677C178.898 65.277 179.033 65.648 178.189 65.9181C177.851 66.0529 176.637 66.5592 175.525 67.066L173.432 68.0105L171.306 65.8504C170.159 64.6718 169.112 63.758 169.045 63.859C168.978 63.9266 169.45 64.8716 170.125 65.9857C172.595 70.3579 174.64 74.9572 176.231 79.7205C177.581 83.8049 179.876 93.0534 179.606 93.3573C179.153 93.2587 178.727 93.0629 178.358 92.7834C177.189 92.1802 175.969 91.6829 174.713 91.2972C171.101 90.1831 164.859 90.1831 161.214 91.2972C155.308 93.1534 152.642 95.7526 151.292 101.052C149.874 106.52 151.461 113.71 155.881 121.642C156.826 123.364 157.67 124.713 157.738 124.646C157.84 124.544 157.468 122.486 156.962 119.988C156.455 117.524 155.983 114.587 155.881 113.474C155.779 111.651 155.848 111.381 156.624 110.638C157.366 109.93 157.973 109.76 160.471 109.592C162.062 109.486 163.636 109.203 165.164 108.748C167.036 108.014 168.727 106.883 170.12 105.432C171.512 103.981 172.573 102.244 173.23 100.343C174.31 96.9677 174.58 96.7991 177.786 97.4735C180.924 98.1484 181.363 99.3302 180.047 103.617L179.338 106.047L178.866 104.967C178.427 103.853 177.313 103.009 176.74 103.347C175.808 104.455 174.94 105.616 174.141 106.824C170.395 112.19 168.37 113.777 164.15 114.722L162.395 115.093L163.573 115.6C165.497 116.41 169.715 116.545 172.044 115.836C173.124 115.499 174.136 115.296 174.238 115.397C174.305 115.5 173.934 116.511 173.36 117.625C172.247 119.853 172.079 121.101 172.888 121.878C173.867 122.857 175.182 122.452 175.959 120.933C176.566 119.718 179.131 116.613 179.333 116.815C179.569 117.051 177.714 123.532 176.633 126.131C175.217 129.585 173.417 132.868 171.268 135.92C168.77 139.599 168.062 140.51 167.859 140.308C167.653 139.059 167.562 137.793 167.589 136.527C167.454 132.915 167.454 132.915 168.467 131.869C169.817 130.452 169.412 129.473 166.476 127.245C164.147 125.49 158.815 122.317 158.579 122.553C158.511 122.62 159.152 123.701 159.996 124.983C160.844 126.243 161.578 127.576 162.19 128.966C163.104 131.754 163.549 134.674 163.506 137.607L163.371 139.464L162.561 137.607C160.401 132.781 156.317 124.814 153.618 120.224C149.468 113.136 145.35 107.06 145.35 108.005C145.35 108.107 147.881 115.059 150.951 123.464C160.401 149.253 159.591 146.789 159.76 150.603C159.895 153.64 159.827 154.113 159.119 155.463C157.971 157.691 157.465 157.86 156.014 156.577C154.326 155.091 153.112 155.159 146.97 157.016C144.203 157.86 141.671 158.535 141.368 158.535C141.064 158.535 138.128 157.759 134.888 156.78C129.792 155.294 128.577 155.058 125.945 155.024C123.28 154.991 122.671 155.092 120.984 155.936C119.904 156.476 118.891 156.78 118.689 156.679C118.243 156.208 117.888 155.659 117.643 155.058C115.449 150.738 113.121 148.408 111.029 148.408C108.632 148.408 107.755 152.392 109.408 155.733C110.759 158.434 112.716 160.391 118.183 164.442C123.245 168.222 126.791 171.565 128.712 174.399C129.657 175.817 131.851 179.901 131.851 180.272C131.851 180.982 126.653 184.593 122.84 186.517C111.096 192.424 98.1369 192.289 86.2243 186.18C83.2879 184.661 78.8671 181.252 78.8671 180.509C78.8671 180.406 79.171 180.104 79.5757 179.868C80.1834 179.463 80.4196 179.564 81.803 180.712C84.8742 183.31 85.8866 183.614 89.2949 182.804C90.6783 182.5 90.8832 182.534 93.0075 183.85C95.6396 185.439 96.8211 185.538 100.129 184.526C101.75 184.019 103.302 183.85 106.069 183.85C109.444 183.85 113.325 183.412 114.101 182.905C114.27 182.803 111.84 182.298 108.701 181.758C97.936 179.935 85.0781 176.526 80.8936 174.399C78.9025 173.387 77.4515 172.003 76.7762 170.417L76.1014 168.93L77.2158 167.784C77.5961 167.327 78.0527 166.939 78.5653 166.637C79.0085 167.009 79.3851 167.454 79.6787 167.953C80.8264 169.574 81.7713 170.012 84.2352 170.012C86.0572 170.012 86.2601 170.08 87.6097 171.396L89.0269 172.813L91.5247 172.608L93.9877 172.44L94.8992 173.79L95.8102 175.173L98.6451 174.937C101.345 174.732 101.514 174.768 103.066 175.747C104.754 176.827 106.306 176.996 109.141 176.455C110.561 176.3 111.998 176.38 113.393 176.692C115.924 177.131 116.397 177.131 118.051 176.658C118.923 176.414 119.762 176.062 120.548 175.612C121.358 175.038 121.527 175.106 116.835 174.126C114.609 173.677 112.46 172.903 110.457 171.83L107.486 170.278L104.651 170.514L101.816 170.751L100.33 169.4C99.013 168.185 98.6421 168.017 96.55 167.812C92.7703 167.44 87.1004 165.685 85.3117 164.301C84.2548 163.422 82.9393 162.912 81.5658 162.85C79.7095 162.645 79.2376 162.445 78.3937 161.533C77.5837 160.588 77.4489 160.284 77.6175 159.069C77.9802 157.617 78.454 156.195 79.0347 154.816C79.7095 153.227 80.351 151.744 80.4524 151.474C80.7224 150.867 79.6085 151.508 75.9974 154.073C74.2425 155.322 73.1281 156.403 72.7915 157.145L72.2852 158.259L65.7044 158.09C56.39 157.82 49.472 156.501 44.7136 154.107C44.0422 153.707 43.314 153.411 42.5539 153.229C42.4863 153.297 43.0263 154.546 43.7683 155.963C44.545 157.415 45.1184 158.731 45.0492 158.9C44.98 159.069 44.2729 158.529 43.4291 157.752C37.3882 152.115 34.4862 149.651 30.6388 147.052L28.4791 145.601L28.6815 147.761C29.0192 150.9 30.3011 154.343 33.069 159.71L35.5324 164.436L36.882 164.333C37.5906 164.299 40.4932 164.029 43.2605 163.726C46.3316 163.422 53.1144 163.118 60.5053 163.016L72.688 162.848L73.3971 163.759C74.6457 165.348 74.4428 165.514 71.3722 165.177C66.4785 164.67 37.3882 165.48 36.7134 166.122C36.8115 166.575 37.0071 167.001 37.2868 167.37C39.0755 170.173 39.4131 171.017 39.0422 171.691C38.8372 172.063 38.5354 172.366 38.3669 172.366C38.2321 172.366 37.2197 170.983 36.1396 169.295C34.52 166.729 34.0809 166.257 33.507 166.425C33.0093 166.545 32.5006 166.614 31.9889 166.63C31.2803 166.63 31.2126 166.732 31.415 167.809C31.786 169.665 31.1112 169.226 29.9292 166.83C28.9505 164.838 28.8491 164.399 28.9505 162.003L29.0853 159.37L26.8918 156.771C24.0569 153.362 21.3234 148.873 20.4462 146.071C19.4671 143.033 19.4671 139.117 20.4462 136.586C21.3234 134.291 21.3234 134.324 20.3437 134.088C19.1627 133.784 16.8678 131.116 16.3616 129.43C15.7877 127.54 15.8892 123.861 16.5978 120.89C18.2179 113.836 18.9598 109.38 20.7823 95.3724C23.3811 75.6597 23.4149 75.221 22.7058 73.7697C21.7902 72.2852 20.7756 70.8642 19.6689 69.5162C16.6972 65.8371 16.193 64.6221 16.7664 62.3928C17.3402 60.1313 18.3189 58.68 20.1075 57.5659C22.0986 56.2847 22.9425 56.2498 21.7615 57.4982C20.2428 59.1525 20.1413 59.6588 20.3781 63.5069C20.583 66.8144 20.6481 67.1183 21.4581 67.7604C21.8679 68.1176 22.4015 68.2994 22.944 68.2668C23.3826 68.1643 23.855 68.5368 24.5636 69.5156C25.7113 71.1043 25.8445 71.5747 26.1837 74.8827L26.4537 77.3467L26.9938 75.9969C28.7148 71.9483 30.5368 69.7857 38.2659 62.6977C40.8642 60.3014 41.6404 59.7613 43.1591 59.3897C47.5798 58.2756 52.912 54.6642 55.747 50.8161C57.3671 48.6222 59.0543 45.2814 58.8852 44.7064C58.8181 44.5014 57.5356 45.4495 56.0508 46.7993C52.5072 50.0397 50.0438 51.2215 46.8041 51.2215C43.3953 51.2215 40.4932 50.3436 39.8871 49.1285C39.4545 48.4527 38.9186 47.849 38.2987 47.3395C37.0496 46.394 33.4389 45.1118 32.055 45.1118C31.5505 45.1243 31.0511 45.008 30.6039 44.7741C29.9292 44.3354 31.2454 43.8967 35.1261 43.2213C37.4184 42.7978 39.7597 42.7068 42.078 42.9512C44.2043 43.0865 46.4654 43.1875 47.1069 43.1562C48.4226 43.1229 49.9413 42.1441 50.1104 41.2662C50.5152 39.3424 47.4461 36.4392 43.9005 35.3256C42.9314 35.0597 41.9838 34.7212 41.0655 34.313C40.1883 33.8405 40.1883 32.524 41.0993 31.0388L41.8085 29.8914L40.8631 28.8782C39.4797 27.4269 34.9576 25.334 31.684 24.6596C29.2544 24.1528 28.8147 23.9503 28.4105 23.1401C27.6342 21.6539 25.0355 21.6211 22.0325 23.0725C19.0608 24.4561 20.9857 21.8574 24.0236 20.3051C26.5545 19.0698 29.4565 18.8288 32.1564 19.6297C38.9735 21.5873 47.073 27.8323 51.3923 34.4816L53.3834 37.5195L53.4859 36.1692C53.6883 33.8405 52.5749 28.2371 51.4948 25.9418C50.3164 23.5116 45.3863 18.2798 41.5733 15.4443C38.8393 13.3852 34.0471 10.9889 31.1112 10.2463C24.6318 8.55878 18.0847 9.77384 13.9002 13.4529C12.1453 15.0057 10.2213 18.617 9.47893 21.6888C8.39885 26.3133 9.41181 33.1317 12.01 38.566C14.204 43.19 16.026 44.709 20.2782 45.4843C21.4935 45.7211 22.5054 45.9912 22.5054 46.126C22.5054 46.5985 18.9281 47.1386 15.8236 47.1386C11.0991 47.1386 7.38693 45.9912 4.85582 43.763C3.26748 42.3793 3.26747 42.9189 4.92293 45.7211C6.23921 47.9826 10.4914 53.2145 10.9976 53.2145C11.1667 53.2145 11.3691 55.6108 11.4705 58.5139C11.7062 66.2768 12.8201 70.6989 15.5874 75.2205C16.2284 76.2669 16.7013 77.3134 16.5998 77.5835C16.1274 78.9333 9.51274 118.493 9.00652 123.016C8.2641 129.832 9.71564 136.113 12.8539 139.893C13.5287 140.67 13.7311 141.277 13.7311 142.526C13.7311 145.159 14.6426 150.154 15.7898 153.733C18.4224 161.901 23.4846 170.306 30.8074 178.643C32.2589 180.297 33.4717 181.681 33.507 181.748C34.7156 181.361 35.899 180.898 37.0506 180.365C44.4415 177.226 53.2497 174.154 59.5605 172.567C62.935 171.69 70.2245 170.34 71.4731 170.34C72.047 170.34 73.3633 172.23 73.0615 172.567C72.4086 172.73 71.742 172.832 71.0704 172.871C68.2472 173.121 65.4413 173.538 62.6675 174.12C57.5382 175.133 50.8902 177.057 42.5206 179.993C38.4729 181.411 35.0959 182.658 35.0283 182.728C34.6573 183.031 42.2168 190.119 48.0553 194.913L49.8439 196.364L49.6072 194.305C49.4387 192.449 49.9449 189.579 50.4511 189.579C51.3411 190.124 52.1977 190.721 53.016 191.368C57.3712 194.643 56.3905 194.778 60.9132 190.289C62.8616 188.312 64.9357 186.463 67.1226 184.754C69.7208 182.931 74.4454 180.295 74.6821 180.568C74.8696 180.984 74.9837 181.43 75.0192 181.885C75.2242 182.965 75.1545 183.032 73.5682 183.775C70.6323 185.091 66.7173 187.96 63.1405 191.369C61.2165 193.226 59.6307 194.846 59.6307 194.981C59.6307 195.218 68.5398 200.044 68.9108 200.044C68.7378 199.37 68.5007 198.715 68.2027 198.086C67.2912 195.926 67.1897 194.576 67.8312 194.038C68.1689 193.734 68.6751 194.14 70.0247 195.759C72.0157 198.122 73.1634 200.316 73.2306 201.97C73.2644 202.578 73.3996 203.083 73.5006 203.083C74.2816 202.464 75.0047 201.775 75.6607 201.025C77.618 199 78.158 198.864 78.1918 200.451C78.1918 201.666 79.6429 204.839 81.0611 206.729C82.1741 208.224 83.5596 209.495 85.1447 210.476C86.6306 211.421 88.0468 212.434 88.3506 212.704C88.9921 213.311 90.3078 217.024 90.6117 219.117L90.8479 220.737L92.6704 219.083C93.6752 218.186 94.6009 217.203 95.4372 216.146C95.9434 215.438 96.4158 214.999 96.5173 215.134C96.5844 215.269 96.922 216.415 97.2592 217.665C97.5968 218.947 97.9683 219.961 98.103 219.961C98.4484 219.799 98.7495 219.555 98.9807 219.252C100.702 217.328 103.537 217.024 105.258 218.577C106.236 219.421 106.337 219.724 106.337 221.447C106.318 222.082 106.374 222.716 106.506 223.337C107.257 222.756 107.967 222.124 108.632 221.447C109.913 220.232 110.759 219.658 110.961 219.861C111.13 220.029 111.366 221.177 111.501 222.392C111.737 224.957 111.197 227.658 110.185 228.907C109.813 229.413 109.578 229.852 109.678 229.953C109.982 230.291 115.989 228.4 118.081 227.354C120.106 226.341 123.11 223.506 126.046 219.861C126.923 218.78 127.935 217.869 128.307 217.802C128.678 217.735 129.859 217.498 130.939 217.329C135.089 216.553 139.815 213.312 142.143 209.667C143.703 207.115 144.789 204.302 145.349 201.365L145.72 199.171L148.825 198.597C156.148 197.213 161.615 192.825 165.159 185.433C165.834 184.015 166.509 182.834 166.645 182.834C166.781 182.834 167.995 183.07 169.309 183.34C172.809 184.091 176.199 185.282 179.4 186.884C180.783 187.627 181.998 188.133 182.1 188.063C182.336 187.793 176.092 181.751 173.899 180.131C172.339 179.048 170.704 178.078 169.006 177.228C166.306 175.878 166.205 175.776 167.116 175.54C168.736 175.135 178.725 175.676 182.808 176.384C184.934 176.755 188.14 177.431 189.895 177.903C194.856 179.22 194.991 179.22 191.92 177.735C185.501 174.707 178.767 172.398 171.841 170.849C170.929 170.644 170.895 170.612 171.469 170.275C172.92 169.464 188.173 170.511 195.059 171.895C196.045 172.122 197.051 172.258 198.062 172.3C198.299 172.197 195.869 171.321 192.73 170.275C186.791 168.317 178.826 166.393 175.148 166.055C173.969 165.953 173.022 165.718 173.022 165.583C173.022 165.414 173.663 165.144 174.473 164.941C175.249 164.736 176.362 164.435 176.902 164.266C180.851 163.119 187.871 162.241 193.641 162.173C196.071 162.173 197.927 162.039 197.758 161.87C196.915 161.06 180.682 159.811 172.853 159.98L168.805 160.047L168.702 156.098L168.6 152.115L170.963 149.245C177.442 141.38 181.593 133.314 184.023 123.862C185.676 117.415 186.183 112.757 186.183 104.42C186.183 93.7873 184.866 86.0577 181.725 77.9904L180.375 74.5814L183.04 71.071C187.123 65.7039 188.979 63.0037 188.743 62.769C188.608 62.6342 188.034 62.7018 187.427 62.9043C183.984 64.086 184.018 63.9169 188.034 60.5751C195.526 54.2968 200.485 47.1073 202.41 39.715C203.322 36.306 203.49 30.4664 202.748 27.5638C201.027 20.4404 195.054 14.5009 188.27 13.0829C184.592 12.307 179.597 12.7795 175.176 14.2615C173.017 14.9708 164.073 19.46 153.848 24.9281L145.681 29.3164L142.88 27.4935C127.997 17.5701 112.608 11.5613 98.0989 9.97525C93.0372 9.43511 83.0814 9.77282 78.1882 10.684C72.5603 11.7543 67.0125 13.2097 61.5839 15.04C59.3909 15.8164 57.5008 16.4237 57.366 16.4237C57.197 16.4237 55.8136 15.1748 54.2273 13.6563C47.9164 7.61429 40.0198 2.85497 33.3036 1.06594C29.1252 -0.0409982 23.0506 -0.344381 19.6423 0.432013ZM24.1983 53.8986C24.5693 54.1349 24.6031 54.3035 24.3008 54.6074C23.7945 55.1137 22.175 54.7099 22.175 54.0672C22.1734 53.4932 23.4221 53.3923 24.1983 53.8986ZM168.975 97.9137C168.975 99.3317 167.895 102.1 166.849 103.382C165.465 105.036 163.541 105.88 161.045 105.88C159.053 105.88 156.489 105.036 156.016 104.226C155.881 104.021 156.32 103.315 156.927 102.606C158.007 101.458 158.176 101.391 158.986 101.762C161.179 102.775 163.103 101.897 163.44 99.7704C163.645 98.5891 163.811 98.42 164.891 98.1499C165.566 97.9475 166.646 97.678 167.288 97.5088C168.975 97.0363 168.975 97.0363 168.975 97.9137ZM162.833 159.277C162.788 160.485 162.402 161.656 161.719 162.653C160.707 164.172 160.572 165.016 161.247 165.826C161.55 166.197 161.753 166.197 162.09 165.928C162.766 165.355 163.238 165.895 163.238 167.209C163.238 168.255 162.934 168.696 160.977 170.551C159.121 172.272 158.48 172.711 157.569 172.711C156.961 172.711 154.869 173.386 152.979 174.23C151.727 174.811 150.442 175.318 149.131 175.749C149.024 175.754 148.919 175.784 148.825 175.837C148.732 175.889 148.651 175.963 148.591 176.053C148.321 176.458 153.519 178.179 154.902 178.146C155.974 178.025 157.021 177.741 158.007 177.302C160.335 176.323 160.671 176.593 159.627 178.685C159.121 179.766 158.682 180.069 156.655 180.845C154.057 181.79 151.559 183.006 151.289 183.445C151.187 183.613 151.357 184.052 151.627 184.457C152.335 185.503 154.326 185.469 155.811 184.355C156.419 183.882 156.993 183.578 157.092 183.68C157.16 183.747 156.721 184.524 156.114 185.367C153.718 188.675 149.263 190.835 145.584 190.464C141.838 190.093 137.519 187.156 135.764 183.781L135.089 182.566L136.979 180.068C140.421 175.511 145.586 170.786 151.254 166.938C157.902 162.479 160.67 159.883 161.614 157.284C162.019 156.204 162.053 156.17 162.492 156.744C162.799 157.152 162.9 157.996 162.833 159.277ZM128.478 192.122C129.558 193.27 134.012 196.105 136.342 197.151C137.067 197.423 137.749 197.798 138.367 198.265C138.67 198.738 137.962 201.742 137.185 203.362C136.241 205.218 134.013 207.75 132.562 208.594C131.55 209.201 131.516 209.201 131.313 208.594C130.672 206.67 130.335 206.163 129.491 205.792C128.647 205.455 128.344 205.488 127.365 206.096C126.743 206.454 126.233 206.979 125.894 207.611C125.554 208.243 125.397 208.958 125.442 209.674C125.442 210.754 125.374 210.822 123.923 211.058C120.951 211.496 119.164 213.421 118.793 216.559C118.557 218.686 118.118 218.652 117.038 216.457C116.493 215.395 116.198 214.223 116.174 213.03C116.151 211.837 116.4 210.654 116.903 209.571C117.342 208.795 117.578 208.153 117.477 208.153C116.901 208.384 116.348 208.667 115.823 208.997C113.258 210.516 112.482 210.586 109.107 209.672C105.597 208.727 102.662 208.592 100.266 209.335L98.6118 209.841L97.667 208.694L96.7222 207.515L95.1697 208.527C94.5912 208.925 93.9684 209.253 93.3139 209.506C93.1787 209.506 92.9763 208.932 92.841 208.225C92.3639 206.077 91.1159 204.178 89.3333 202.889C86.7684 200.931 86.7346 200.188 89.0971 197.218C89.6894 196.473 90.084 195.59 90.2443 194.652C90.3468 193.91 90.5143 193.302 90.6496 193.302C90.7521 193.302 92.1683 193.674 93.754 194.112C98.4115 195.393 102.191 195.766 108.299 195.564C114.543 195.359 118.795 194.518 123.926 192.526C125.614 191.884 127.132 191.344 127.335 191.31C127.537 191.277 128.039 191.649 128.478 192.122Z" fill="#9F9FAA"/>
<path d="M103.505 19.1316C103.505 19.234 103.809 20.178 104.18 21.2583C104.681 22.7814 104.91 24.3812 104.854 25.9838V28.8193L106.272 29.0556C108.095 29.3255 109.741 30.2938 110.862 31.7558C112.135 33.7481 112.91 36.0171 113.123 38.3718C113.156 39.3839 113.226 40.3632 113.258 40.5318C113.258 40.7009 113.865 40.7368 114.608 40.5995C115.721 40.4309 116.025 40.5318 116.801 41.2744C117.544 42.0508 117.679 42.4562 117.679 44.2114C117.679 46.0675 117.781 46.3038 118.857 47.2826C119.54 47.918 120.1 48.6732 120.511 49.5108C121.287 51.4008 122.063 55.7886 122.099 58.3202C122.133 60.9533 122.538 61.662 124.057 61.662C124.436 61.6914 124.817 61.6337 125.17 61.4934C125.339 61.3243 124.965 58.354 124.597 56.6665C124.259 55.2828 124.867 56.0925 127.971 61.1219C130.943 65.915 131.008 66.016 132.019 65.8141C134.482 65.3411 134.516 65.5102 131.209 60.9533C125.778 53.4594 123.008 49.1393 120.207 43.806C116.664 36.9901 111.804 29.3256 108.227 24.8697C106.639 22.9121 104.953 20.7858 104.447 20.1442C103.941 19.5026 103.539 19.0306 103.505 19.1316Z" fill="#9F9FAA"/>
<path d="M93.9543 20.4144C93.5923 20.8065 93.3941 21.3223 93.4003 21.8559C93.4065 22.3896 93.6166 22.9006 93.9876 23.2842C95.1691 24.3307 98.2403 25.5458 99.8599 25.5458C101.109 25.5458 101.547 25.3766 101.952 24.8027C102.228 24.4473 102.413 24.0306 102.492 23.5881C102.492 22.7441 101.109 21.158 99.7927 20.4826C98.0041 19.5704 94.7305 19.537 93.9543 20.4144Z" fill="#9F9FAA"/>
<path d="M79.9154 22.372C77.4857 22.8789 74.6846 24.1278 73.5369 25.2075C72.8959 25.8153 72.7945 26.2202 72.8621 27.5029L72.9645 29.0916L76.1372 29.1941C79.5116 29.2965 84.3376 28.553 86.0925 27.6751C87.3734 27.034 88.9951 25.5489 88.9951 25.0425C88.9951 24.3338 86.8011 22.5786 85.4515 22.207C83.7284 21.7304 82.615 21.7648 79.9154 22.372Z" fill="#9F9FAA"/>
<path d="M109.444 23.3845C109.107 24.2624 109.208 24.5325 110.187 25.4436C111.705 26.8611 114.034 28.2453 114.979 28.2453C117.071 28.2453 117.274 26.22 115.384 24.1968C114.103 22.8808 114 22.8469 111.874 22.8469C110.153 22.8449 109.613 22.9797 109.444 23.3845Z" fill="#9F9FAA"/>
<path d="M183.588 25.6799C181.563 26.3215 180.01 27.368 178.256 29.3256C176.399 31.3847 176.163 32.1955 176.703 34.6922C177.075 36.4813 177.041 36.7852 176.332 38.2703C175.252 40.5995 171.54 44.3123 168.165 46.4724C167.14 47.0743 166.169 47.7632 165.262 48.5315C165.262 48.8692 166.612 49.1731 168.199 49.1731C168.975 49.1731 169.685 49.3079 169.787 49.477C170.023 49.848 168.032 50.2867 163.645 50.8945L160.54 51.2994L161.924 52.5805C163.24 53.7956 163.307 53.9642 163.139 55.2807L162.97 56.6987L166.311 56.4625C174.073 55.9224 180.417 53.0869 186.83 47.2811C188.652 45.6612 191.723 41.7792 191.453 41.5091C190.601 41.7367 189.784 42.0773 189.023 42.5218C186.593 43.7368 181.799 45.5597 181.599 45.3573C181.531 45.2896 182.375 44.547 183.455 43.6697C188.854 39.4838 193.545 30.3029 191.891 27.1635C190.978 25.4775 186.726 24.7026 183.588 25.6799Z" fill="#9F9FAA"/>
<path d="M94.6966 29.3594C93.8866 29.7981 93.178 30.4054 93.1083 30.7093C92.8721 31.8234 95.4032 33.9496 98.1029 34.8951C101.242 36.0425 106 36.1763 107.823 35.2323C110.725 33.68 107.283 30.3044 101.512 29.0555C98.2402 28.3806 96.4177 28.4482 94.6966 29.3594Z" fill="#9F9FAA"/>
<path d="M116.396 31.351C115.654 32.0931 115.958 33.2748 117.24 34.6923C118.59 36.1785 119.973 37.0215 121.087 37.0215C121.83 37.0215 124.428 35.705 124.428 35.3339C124.428 34.5237 118.927 30.9457 117.679 30.9457C117.218 30.9347 116.767 31.0773 116.396 31.351Z" fill="#9F9FAA"/>
<path d="M126.89 31.1486C126.147 31.4858 126.417 33.2072 127.362 34.3213C128.611 35.8075 130.4 36.8868 133.336 37.8656C136.676 38.9797 137.892 38.9797 139.039 37.7631L139.984 36.7843L138.263 35.1956C135.9 33.0012 131.952 31.1471 129.32 31.0446C128.508 30.9853 127.693 31.0202 126.89 31.1486Z" fill="#9F9FAA"/>
<path d="M85.2138 33.3085C83.6613 33.781 81.9064 34.996 81.4002 36.0087C81.0277 37.0118 80.8557 38.0782 80.894 39.1476C80.894 40.8695 81.0287 41.4429 81.5688 41.9149C83.5936 43.7711 92.368 39.822 92.368 37.0541C92.368 35.94 90.7146 34.2525 88.9259 33.5099C88.3527 33.2278 87.7283 33.0645 87.0904 33.0299C86.4525 32.9953 85.8141 33.09 85.2138 33.3085Z" fill="#9F9FAA"/>
<path d="M76.4728 34.1522C74.1399 34.7867 71.7742 35.2938 69.3862 35.6711C62.5691 36.7853 61.9952 36.9523 61.9952 37.9327C62.1463 39.298 62.7952 40.5598 63.8177 41.4769C65.2688 42.6556 68.9471 41.8823 72.7268 39.6541C74.6169 38.5066 79.5413 34.1522 79.5413 33.6126C79.5439 33.241 79.5777 33.241 76.4728 34.1522Z" fill="#9F9FAA"/>
<path d="M121.391 39.9918C121.391 41.7132 124.529 46.203 126.014 46.6416C127.061 46.945 128.478 45.4937 128.478 44.1777C128.478 41.9162 125.506 39.384 122.842 39.384C121.664 39.384 121.391 39.4855 121.391 39.9918Z" fill="#9F9FAA"/>
<path d="M104.517 40.2618C103.995 40.4374 103.546 40.7812 103.241 41.2394C102.936 41.6976 102.791 42.2441 102.83 42.7934C102.83 44.4133 103.37 44.7848 107.048 45.7975C108.534 46.2028 110.491 46.8439 111.404 47.215C114.375 48.3629 116.364 47.688 115.858 45.6627C115.554 44.4133 113.125 41.8484 111.437 41.0043C110.084 40.2956 105.631 39.8205 104.517 40.2618Z" fill="#9F9FAA"/>
<path d="M131.414 42.1524C130.874 43.5699 133.439 46.7426 136.914 48.937C139.513 50.5569 140.962 51.0294 142.146 50.6246C143.732 50.1182 143.934 49.4095 143.023 47.6522C141.977 45.6608 140.359 44.2428 137.691 43.0277C135.193 41.8485 131.717 41.376 131.414 42.1524Z" fill="#9F9FAA"/>
<path d="M93.9543 43.502C92.0126 43.9807 90.2242 44.9447 88.7568 46.3037C87.542 47.3502 87.3058 47.7217 87.3058 48.7677C87.3058 50.4219 87.542 50.7253 89.1621 51.1645C92.098 51.9742 99.1174 51.267 99.8599 50.0842C100.603 48.9368 99.6575 45.2572 98.3074 44.1436C97.5311 43.502 95.473 43.1643 93.9543 43.502Z" fill="#9F9FAA"/>
<path d="M145.858 45.4935C147.275 50.1519 152 55.1474 155.881 56.0586C156.173 56.1534 156.488 56.1522 156.78 56.055C157.071 55.9578 157.324 55.7698 157.501 55.5185C158.446 54.5058 158.344 53.9657 157.062 52.7511C155.781 51.5694 146.938 45.1901 146.128 44.8862C145.723 44.7171 145.656 44.8524 145.858 45.4935Z" fill="#9F9FAA"/>
<path d="M74.9546 48.3275C71.5796 50.0186 68.0699 53.8985 68.0699 55.9915C68.0699 56.835 68.9809 57.8815 70.331 58.5902C71.5796 59.2318 73.5369 59.0289 74.887 58.1177C76.3728 57.1051 78.5991 53.8309 79.3753 51.5022L79.9487 49.7808L78.8353 48.6329C77.519 47.2513 77.148 47.2513 74.9546 48.3275Z" fill="#9F9FAA"/>
<path d="M111.267 52.8521C110.595 53.0864 109.941 53.3682 109.309 53.6957C107.959 54.4049 107.993 54.8774 109.58 58.1178C111.031 60.9876 111.301 61.2905 113.19 61.6282C116.194 62.2022 119.031 60.9195 119.031 58.9951C119.031 57.4065 117.479 54.675 116.095 53.7633C114.675 52.8183 112.583 52.4135 111.267 52.8521Z" fill="#9F9FAA"/>
<path d="M57.5746 55.3161C54.9103 58.186 51.8708 62.7085 51.8708 63.7888C51.8708 64.126 52.2761 64.3961 53.0523 64.5647C57.2025 65.3411 62.3667 61.5268 63.4464 56.9361C63.8177 55.4176 62.2991 54.2358 59.9703 54.2358C58.8231 54.2358 58.3862 54.4388 57.5746 55.3161Z" fill="#9F9FAA"/>
<path d="M135.227 56.1939L134.384 56.8688L135.126 58.355C136.881 61.8992 140.627 64.7009 143.091 64.2279C144.542 63.9583 144.913 63.1143 144.371 61.1567C143.919 59.6888 143.044 58.387 141.855 57.4143C140.667 56.4416 139.218 55.8413 137.69 55.6886C136.375 55.5533 135.903 55.6558 135.227 56.1939Z" fill="#9F9FAA"/>
<path d="M92.9419 59.299C92.2189 59.9421 91.5732 60.6672 91.0179 61.4596C90.4446 62.4384 90.1069 62.607 88.5882 62.8094C87.5081 62.8903 86.4972 63.3719 85.7538 64.1598C84.3361 65.5773 83.4922 68.3108 83.7961 70.6405L83.9984 72.3957L82.9189 72.632C81.5355 72.9359 79.6453 74.6239 79.0377 76.1086C78.2276 78.0329 78.3291 78.2015 80.3878 78.2015C83.2394 78.3089 86.0546 78.8789 88.7235 79.8891C90.7479 80.8008 91.6256 80.7669 91.8956 79.7205C92.1994 78.5054 91.8956 77.6614 90.3073 74.995C88.5524 72.1251 88.2491 70.168 89.3286 68.4804C90.1725 67.0968 91.0497 67.1639 91.4888 68.6829C91.6573 69.2568 91.8936 69.7632 91.9945 69.7632C92.1298 69.7632 92.636 68.7843 93.176 67.5693C94.2894 65.0038 96.8881 62.3708 99.284 61.4934C100.972 60.818 101.512 59.873 100.667 59.029C100.296 58.6579 99.284 58.4555 97.1576 58.354C94.1905 58.2182 94.1567 58.2182 92.9419 59.299Z" fill="#9F9FAA"/>
<path d="M153.856 62.4046C153.577 62.748 153.442 63.1865 153.48 63.6274C153.519 64.0683 153.727 64.477 154.061 64.7671C154.742 65.2698 155.452 65.7319 156.187 66.1508C158.414 67.3997 161.958 71.3488 163.24 73.9142C164.521 76.5468 164.691 79.4161 163.746 83.2304C163.442 84.5808 163.273 85.762 163.375 85.8953C163.881 86.3678 168.133 84.9165 169.618 83.7691C171.846 82.0138 172.59 82.1804 175.693 85.0856L177.179 86.4693L176.942 85.4566C176.335 82.8241 172.69 76.8471 171.712 76.8471C171.022 77.1691 170.384 77.5921 169.819 78.1021C168.333 79.2157 168.165 79.2808 167.794 78.7433C167.285 77.6181 166.901 76.4411 166.646 75.2328C165.16 69.3594 161.922 64.2285 158.682 62.7101C157.029 61.9322 154.497 61.7635 153.856 62.4046Z" fill="#9F9FAA"/>
<path d="M101.716 63.7213C97.2586 64.7672 95.5739 67.9066 95.6077 74.9956C95.6077 78.5061 95.743 79.3516 96.4854 81.3077C97.2611 83.3669 100.366 88.6663 100.805 88.6663C100.907 88.6663 100.974 86.9444 100.974 84.852C100.974 80.0922 101.716 77.7635 104.618 73.3726C107.015 69.6936 107.385 68.0394 106.272 65.8122C105.564 64.4618 104.247 63.3139 103.437 63.3815C103.201 63.4174 102.425 63.5527 101.716 63.7213Z" fill="#9F9FAA"/>
<path d="M40.2615 66.1175C36.6847 68.0751 32.4663 73.0035 31.0153 76.9526C29.6652 80.5645 29.6319 80.3954 31.6901 79.2818C32.6687 78.7417 35.2336 77.3575 37.3933 76.2101C41.646 73.9486 43.8389 72.0591 44.818 69.9318C45.729 67.9742 45.6614 66.59 44.5813 65.7465C43.367 64.8009 42.5902 64.8686 40.2615 66.1175Z" fill="#9F9FAA"/>
<path d="M71.9511 65.5101C67.4284 66.9276 64.8978 69.7636 64.0539 74.32C63.5477 77.054 63.5477 77.1212 64.6954 77.6951C66.0788 78.4039 67.6313 78.3362 69.5885 77.3912C73.6045 75.5351 75.1908 73.0035 75.427 68.1427L75.5617 65.0371L74.4479 65.0709C73.6003 65.1106 72.7613 65.2582 71.9511 65.5101Z" fill="#9F9FAA"/>
<path d="M112.988 68.6492C110.659 71.4847 110.423 73.5771 112.414 74.2526C113.592 74.6574 114.642 73.9487 116.295 71.6533C117.105 70.5059 117.341 69.8643 117.206 69.2908C116.633 67.0631 114.574 66.7254 112.988 68.6492Z" fill="#9F9FAA"/>
<path d="M128.647 68.8176C128.749 69.4254 128.883 71.6874 128.917 73.8137C128.984 76.8511 128.849 78.1005 128.343 79.5856C127.263 82.7584 128.343 84.4459 130.503 82.927C131.448 82.252 131.583 82.252 132.258 82.722C133.27 83.4307 134.114 83.3969 134.519 82.6195C134.957 81.8098 134.755 81.1682 132.19 75.16C131.043 72.4597 129.862 69.6919 129.592 68.9831C128.917 67.4339 128.376 67.333 128.647 68.8176Z" fill="#9F9FAA"/>
<path d="M151.426 69.1215C150.346 70.8767 150.65 72.7334 152.574 76.0398C154.936 80.0884 155.545 81.9466 155.712 85.623C155.834 87.1106 155.777 88.6075 155.543 90.0815C155.071 91.8706 155.51 91.7353 157.805 89.4061C161.011 86.1996 161.922 81.8794 160.572 76.5123C159.393 71.753 156.859 68.8837 153.384 68.2426C152.236 68.0063 152.067 68.075 151.426 69.1215Z" fill="#9F9FAA"/>
<path d="M141.572 69.7293L140.458 70.7081L141.774 72.5982C143.158 74.5901 144.778 76.1762 145.486 76.1762C146.296 76.1762 147.377 75.0959 147.377 74.32C147.377 72.4634 145.858 70.2357 143.934 69.223C142.753 68.6152 142.854 68.5814 141.572 69.7293Z" fill="#9F9FAA"/>
<path d="M122.235 70.7737C122.132 70.9423 122.235 72.1235 122.437 73.3724C123.078 76.9843 124.698 78.1655 126.217 76.1064C126.824 75.2962 126.858 75.0262 126.487 73.8116C125.913 71.8893 122.909 69.6975 122.235 70.7737Z" fill="#9F9FAA"/>
<path d="M53.5585 72.1574C48.2263 73.2038 45.1557 77.1529 44.8513 83.3292L44.7166 86.3016H45.9314C47.4839 86.3016 50.8251 85.1874 52.5123 84.141C54.5034 82.8921 56.56 80.2934 57.9793 77.3564C59.768 73.6097 59.9027 72.901 58.9241 72.5299C57.1907 71.9804 55.3512 71.8526 53.5585 72.1574Z" fill="#9F9FAA"/>
<path d="M135.936 74.792C135.497 75.062 135.497 75.4674 135.834 77.3241C136.509 80.9016 136.711 81.2394 138.163 81.2732C139.31 81.307 139.681 81.5771 141.807 83.9057C145.114 87.5515 145.216 87.6186 146.431 86.3697C147.679 85.1551 147.544 84.041 145.958 82.1162C144.304 80.0909 142.381 78.8082 141.603 79.2464C140.725 79.685 140.489 79.5164 139.072 77.2549C137.959 75.4659 137.047 74.4875 136.609 74.4875C136.368 74.548 136.14 74.6511 135.936 74.792Z" fill="#9F9FAA"/>
<path d="M117.51 75.1635C116.531 75.5351 114.034 78.3362 113.764 79.3489C113.46 80.6301 113.899 82.5221 114.574 82.8931C115.417 83.3661 116.97 82.2858 118.622 80.1258C120.31 77.8648 120.512 77.2908 119.871 76.312C119.197 75.265 118.32 74.8596 117.51 75.1635Z" fill="#9F9FAA"/>
<path d="M121.561 81.6447C119.233 84.986 118.659 86.0663 118.76 86.9098C118.996 88.9018 123.147 87.9225 124.092 85.6287C124.599 84.3798 124.297 82.4559 123.384 81.5448C122.538 80.6992 122.201 80.733 121.561 81.6447Z" fill="#9F9FAA"/>
<path d="M105.968 82.4208C105.766 82.9948 106.036 85.0201 106.542 87.0115C106.998 88.1562 107.624 89.2257 108.398 90.1842C110.052 92.2772 111.199 94.5725 113.359 99.9724C114.102 101.829 114.776 103.415 114.878 103.517C115.249 103.854 114.673 92.4791 114.203 90.3867C113.696 88.1584 113.055 87.3149 111.806 87.3149C111.368 87.3149 110.761 86.8086 110.254 86.0337C109.174 84.4133 106.879 81.916 106.475 81.916C106.305 81.915 106.104 82.1507 105.968 82.4208Z" fill="#9F9FAA"/>
<path d="M77.8561 84.6152C75.5274 84.9524 71.3767 85.3916 68.6094 85.5935C63.1086 85.9989 61.2861 86.4037 60.4084 87.3825C59.8684 87.9903 59.8684 88.058 60.5109 88.6637C60.9833 89.1357 62.502 89.4734 66.7879 90.115C70.2977 90.6214 72.795 91.161 73.335 91.4987C74.0244 92.0887 74.6165 92.7836 75.0899 93.5578C75.5961 94.3675 76.5409 95.887 77.1824 96.9668C78.4004 99.0593 80.0564 100.864 82.0369 102.256C84.0174 103.649 86.2755 104.596 88.6564 105.034C93.5839 106.047 96.0468 107.904 97.4645 111.616C98.2997 114.013 98.1666 116.641 97.0936 118.941C96.8105 119.526 96.5844 120.136 96.4183 120.764C96.4183 121.202 99.6918 119.886 101.21 118.84C102.131 118.117 102.928 117.251 103.573 116.274C104.45 114.958 104.787 114.654 105.361 114.823C107.42 115.397 107.825 115.397 108.534 114.688C109.647 113.574 109.411 112.393 107.42 109.118C106.098 106.957 105.066 104.631 104.349 102.2C103.674 100.04 102.729 97.2384 102.257 95.9895C99.9957 89.9474 95.8106 86.2346 89.3963 84.5809C86.3615 83.805 83.5947 83.805 77.8561 84.6152ZM83.4246 92.0071L85.7866 92.6482L86.2933 94.4372C86.6976 95.8209 87.1029 96.4287 87.9468 97.0026C89.6678 98.1813 91.1527 97.9815 92.9075 96.361C93.6499 95.7199 93.65 95.7199 94.4959 96.834C96.2169 99.1632 96.2507 99.3656 94.7321 100.142C88.9935 103.078 81.4017 99.0956 80.3217 92.6143C80.0839 91.163 80.0834 91.163 83.4246 92.0071Z" fill="#9F9FAA"/>
<path d="M150.312 87.2139C149.266 88.2942 148.119 89.577 147.747 90.0838C147.373 90.5718 146.853 90.9268 146.262 91.0964C145.519 91.1989 145.519 91.265 145.587 96.0915C145.621 98.7922 145.792 101.358 145.958 101.796C146.194 102.505 146.363 102.303 147.173 99.9396C147.679 98.4535 149.063 95.2141 150.244 92.7138C152.336 88.326 153.248 85.2881 152.505 85.2881C152.303 85.2901 151.325 86.1675 150.312 87.2139Z" fill="#9F9FAA"/>
<path d="M135.16 87.3487C133.945 88.0241 134.62 93.0197 135.97 93.4922C136.441 93.5409 136.917 93.4704 137.354 93.2872C138.332 92.9833 138.332 92.9157 138.096 91.0595C137.657 87.484 136.779 86.4042 135.16 87.3487Z" fill="#9F9FAA"/>
<path d="M33.0402 88.3955C32.0949 88.868 30.3759 92.3108 29.9352 94.7071C29.3281 98.0489 30.34 103.078 32.6349 108.074C33.5459 110.065 33.5459 110.099 33.8159 109.087C33.9512 108.513 34.626 105.88 35.3346 103.18C37.9333 93.4244 37.8995 89.6439 35.1322 88.3955C34.1536 87.9225 34.0521 87.9225 33.0402 88.3955Z" fill="#9F9FAA"/>
<path d="M48.6649 92.3447C47.3486 93.1544 44.6828 96.0238 43.9403 97.4413C43.5847 98.2191 43.3979 99.0635 43.3921 99.9188C43.3862 100.774 43.5616 101.621 43.9065 102.404C44.5142 103.582 46.5391 105.441 47.6863 105.88C49.475 106.589 50.8589 105.002 52.1746 100.682C52.8494 98.4539 53.1195 94.4372 52.6809 93.2221C52.4447 92.6481 50.8589 91.7031 50.1164 91.7031C49.5944 91.8172 49.1007 92.0354 48.6649 92.3447Z" fill="#9F9FAA"/>
<path d="M60.6118 97.8466C59.4979 101.998 59.2284 104.26 58.9579 111.281C58.7893 115.466 58.587 119.281 58.4517 119.753C58.2155 120.698 58.0131 120.597 61.759 121.913C63.5477 122.554 64.0201 123.162 63.3786 124.175C63.0077 124.748 63.1429 125.086 64.2901 126.571C67.226 130.419 67.8337 130.858 70.4995 130.858C72.7606 130.858 73.9422 131.432 74.0769 132.613C74.2117 133.794 74.5493 134.031 77.3166 134.841L79.6453 135.55L80.3539 134.672C81.5011 133.255 88.2511 122.926 88.1497 122.791C87.9135 122.554 82.4803 125.661 80.2863 127.314L78.0252 129.002L76.8104 127.753C75.632 126.503 75.5618 126.472 73.0306 126.472H70.4688L69.2196 124.851C68.511 123.974 66.9253 122.286 65.6761 121.071L63.415 118.877L63.0102 116.007C62.0316 109.222 61.694 105.105 61.6601 100.886C61.6576 96.26 61.3204 95.2812 60.6118 97.8466Z" fill="#9F9FAA"/>
<path d="M67.2599 97.781C65.9437 101.123 67.0237 104.532 69.4196 104.532C69.7572 104.532 70.6349 105.173 71.3435 105.983C74.3808 109.393 78.1944 111.012 83.4252 111.08C88.0483 111.148 88.4198 110.742 84.9772 109.527C80.1517 107.806 77.8552 106.118 73.7394 101.225C71.445 98.4912 69.0824 96.4321 68.2386 96.4321C68.0024 96.4286 67.5638 97.0363 67.2599 97.781Z" fill="#9F9FAA"/>
<path d="M23.6919 109.019C23.1553 110.19 22.7368 111.411 22.4427 112.665C21.4308 116.479 21.3632 123.466 22.2747 125.862C22.9495 127.584 24.4681 128.968 25.3453 128.63C26.0539 128.36 28.0096 125.322 28.7879 123.263C30.0022 120.09 29.3612 113.171 27.507 109.491C26.9331 108.377 26.7641 108.242 25.5497 108.242C24.5352 108.243 24.0967 108.412 23.6919 109.019Z" fill="#9F9FAA"/>
<path d="M69.0148 109.829C67.4961 111.584 67.2937 113.779 68.5086 114.926C69.521 115.871 70.1287 115.871 71.0059 114.892C72.1198 113.677 72.5245 112.631 72.3221 111.517C71.9174 109.458 70.1287 108.58 69.0148 109.829Z" fill="#9F9FAA"/>
<path d="M39.9244 110.64C36.9209 113.272 36.3475 120.698 38.9119 123.736C39.6205 124.58 39.8572 124.681 40.7344 124.445C42.1516 124.04 42.624 123.736 44.3113 122.082C46.1 120.361 47.1467 118.504 47.1467 117.086C47.1467 115.433 42.8603 109.593 41.6454 109.593C40.9945 109.795 40.4034 110.155 39.9244 110.64Z" fill="#9F9FAA"/>
<path d="M77.0128 115.666C75.8803 116.282 74.9974 117.272 74.5155 118.468C73.8745 120.156 75.3594 121.505 76.9118 120.696C78.4643 119.919 81.2311 117.658 81.2311 117.185C81.0675 116.719 80.7604 116.317 80.3539 116.037C79.8858 115.673 79.3256 115.445 78.7358 115.379C78.146 115.314 77.5495 115.413 77.0128 115.666Z" fill="#9F9FAA"/>
<path d="M93.5157 122.757C92.4694 123.162 90.7817 125.356 90.1745 127.113C89.9603 127.629 89.8349 128.177 89.8036 128.734C90.8454 128.523 91.863 128.206 92.8404 127.789C95.8439 126.709 97.6326 125.561 96.823 125.223C96.4163 124.935 96.1001 124.537 95.9115 124.075C95.2706 122.892 94.4267 122.42 93.5157 122.757Z" fill="#9F9FAA"/>
<path d="M108.263 126.706C108.027 128.698 107.757 132.748 107.656 135.651L107.453 140.95L108.567 141.997C108.845 142.306 109.182 142.555 109.56 142.729C109.937 142.903 110.345 142.998 110.761 143.01C113.055 143.01 113.425 141.018 111.975 136.529C111.435 134.774 110.558 131.128 110.052 128.462C109.546 125.795 109.039 123.466 108.904 123.331C108.769 123.195 108.499 124.714 108.263 126.706Z" fill="#9F9FAA"/>
<path d="M49.9474 130.115C49.1378 130.622 48.4963 131.263 48.4963 131.567C48.7813 132.592 49.1892 133.578 49.7112 134.504C51.9384 139.026 55.5522 141.592 59.9703 141.929C63.6825 142.199 65.7412 141.153 66.5512 138.655C67.0913 136.968 61.5228 132.613 55.9544 130.385C54.2671 129.711 52.5461 129.17 52.1075 129.207C51.3361 129.369 50.6028 129.677 49.9474 130.115Z" fill="#9F9FAA"/>
<path d="M30.4414 130.385C27.9103 131.263 26.4926 133.457 26.4926 136.596C26.4926 139.432 27.5394 141.085 30.2724 142.537C31.1839 143.044 32.1963 143.178 34.7612 143.178C37.6971 143.178 38.1357 143.111 38.5743 142.503C39.3172 141.525 38.9458 139.972 37.1909 136.428C35.2675 132.546 33.6135 130.318 32.534 130.115C31.8251 130.05 31.1105 130.142 30.4414 130.385Z" fill="#9F9FAA"/>
<path d="M87.6773 132.783C85.4839 133.862 82.6828 138.352 82.9861 140.344C83.0537 141.019 83.2899 141.153 84.5053 141.255C85.7206 141.356 86.0936 141.187 87.2382 140.141C89.196 138.419 91.3557 135.483 91.3557 134.606C91.3557 133.796 89.9723 132.21 89.2636 132.21C88.711 132.327 88.1772 132.52 87.6773 132.783Z" fill="#9F9FAA"/>
<path d="M73.7393 139.634C73.1241 140.173 72.6313 140.838 72.2937 141.583C71.9562 142.328 71.7817 143.137 71.782 143.955C71.782 146.047 72.3559 146.385 75.697 146.385C78.2953 146.385 78.6329 146.317 79.3753 145.541C79.7581 145.231 80.0496 144.822 80.2187 144.36C80.2187 143.078 77.3843 139.938 75.6294 139.296C74.5493 138.892 74.7179 138.858 73.7393 139.634Z" fill="#9F9FAA"/>
<path d="M45.3581 140.005C43.6703 140.984 42.8603 145.879 43.9747 148.241C45.9319 152.36 58.756 155.836 61.5904 153.001L62.4343 152.19L61.2195 150.537C58.7898 147.229 53.9951 143.144 49.7455 140.815C47.5177 139.599 46.4038 139.398 45.3581 140.005Z" fill="#9F9FAA"/>
<path d="M82.9189 154.554C81.9741 155.6 82.075 156.073 83.5599 157.558C85.0109 159.009 85.9562 159.211 86.9681 158.199C88.1497 157.02 87.5758 155.329 85.6186 154.317C84.3023 153.64 83.7284 153.676 82.9189 154.554Z" fill="#9F9FAA"/>
<path d="M91.0855 156.613C90.1069 157.659 90.1407 157.963 91.5579 159.549C92.9413 161.068 94.2223 161.338 95.1691 160.292C96.0463 159.313 95.8439 158.334 94.5614 157.018C93.176 155.634 92.1 155.532 91.0855 156.613Z" fill="#9F9FAA"/>
<path d="M99.4889 159.009C98.5103 160.022 98.7465 160.832 100.333 162.216C101.682 163.431 102.897 163.532 103.843 162.587C104.99 161.439 104.517 160.191 102.492 158.773C101.345 157.963 100.4 158.064 99.4889 159.009Z" fill="#9F9FAA"/>
<path d="M31.5209 163.836C31.3446 164.093 31.2614 164.403 31.2852 164.713C31.2852 165.153 31.4538 165.287 31.8247 165.153C32.163 165.039 32.5148 164.97 32.871 164.948C33.3434 164.948 33.3434 164.845 32.8039 164.273C32.1624 163.566 31.8586 163.465 31.5209 163.836Z" fill="#9F9FAA"/>
</g>
</g>
<defs>
<clipPath id="clip0_7_298">
<rect width="702" height="230" fill="white"/>
</clipPath>
</defs>
</svg>
