<svg width="72" height="23" viewBox="0 0 72 23" fill="none" xmlns="http://www.w3.org/2000/svg">
<g clip-path="url(#clip0_1_57)">
<path d="M0.00777858 18.0107V13.444C0.00777858 11.8288 0.488232 10.6203 1.43689 9.79527C2.38555 8.97021 3.76893 8.56335 5.59696 8.56335C7.30768 8.56335 8.62026 8.91197 9.52236 9.62083C10.4245 10.3297 10.8818 11.329 10.8818 12.6307V14.1758C10.8845 14.1947 10.8828 14.2141 10.8767 14.2323C10.8706 14.2504 10.8604 14.267 10.8467 14.2805C10.8331 14.294 10.8164 14.3042 10.7981 14.3103C10.7798 14.3163 10.7603 14.3181 10.7412 14.3154H7.99908C7.97996 14.3181 7.96045 14.3164 7.94212 14.3104C7.92379 14.3044 7.90714 14.2942 7.89348 14.2806C7.87981 14.2671 7.86947 14.2506 7.86337 14.2324C7.85727 14.2142 7.85556 14.1949 7.85832 14.1759V12.7118C7.8639 12.4727 7.81646 12.2353 7.71929 12.0165C7.62214 11.7976 7.47766 11.6026 7.29608 11.4452C6.92097 11.1078 6.34691 10.9459 5.58512 10.9459C4.70642 10.9459 4.06183 11.1899 3.64003 11.6663C3.21824 12.1428 3.00722 12.7702 3.00722 13.5255V17.8134C3.00722 18.5692 3.21797 19.1961 3.64003 19.6843C4.0621 20.1725 4.70629 20.4164 5.58512 20.4164C6.34731 20.4164 6.92097 20.242 7.29608 19.9051C7.47786 19.7453 7.62234 19.5483 7.71943 19.3275C7.81651 19.1067 7.86385 18.8676 7.85819 18.6268V17.0813C7.85541 17.0623 7.85715 17.043 7.86323 17.0248C7.86933 17.0065 7.87961 16.9901 7.89327 16.9764C7.90694 16.9629 7.92358 16.9527 7.94193 16.9466C7.96026 16.9405 7.97981 16.9389 7.99895 16.9416H10.7411C10.7602 16.9389 10.7796 16.9407 10.798 16.9466C10.8163 16.9527 10.833 16.9629 10.8466 16.9764C10.8602 16.9899 10.8705 17.0065 10.8766 17.0248C10.8827 17.0428 10.8844 17.0623 10.8816 17.0812V18.8243C10.8816 20.0795 10.4246 21.0553 9.49897 21.7531C8.57345 22.462 7.22597 22.8106 5.4566 22.8106C3.68722 22.8106 2.33976 22.404 1.40213 21.5789C0.4645 20.7538 0.00744629 19.5678 0.00744629 18.0114L0.00777858 18.0107Z" fill="#9F9FAA"/>
<path d="M23.7137 13.0487V16.1746C23.7137 16.2791 23.6667 16.3366 23.5729 16.3366H15.8507V17.8347C15.8507 18.5905 16.0617 19.2176 16.4836 19.7057C16.9055 20.1937 17.5497 20.4377 18.4288 20.4377C19.1903 20.4377 19.753 20.2866 20.1165 19.9845C20.2875 19.8449 20.4248 19.6692 20.518 19.4701C20.6114 19.2711 20.6584 19.0536 20.6556 18.8342V17.4748C20.6529 17.4559 20.6547 17.4364 20.6608 17.4183C20.6668 17.4001 20.6771 17.3835 20.6908 17.37C20.7045 17.3564 20.7211 17.3463 20.7395 17.3402C20.7577 17.3341 20.7773 17.3325 20.7964 17.3352H23.5384C23.5576 17.3325 23.577 17.3341 23.5954 17.3402C23.6136 17.3463 23.6304 17.3564 23.644 17.37C23.6576 17.3835 23.6679 17.4001 23.6741 17.4183C23.6801 17.4364 23.682 17.4559 23.6791 17.4748V19.0202C23.6791 20.2519 23.2219 21.1932 22.3198 21.8437C21.4177 22.4943 20.0817 22.8198 18.3122 22.8198C16.5427 22.8198 15.1953 22.413 14.2577 21.5879C13.3201 20.7629 12.863 19.5777 12.863 18.0204V13.4537C12.863 11.8387 13.3435 10.6302 14.2921 9.80509C15.2408 8.98003 16.6242 8.57324 18.4522 8.57324C20.1629 8.57324 21.4754 8.95668 22.3777 9.72357C23.2682 10.4906 23.7135 11.5945 23.7135 13.0471L23.7137 13.0487ZM20.7021 14.0713V13.3975C20.7021 12.584 20.5263 11.9681 20.1631 11.5619C19.8115 11.1552 19.2256 10.946 18.4288 10.946C17.55 10.946 16.9055 11.19 16.4837 11.6665C16.0619 12.1429 15.851 12.7704 15.851 13.5257V14.0719H20.7022L20.7021 14.0713Z" fill="#9F9FAA"/>
<path d="M37.1897 12.6419V22.4148C37.1924 22.4337 37.1906 22.453 37.1845 22.4712C37.1785 22.4894 37.1682 22.5059 37.1544 22.5195C37.1408 22.533 37.1242 22.5431 37.1058 22.5492C37.0875 22.5552 37.068 22.5569 37.0488 22.5542H34.3184C34.2993 22.5569 34.2799 22.5552 34.2615 22.5491C34.2433 22.543 34.2266 22.5329 34.2129 22.5194C34.1993 22.5058 34.1891 22.4893 34.183 22.4712C34.1768 22.453 34.1751 22.4337 34.1778 22.4148V13.1533C34.1778 12.4096 34.0138 11.8518 33.6856 11.4797C33.3576 11.1077 32.7717 10.9217 31.928 10.9219C31.0725 10.9219 30.4398 11.1543 30.0414 11.6191C29.6382 12.0924 29.4254 12.6966 29.4435 13.3158V22.4145C29.4463 22.4334 29.4446 22.4529 29.4384 22.4709C29.4323 22.4892 29.4221 22.5056 29.4085 22.5193C29.3948 22.5328 29.3781 22.5429 29.3598 22.5489C29.3415 22.555 29.3221 22.5568 29.3029 22.5541H26.5613C26.5422 22.5568 26.5226 22.555 26.5044 22.5491C26.486 22.543 26.4694 22.5328 26.4557 22.5193C26.4421 22.5058 26.4319 22.4893 26.4257 22.4711C26.4196 22.453 26.4177 22.4336 26.4204 22.4147V8.97006C26.4177 8.9511 26.4195 8.93177 26.4256 8.91359C26.4316 8.89541 26.4419 8.87889 26.4555 8.86536C26.4693 8.8518 26.4859 8.8416 26.5043 8.83557C26.5225 8.82952 26.5421 8.82775 26.5612 8.83049H29.3032C29.3222 8.82781 29.3417 8.82956 29.36 8.83562C29.3783 8.84168 29.3949 8.8519 29.4086 8.86541C29.4222 8.87893 29.4325 8.89545 29.4386 8.91359C29.4447 8.93173 29.4465 8.95101 29.4437 8.96994V10.0041H29.608C30.2641 9.02799 31.5062 8.53992 33.3342 8.53992C34.7052 8.53992 35.6895 8.88856 36.2877 9.5742C36.8972 10.2597 37.1901 11.2824 37.1901 12.6419H37.1897Z" fill="#9F9FAA"/>
<path d="M40.1778 3.89192C40.175 3.87297 40.1768 3.85366 40.1829 3.8355C40.1891 3.81735 40.1994 3.80086 40.213 3.78733C40.2267 3.77381 40.2434 3.76366 40.2616 3.7576C40.28 3.75155 40.2994 3.74983 40.3185 3.75253H43.0605C43.0797 3.74981 43.0991 3.75155 43.1174 3.7576C43.1357 3.76366 43.1523 3.77385 43.1661 3.78739C43.1797 3.80094 43.1899 3.81747 43.196 3.83564C43.2022 3.85381 43.2038 3.87309 43.2011 3.89204V6.577C43.2038 6.59595 43.2022 6.61525 43.196 6.63342C43.1899 6.65159 43.1797 6.66811 43.1661 6.68166C43.1523 6.69519 43.1357 6.70538 43.1174 6.71144C43.0991 6.7175 43.0797 6.7193 43.0605 6.71659H40.3184C40.2993 6.71927 40.2798 6.7175 40.2616 6.71144C40.2432 6.70538 40.2266 6.69518 40.213 6.68166C40.1994 6.66813 40.189 6.65161 40.1831 6.63349C40.1769 6.61535 40.1752 6.59606 40.1779 6.57714L40.1778 3.89192ZM40.1778 8.97001C40.175 8.95106 40.1768 8.93176 40.1829 8.91359C40.1889 8.89544 40.1993 8.8789 40.2129 8.86535C40.2265 8.8518 40.2431 8.84158 40.2613 8.8355C40.2797 8.82941 40.2992 8.82763 40.3182 8.83029H43.0605C43.0797 8.82757 43.0991 8.82937 43.1174 8.83543C43.1357 8.84149 43.1523 8.85168 43.1661 8.86522C43.1797 8.87877 43.1899 8.89529 43.196 8.91346C43.2022 8.93162 43.2038 8.95092 43.2011 8.96987V22.4146C43.2038 22.4335 43.202 22.4528 43.1959 22.471C43.1899 22.4891 43.1796 22.5057 43.166 22.5192C43.1523 22.5327 43.1357 22.543 43.1174 22.549C43.0991 22.5551 43.0797 22.5569 43.0605 22.5542H40.3184C40.2993 22.5569 40.2798 22.5551 40.2615 22.549C40.2432 22.543 40.2266 22.5327 40.2129 22.5192C40.1993 22.5057 40.1889 22.4891 40.1829 22.471C40.1768 22.4528 40.175 22.4335 40.1778 22.4146V8.97001Z" fill="#9F9FAA"/>
<path d="M50.1975 18.8822C50.1975 19.3585 50.2791 19.6836 50.4318 19.8698C50.5846 20.0559 50.8655 20.1604 51.2637 20.1604H53.396C53.4151 20.1575 53.4346 20.1593 53.453 20.1652C53.4712 20.1713 53.488 20.1815 53.5016 20.195C53.5152 20.2085 53.5255 20.225 53.5317 20.2432C53.5378 20.2614 53.5394 20.2807 53.5367 20.2996V22.4145C53.5017 22.5075 53.4547 22.554 53.396 22.5542H50.1975C48.1938 22.5542 47.1859 21.5897 47.1859 19.6723V11.2009H44.9129C44.8938 11.2036 44.8744 11.2018 44.856 11.1957C44.8378 11.1897 44.8211 11.1795 44.8075 11.1659C44.7938 11.1524 44.7836 11.1359 44.7775 11.1178C44.7715 11.0996 44.7697 11.0803 44.7724 11.0614V8.96933C44.7671 8.96192 44.7634 8.95345 44.7617 8.94448C44.76 8.93554 44.7603 8.9263 44.7625 8.91746C44.7648 8.90864 44.7689 8.90043 44.7747 8.89335C44.7805 8.88626 44.7878 8.8805 44.796 8.87647C44.826 8.85153 44.8625 8.8354 44.9013 8.83002H47.1743V5.27429C47.1716 5.25534 47.1733 5.23603 47.1795 5.21787C47.1856 5.19972 47.1958 5.18317 47.2094 5.16964C47.223 5.1561 47.2397 5.14591 47.258 5.13985C47.2762 5.13377 47.2958 5.13202 47.3149 5.13471H50.057C50.0761 5.13202 50.0955 5.13377 50.1139 5.13985C50.1321 5.14591 50.1489 5.1561 50.1625 5.16964C50.1761 5.18317 50.1864 5.19972 50.1926 5.21787C50.1986 5.23603 50.2003 5.25534 50.1976 5.27429V8.831H53.3961C53.4548 8.831 53.5017 8.87749 53.5367 8.97052V11.0625C53.5394 11.0815 53.5378 11.1008 53.5317 11.119C53.5255 11.1372 53.5152 11.1537 53.5016 11.1673C53.488 11.1808 53.4712 11.191 53.453 11.1971C53.4346 11.2031 53.4151 11.2049 53.396 11.2021H50.1975V18.8833V18.8822Z" fill="#9F9FAA"/>
<path d="M66.7661 22.4147C66.7689 22.4336 66.7671 22.4529 66.7611 22.4712C66.755 22.4892 66.7448 22.5057 66.731 22.5192C66.7174 22.5327 66.7008 22.543 66.6826 22.549C66.6643 22.5551 66.6447 22.5569 66.6257 22.5542H64.7858C64.0711 22.5542 63.5437 22.438 63.2154 22.2055C62.8751 21.9731 62.6764 21.5665 62.5945 21.0088H62.4422C62.2428 21.4851 61.8211 21.8919 61.2 22.2405C60.5788 22.5891 59.6651 22.775 58.4698 22.775C57.2628 22.775 56.3489 22.5079 55.716 21.9849C55.0831 21.4619 54.7669 20.6832 54.7669 19.6491V17.9644C54.7669 16.9301 55.0014 16.1864 55.47 15.7216C55.9386 15.2568 56.7708 14.943 57.9778 14.7573L60.9894 14.2924C61.4002 14.2544 61.803 14.1566 62.1849 14.0021C62.3118 13.9521 62.4189 13.863 62.4908 13.7479C62.5625 13.6328 62.5949 13.4979 62.5833 13.3631V12.4212C62.5833 11.8983 62.4191 11.5148 62.0797 11.2825C61.7404 11.0503 61.1307 10.9339 60.2287 10.9339C59.3267 10.9339 58.717 11.0618 58.3777 11.3058C58.0383 11.5498 57.8741 11.9216 57.8741 12.4097V13.4438C57.8768 13.4628 57.8752 13.4821 57.869 13.5003C57.8629 13.5185 57.8526 13.535 57.8388 13.5486C57.8252 13.5621 57.8086 13.5723 57.7902 13.5784C57.7719 13.5844 57.7524 13.5862 57.7332 13.5834H54.9912C54.9722 13.5861 54.9527 13.5843 54.9343 13.5783C54.9159 13.5722 54.8993 13.562 54.8857 13.5485C54.872 13.535 54.8618 13.5185 54.8556 13.5003C54.8495 13.4822 54.8478 13.4628 54.8505 13.4438V12.3051C54.8505 11.0386 55.2724 10.0973 56.1278 9.48142C56.9833 8.86556 58.3427 8.56366 60.2177 8.56366C62.1394 8.56366 63.5103 8.90107 64.3417 9.56242C65.173 10.2238 65.5839 11.2937 65.5839 12.7342V19.5784C65.5665 19.7444 65.6034 19.9115 65.6893 20.0551C65.7595 20.1361 65.9118 20.1828 66.158 20.1828H66.6268C66.646 20.1801 66.6654 20.1817 66.6838 20.1877C66.7022 20.1938 66.7188 20.2041 66.7325 20.2176C66.7461 20.2312 66.7565 20.2477 66.7625 20.2659C66.7686 20.2841 66.7704 20.3034 66.7675 20.3224V22.4145L66.7661 22.4147ZM62.5829 18.1269V16.1159C62.4539 16.2438 62.114 16.3483 61.5757 16.4413L59.3028 16.7084C58.7402 16.7781 58.3537 16.9408 58.1426 17.1848C57.9315 17.4288 57.8263 17.7775 57.8263 18.2307V19.0208C57.8263 19.474 57.9669 19.7994 58.2599 19.9852C58.553 20.1709 59.045 20.2756 59.7364 20.2756C60.7436 20.2756 61.4701 20.0665 61.916 19.6483C62.1296 19.4557 62.2994 19.2204 62.4146 18.958C62.5296 18.6957 62.5873 18.4121 62.5839 18.126L62.5829 18.1269Z" fill="#9F9FAA"/>
<path d="M68.8519 3.54331C68.8492 3.52438 68.851 3.50506 68.8571 3.4869C68.8631 3.46874 68.8735 3.45221 68.8871 3.43866C68.9007 3.42511 68.9173 3.41489 68.9355 3.4088C68.9539 3.40272 68.9734 3.40093 68.9924 3.40359H71.7345C71.7537 3.40087 71.7732 3.40262 71.7916 3.40867C71.8098 3.41471 71.8265 3.42492 71.8403 3.43846C71.8539 3.45201 71.8642 3.46853 71.8704 3.48671C71.8765 3.50487 71.8781 3.52422 71.8754 3.54318V22.4146C71.8781 22.4335 71.8765 22.4528 71.8704 22.471C71.8642 22.4893 71.8539 22.5057 71.8403 22.5194C71.8265 22.5329 71.8098 22.543 71.7916 22.549C71.7732 22.555 71.7537 22.5567 71.7345 22.554H68.9925C68.9735 22.5567 68.954 22.555 68.9358 22.5489C68.9174 22.5428 68.9008 22.5326 68.8872 22.5191C68.8736 22.5056 68.8634 22.4891 68.8573 22.471C68.8511 22.4528 68.8494 22.4335 68.8521 22.4146L68.8519 3.54331Z" fill="#9F9FAA"/>
<path d="M5.59744 4.01963L3.73429 6.99469L3.66391 7.02935H1.07438C1.05454 7.03091 1.03469 7.02605 1.01783 7.01558C1.00096 7.00511 0.987985 6.98954 0.980742 6.97116C0.97398 6.95213 0.971456 6.93186 0.973431 6.91178C0.975406 6.89171 0.98183 6.87234 0.992172 6.85497L4.77728 0.963442C4.79242 0.945821 4.81294 0.933587 4.83577 0.928711H6.46459C6.48747 0.933626 6.50806 0.945847 6.52333 0.963442L10.2967 6.85485C10.3113 6.87083 10.3196 6.89142 10.3201 6.91296C10.3201 6.99394 10.285 7.04082 10.2145 7.04082H7.60134L7.53124 7.00602L5.59744 4.01963Z" fill="#9F9FAA"/>
</g>
<defs>
<clipPath id="clip0_1_57">
<rect width="72" height="22" fill="white" transform="translate(0.00744629 0.928589)"/>
</clipPath>
</defs>
</svg>
