<svg width="121" height="45" viewBox="0 0 121 45" fill="none" xmlns="http://www.w3.org/2000/svg">
<g clip-path="url(#clip0_1_72)">
<mask id="mask0_1_72" style="mask-type:luminance" maskUnits="userSpaceOnUse" x="0" y="0" width="122" height="45">
<path d="M121.007 0.928589H0.00744629V44.9286H121.007V0.928589Z" fill="white"/>
</mask>
<g mask="url(#mask0_1_72)">
<mask id="mask1_1_72" style="mask-type:luminance" maskUnits="userSpaceOnUse" x="0" y="0" width="122" height="45">
<path d="M121.007 0.928589H0.00744629V44.9286H121.007V0.928589Z" fill="white"/>
</mask>
<g mask="url(#mask1_1_72)">
<g style="mix-blend-mode:luminosity">
<path d="M56.2305 7.51102C56.6355 7.66953 57.0242 7.89478 57.3878 8.2118L56.4456 9.34644C56.1974 9.15453 55.9497 9.00436 55.71 8.90424C55.4704 8.80411 55.2059 8.75407 54.9332 8.75407C54.3712 8.75407 53.925 8.99602 53.5943 9.47155C53.2638 9.95544 53.1068 10.698 53.1068 11.6991C53.1068 12.6836 53.2721 13.4177 53.5943 13.8933C53.925 14.3688 54.3795 14.6108 54.958 14.6108C55.2638 14.6108 55.5448 14.5523 55.7927 14.4355C56.0406 14.3187 56.3134 14.1519 56.6024 13.9266L57.487 15.0779C57.1727 15.395 56.7929 15.6536 56.338 15.8622C55.8919 16.0624 55.396 16.1708 54.8506 16.1708C54.0737 16.1708 53.4043 15.9956 52.8258 15.6536C52.2555 15.3115 51.8093 14.8026 51.4869 14.1352C51.1646 13.4594 51.0076 12.6502 51.0076 11.7074C51.0076 10.7897 51.1729 9.98884 51.4952 9.32139C51.8258 8.65394 52.272 8.14507 52.8506 7.803C53.4291 7.45258 54.082 7.28571 54.8175 7.28571C55.3547 7.27742 55.8175 7.3525 56.2305 7.51102Z" fill="#9F9FAA"/>
<path d="M64.0574 7.48602L63.8506 8.92099H60.9001V10.9483H63.4787V12.3499H60.9001V14.519H64.0574V15.9623H58.9087V7.48602H64.0574Z" fill="#9F9FAA"/>
<path d="M68.5858 12.717H67.8089V15.954H65.8258V7.47766H68.5774C69.7264 7.47766 70.5857 7.68627 71.1644 8.11171C71.743 8.53721 72.0321 9.18796 72.0321 10.0556C72.0321 10.5979 71.8999 11.0568 71.6439 11.4155C71.3873 11.7743 70.9745 12.0829 70.4204 12.3415L72.5531 15.9456H70.3134L68.5858 12.717ZM67.8173 11.3404H68.6519C69.0984 11.3404 69.4289 11.2403 69.6519 11.0317C69.8754 10.8315 69.9824 10.5061 69.9824 10.064C69.9824 9.65515 69.867 9.35483 69.6272 9.17127C69.3875 8.98771 69.0239 8.88764 68.5281 8.88764H67.8173V11.3404Z" fill="#9F9FAA"/>
<path d="M80.0243 7.48602L77.6855 15.9623H75.214L72.7928 7.48602H74.8919L76.4867 14.3939L77.9908 7.48602H80.0243Z" fill="#9F9FAA"/>
<path d="M86.3382 7.48602L86.1315 8.92099H83.1726V10.9483H85.7511V12.3499H83.1726V14.519H86.3382V15.9623H81.189V7.48602H86.3382Z" fill="#9F9FAA"/>
<path d="M92.7595 7.51102C93.1646 7.66953 93.5528 7.89478 93.9163 8.2118L92.9747 9.34644C92.7265 9.15453 92.4783 9.00436 92.2391 8.90424C91.9994 8.80411 91.735 8.75407 91.4622 8.75407C90.9003 8.75407 90.4538 8.99602 90.1233 9.47155C89.7928 9.95544 89.6354 10.698 89.6354 11.6991C89.6354 12.6836 89.8006 13.4177 90.1233 13.8933C90.4538 14.3688 90.9081 14.6108 91.4868 14.6108C91.7927 14.6108 92.0733 14.5523 92.3215 14.4355C92.5696 14.3187 92.8419 14.1519 93.1315 13.9266L94.0155 15.0779C93.7018 15.395 93.3214 15.6536 92.8671 15.8622C92.4206 16.0624 91.9249 16.1708 91.3792 16.1708C90.6023 16.1708 89.9329 15.9956 89.3547 15.6536C88.7845 15.3115 88.338 14.8026 88.0159 14.1352C87.6932 13.4594 87.5364 12.6502 87.5364 11.7074C87.5364 10.7897 87.7016 9.98884 88.0237 9.32139C88.3548 8.65394 88.8007 8.14507 89.3794 7.803C89.9581 7.45258 90.6107 7.28571 91.3462 7.28571C91.8834 7.27742 92.3545 7.3525 92.7595 7.51102Z" fill="#9F9FAA"/>
<path d="M100.594 7.48602L100.388 8.92099H97.4287V10.9483H100.007V12.3499H97.4287V14.519H100.594V15.9623H95.4457V7.48602H100.594Z" fill="#9F9FAA"/>
<path d="M105.123 12.717H104.346V15.954H102.363V7.47766H105.115C106.263 7.47766 107.123 7.68627 107.701 8.11171C108.28 8.53721 108.569 9.18796 108.569 10.0556C108.569 10.5979 108.437 11.0568 108.181 11.4155C107.925 11.7743 107.511 12.0829 106.958 12.3415L109.09 15.9456H106.85L105.123 12.717ZM104.346 11.3404H105.181C105.627 11.3404 105.958 11.2403 106.181 11.0317C106.404 10.8315 106.512 10.5061 106.512 10.064C106.512 9.65515 106.396 9.35483 106.156 9.17127C105.917 8.98771 105.552 8.88764 105.057 8.88764H104.346V11.3404Z" fill="#9F9FAA"/>
<path d="M112.346 4.27405L113.057 5.71736L110.148 6.78524L109.66 5.80913L112.346 4.27405ZM112.371 15.9623H110.388V7.48603H112.371V15.9623Z" fill="#9F9FAA"/>
<path d="M118.9 15.9623L118.462 14.1436H116.016L115.594 15.9623H113.536L116.065 7.48602H118.478L121.007 15.9623H118.9ZM116.355 12.6836H118.123L117.239 8.93768L116.355 12.6836Z" fill="#9F9FAA"/>
<path d="M57.892 19.3746L55.2058 24.6723V27.8509H53.2141V24.6806L50.5281 19.3746H52.6934L54.2471 23.1038L55.8008 19.3746H57.892Z" fill="#9F9FAA"/>
<path d="M70.8916 27.8508H68.9415L68.7925 24.5387C68.7511 23.7461 68.7348 23.0453 68.7348 22.4196C68.7348 21.9441 68.7427 21.5019 68.7679 21.0765L67.4705 26.9581H65.5944L64.2141 21.0765C64.2634 21.7856 64.2887 22.453 64.2887 23.0787C64.2887 23.5543 64.2802 24.0465 64.2556 24.5554L64.1066 27.8425H62.1644L62.7924 19.3661H65.2964L66.5529 25.1144L67.7265 19.3661H70.2473L70.8916 27.8508Z" fill="#9F9FAA"/>
<path d="M77.0408 27.8509L76.6027 26.0322H74.1564L73.7346 27.8509H71.677L74.2057 19.3746H76.619L79.1482 27.8509H77.0408ZM74.5037 24.5722H76.2722L75.3877 20.8262L74.5037 24.5722Z" fill="#9F9FAA"/>
<path d="M82.3048 19.3746V26.2574H85.5696L85.3629 27.8509H80.3134V19.3746H82.3048Z" fill="#9F9FAA"/>
<path d="M91.6767 19.3746L91.4868 20.918H89.4124V27.8509H87.4288V20.918H85.2552V19.3746H91.6767Z" fill="#9F9FAA"/>
<path d="M98.1726 19.3746L97.9659 20.8095H95.0075V22.8369H97.5861V24.2468H95.0075V26.4076H98.1726V27.8509H93.0239V19.3746H98.1726Z" fill="#9F9FAA"/>
<path d="M102.702 24.6138H101.925V27.8509H99.9417V19.3746H102.693C103.842 19.3746 104.702 19.5831 105.28 20.0086C105.859 20.4341 106.148 21.0849 106.148 21.9525C106.148 22.4948 106.016 22.9536 105.76 23.3124C105.503 23.6711 105.09 23.9798 104.536 24.2384L106.669 27.8425H104.429L102.702 24.6138ZM101.925 23.229H102.759C103.206 23.229 103.536 23.1288 103.759 22.9203C103.983 22.72 104.09 22.3947 104.09 21.9525C104.09 21.5437 103.974 21.2434 103.735 21.0598C103.495 20.8763 103.131 20.7761 102.636 20.7761H101.925V23.229Z" fill="#9F9FAA"/>
<path d="M109.916 16.1625L110.627 17.6058L107.718 18.6738L107.231 17.6976L109.916 16.1625ZM109.942 27.8509H107.958V19.3745H109.942V27.8509Z" fill="#9F9FAA"/>
<path d="M116.47 27.8509L116.032 26.0322H113.586L113.164 27.8509H111.107L113.635 19.3746H116.049L118.577 27.8509H116.47ZM113.933 24.5722H115.701L114.817 20.8262L113.933 24.5722Z" fill="#9F9FAA"/>
<path d="M58.6359 40.0813L57.9412 40.974C57.0074 40.1314 56.2803 39.8644 54.7762 39.8644C52.7266 39.8644 51.3134 38.3711 51.3134 35.5595C51.3134 32.7814 52.7431 31.1796 54.801 31.1796C56.8752 31.1796 58.2886 32.7063 58.2886 35.5428C58.2886 37.6619 57.5284 38.7214 56.338 39.3055C57.2886 39.3138 58.0241 39.6308 58.6359 40.0813ZM54.801 39.0051C56.2556 39.0051 57.1727 38.004 57.1727 35.5428C57.1727 33.0817 56.264 32.0556 54.801 32.0556C53.3712 32.0556 52.4291 33.0817 52.4291 35.5512C52.4291 38.004 53.396 39.0051 54.801 39.0051Z" fill="#9F9FAA"/>
<path d="M66.3961 37.0613C66.3961 38.7132 65.3794 39.8895 63.5117 39.8895C61.6189 39.8895 60.652 38.7132 60.652 37.0613V31.3298H61.6934V36.9779C61.6934 38.296 62.272 38.9802 63.5117 38.9802C64.7598 38.9802 65.3301 38.296 65.3301 36.9779V31.3298H66.3961V37.0613Z" fill="#9F9FAA"/>
<path d="M70.3544 31.3298H69.313V39.7394H70.3544V31.3298Z" fill="#9F9FAA"/>
<path d="M74.437 38.8133H77.8833L77.7595 39.7394H73.3956V31.3298H74.437V38.8133Z" fill="#9F9FAA"/>
<path d="M87.1813 39.7394H86.1645L85.8503 35.885C85.7265 34.5501 85.6357 33.1068 85.6189 32.3977L83.7428 38.7716H82.7597L80.8008 32.3893C80.7924 33.3404 80.7184 34.7003 80.6108 35.9518L80.3212 39.7394H79.3297L80.0322 31.3298H81.4618L83.2885 37.5536L85.0324 31.3298H86.462L87.1813 39.7394Z" fill="#9F9FAA"/>
<path d="M94.0653 32.1808H90.7843V35.0173H93.6272V35.8767H90.7843V38.8884H94.272V39.7394H89.7429V31.3298H94.1807L94.0653 32.1808Z" fill="#9F9FAA"/>
<path d="M101.123 32.1473L100.553 32.7981C99.9248 32.2808 99.3383 32.0639 98.6359 32.0639C97.7513 32.0639 97.0819 32.4894 97.0819 33.3153C97.0819 34.0578 97.4371 34.4166 98.9333 34.8838C100.305 35.301 101.38 35.8349 101.38 37.4117C101.38 38.88 100.288 39.8978 98.4622 39.8978C97.2718 39.8978 96.3548 39.4974 95.6602 38.8216L96.2388 38.1625C96.8668 38.6881 97.52 39.0218 98.4454 39.0218C99.4621 39.0218 100.288 38.4962 100.288 37.4534C100.288 36.5857 99.8755 36.2019 98.4454 35.7681C96.8091 35.2676 95.9991 34.6419 95.9991 33.3571C95.9991 32.0973 97.0651 31.1963 98.5776 31.1963C99.7349 31.1796 100.445 31.5216 101.123 32.1473Z" fill="#9F9FAA"/>
<path d="M31.8338 38.4963L33.2966 38.7716L33.4371 36.6859L31.6768 36.8361L31.8338 38.4963Z" fill="#9F9FAA"/>
<path d="M31.5776 35.8432L33.4784 36.0017L33.6189 33.8743L31.4041 34.0161L31.5776 35.8432Z" fill="#9F9FAA"/>
<path d="M34.0982 36.0517L36.1809 36.2353L36.4288 33.6907L33.9495 33.8492L34.0982 36.0517Z" fill="#9F9FAA"/>
<path d="M31.975 40.023C31.9584 40.0399 31.9333 40.0483 31.9166 40.0653C31.9417 40.0483 31.9584 40.0399 31.975 40.023Z" fill="#9F9FAA"/>
<path d="M8.72644 36.4106L8.85864 38.6215L10.3463 38.8217V36.2771L8.72644 36.4106Z" fill="#9F9FAA"/>
<path d="M5.94125 35.7933L8.13958 35.9685L8.27184 33.6825L5.7677 33.8494L5.94125 35.7933Z" fill="#9F9FAA"/>
<path d="M10.338 33.549L8.56116 33.6658L8.70165 36.0185L10.3463 36.1521L10.338 33.549Z" fill="#9F9FAA"/>
<path d="M23.8339 31.5885C22.9992 31.1213 22.0653 30.8793 21.0901 30.8793C19.5694 30.8793 18.1397 31.48 17.0653 32.5646C15.9909 33.6491 15.3959 35.0924 15.3959 36.6275C15.3959 38.1626 15.9909 39.6059 17.0653 40.6905C18.1397 41.775 19.5694 42.3757 21.0901 42.3757C22.0653 42.3757 23.0074 42.1255 23.8339 41.6666C24.4454 41.3913 25.0075 41.0075 25.4951 40.5153C26.5199 39.4808 27.0901 38.0958 27.0901 36.6275C27.0901 35.1592 26.5199 33.7826 25.4951 32.7397C25.0075 32.2476 24.4454 31.8637 23.8339 31.5885ZM24.9578 40.557C24.586 40.9324 24.181 41.2495 23.7347 41.4914C23.0818 41.7834 22.3794 41.9335 21.6438 41.9335C20.2471 41.9335 18.9413 41.3829 17.9496 40.3818C16.9661 39.3806 16.4207 38.0458 16.4207 36.6275C16.4207 35.2093 16.9661 33.8744 17.9496 32.8733C18.9331 31.8721 20.2471 31.3215 21.6438 31.3215C22.3711 31.3215 23.0818 31.4716 23.7347 31.7637C24.181 32.014 24.586 32.331 24.9578 32.6981C25.9909 33.7493 26.5611 35.1425 26.5611 36.6275C26.5529 38.1125 25.9826 39.5058 24.9578 40.557Z" fill="#9F9FAA"/>
<path d="M23.2637 33.4405C23.1645 33.3738 23.057 33.3238 22.9579 33.2654L22.9496 33.282C22.4041 32.9817 21.7843 32.8148 21.1397 32.8148C20.1314 32.8148 19.1893 33.2069 18.4703 33.9328C17.7595 34.6502 17.3628 35.6097 17.3628 36.6275C17.3628 37.6453 17.7512 38.5964 18.4703 39.3223C19.181 40.0397 20.1314 40.4402 21.1397 40.4402C21.7843 40.4402 22.4041 40.2817 22.9579 39.973C23.3628 39.7894 23.7347 39.5391 24.057 39.2138C24.7347 38.5297 25.1149 37.6119 25.1149 36.6358C25.1149 35.6598 24.743 34.7504 24.057 34.0579C23.8174 33.8076 23.5529 33.6074 23.2637 33.4405ZM21.5198 33.1736C21.5281 33.1736 21.5281 33.1736 21.5198 33.1736C21.9909 33.1736 22.4372 33.2654 22.8504 33.4489L22.024 34.9005C21.867 34.8254 21.6934 34.7671 21.5198 34.7337V33.1736ZM21.3711 34.9673C21.5942 34.9673 21.8091 35.0174 22.0075 35.1008C22.1397 35.1759 22.2719 35.2759 22.3794 35.3928C22.5694 35.593 22.7099 35.8349 22.7926 36.0936L21.5612 36.2938C21.5116 36.2521 21.462 36.2187 21.3959 36.202L20.9578 35.0174C21.0983 34.984 21.2306 34.9673 21.3711 34.9673ZM21.0901 33.1986V34.7003C21.0075 34.7003 20.9331 34.717 20.8504 34.7253L20.7512 34.45L20.7843 34.742C20.7017 34.7587 20.619 34.7838 20.5446 34.8088L19.8587 33.6157C20.2388 33.3988 20.6603 33.257 21.0901 33.1986ZM19.1314 34.183C19.2471 34.0663 19.3711 33.9578 19.5033 33.8577L20.1644 35.009C20.0488 35.0841 19.9413 35.1675 19.8504 35.2676C19.8091 35.3093 19.7595 35.3594 19.7264 35.4095L18.6686 34.7921C18.7843 34.5668 18.9496 34.3666 19.1314 34.183ZM18.4455 35.1675L19.4785 35.7682C19.3876 35.9517 19.3215 36.1603 19.2967 36.3689H18.1397C18.1727 35.9434 18.2802 35.5429 18.4455 35.1675ZM18.4206 38.0208C18.2554 37.637 18.1562 37.2282 18.1397 36.8027H19.2884C19.305 37.0196 19.3628 37.2282 19.4454 37.4201L18.4206 38.0208ZM19.1314 39.072C18.933 38.8717 18.7595 38.6465 18.619 38.4045L19.6686 37.7872C19.7182 37.8539 19.776 37.929 19.8422 37.9874C19.9331 38.0791 20.024 38.1542 20.1232 38.221L19.4703 39.3639C19.3463 39.2805 19.2389 39.1804 19.1314 39.072ZM21.0901 40.0564C20.6356 39.998 20.2058 39.8478 19.8174 39.6142L20.4951 38.4296C20.6851 38.5046 20.8835 38.5463 21.0901 38.5547V40.0564ZM20.2388 37.8039C19.9331 37.4868 19.7678 37.0697 19.7678 36.6275C19.7678 36.1853 19.9331 35.7682 20.2388 35.4512C20.4042 35.2759 20.6025 35.1425 20.8256 35.0674L20.9744 36.3105C20.8917 36.3939 20.8422 36.5024 20.8422 36.6275C20.8422 36.8694 21.0405 37.0697 21.2802 37.0697C21.4785 37.0697 21.6521 36.9279 21.7017 36.7443L22.8587 36.3271C22.8752 36.4273 22.8835 36.5274 22.8835 36.6358C22.8835 37.1031 22.7099 37.5369 22.3959 37.8706C22.2802 37.9874 22.1562 38.0875 22.024 38.1626C21.8256 38.2543 21.6107 38.2961 21.3876 38.2961C20.9413 38.2877 20.5446 38.1125 20.2388 37.8039ZM22.8918 39.7978C22.4703 39.9813 22.0075 40.0814 21.5364 40.0814H21.5281V38.5297C21.7182 38.4963 21.9 38.4379 22.0736 38.3461L22.8918 39.7978ZM23.6852 39.1887C23.5529 39.3222 23.4124 39.4474 23.2554 39.5558L22.4372 38.1292C22.5199 38.0708 22.5943 38.0041 22.6686 37.9373C22.7347 37.8706 22.7926 37.8039 22.8421 37.7288L24.1976 38.5213C24.057 38.7549 23.8835 38.9802 23.6852 39.1887ZM24.4042 38.1376L23.057 37.3533C23.1314 37.1782 23.181 36.9946 23.1975 36.8027H24.7182C24.7017 37.2699 24.5942 37.7204 24.4042 38.1376ZM24.7182 36.3689H23.1893C23.181 36.3188 23.1728 36.2604 23.1562 36.2104L24.0157 35.8934L23.1066 36.0435C23.0818 35.9684 23.057 35.9017 23.024 35.8349L24.3711 35.0507C24.5694 35.4595 24.6851 35.9017 24.7182 36.3689ZM22.8008 35.4678C22.7595 35.4178 22.7182 35.3677 22.6686 35.326C22.586 35.2426 22.495 35.1675 22.4041 35.1091L23.2223 33.6825C23.3876 33.7993 23.5364 33.9328 23.6852 34.0829C23.8669 34.2665 24.024 34.4667 24.1644 34.6836L22.8008 35.4678Z" fill="#9F9FAA"/>
<path d="M19.0239 22.7366H19.1314C19.3214 22.7366 19.4041 22.6532 19.4041 22.453V21.7272C19.4041 21.5436 19.3297 21.4769 19.1479 21.4769H19.0157C18.8339 21.4769 18.7595 21.5436 18.7595 21.7272V22.453C18.7512 22.6532 18.8339 22.7366 19.0239 22.7366Z" fill="#9F9FAA"/>
<path d="M18.9993 24.764H19.1645C19.3464 24.764 19.4125 24.6972 19.4125 24.5137V23.6627C19.4125 23.4708 19.3381 23.3958 19.1398 23.3958H19.0158C18.8174 23.3958 18.743 23.4708 18.743 23.6627V24.5137C18.7513 24.6972 18.8174 24.764 18.9993 24.764Z" fill="#9F9FAA"/>
<path d="M27.4703 26.5243L27.2389 21.3101V21.3017L27.2306 21.2934L27.181 21.2433C27.1645 21.2266 27.148 21.2099 27.1314 21.1933C27.0984 21.1599 27.057 21.1349 27.024 21.1015C26.9496 21.0431 26.867 20.993 26.7926 20.9347C26.867 20.993 26.9414 21.0514 27.0075 21.1182C27.0405 21.1516 27.0736 21.1849 27.1066 21.2183C27.1231 21.235 27.1397 21.2517 27.1562 21.2684L27.1975 21.3101L26.9579 26.5243H24.5116H15.5116V21.3101L16.1645 25.8652H20.7926L20.9662 19.7833C20.8504 19.7833 20.7347 19.775 20.6273 19.775C19.7265 19.775 18.8752 19.8668 18.0901 20.042C17.71 20.1254 17.3381 20.2339 16.9909 20.3673C17.024 20.3423 17.0571 20.3089 17.0984 20.2839C17.1397 20.2589 17.1727 20.2255 17.2141 20.2005L17.3298 20.117C17.6521 19.9001 17.991 19.7166 18.3463 19.5581C18.7017 19.3996 19.0736 19.2661 19.462 19.1576C19.6521 19.0992 19.8422 19.0575 20.0405 19.0158C20.2389 18.9824 20.4289 18.9324 20.6273 18.9073C21.024 18.8406 21.4207 18.8072 21.8256 18.7739L22.429 18.7488C22.6273 18.7405 22.8339 18.7405 23.0322 18.7405C23.4372 18.7405 23.8421 18.7655 24.2471 18.8072C23.8504 18.7238 23.4455 18.6654 23.0405 18.632C22.8339 18.6153 22.6356 18.5986 22.429 18.5903L21.8174 18.5653C21.4124 18.557 20.9992 18.557 20.586 18.5903C20.3794 18.5986 20.1728 18.6237 19.9661 18.6487C19.7595 18.6737 19.5529 18.7071 19.3546 18.7405C18.5364 18.8906 17.7265 19.1493 16.9744 19.5581L16.8339 19.6332C16.7843 19.6582 16.743 19.6915 16.6934 19.7166C16.6025 19.775 16.5116 19.8334 16.4207 19.8918C16.2472 20.0169 16.0653 20.1421 15.9083 20.2923C15.743 20.4341 15.586 20.5926 15.4372 20.7594C15.3628 20.8429 15.2885 20.9347 15.2223 21.0264L15.1728 21.0932L15.1231 21.1682C15.1066 21.1933 15.0901 21.2183 15.0736 21.2433L15.0488 21.285L15.0323 21.3101L15.024 21.3184L15.0157 21.3351L15.0653 26.541H14.0405V29.2441H28.3545V26.5243H27.4703ZM18.1562 23.596C18.1562 23.329 18.2306 23.1455 18.3959 23.0287C18.2471 22.8952 18.1727 22.6866 18.1727 22.4197V21.7523C18.1727 21.4769 18.2471 21.2684 18.3876 21.1182C18.5281 20.9763 18.743 20.9013 19.0157 20.9013H19.1397C19.4041 20.9013 19.619 20.9763 19.7595 21.1182C19.9083 21.2684 19.9744 21.4769 19.9744 21.7439V22.4113C19.9744 22.6866 19.9 22.8868 19.7513 23.0204C19.9083 23.1371 19.9909 23.329 19.9909 23.5877V24.4803C19.9909 24.7557 19.9165 24.9642 19.776 25.1144C19.6355 25.2562 19.4207 25.3313 19.148 25.3313H18.9826C18.71 25.3313 18.5034 25.2562 18.3546 25.1144C18.2141 24.9726 18.1397 24.7557 18.1397 24.4803V23.596H18.1562ZM16.8174 21.552L16.9992 21.527C17.1397 21.502 17.1893 21.4686 17.2637 21.3601L17.3546 21.2266H17.7265V25.1728H17.1479V22.0442H16.8174V21.552ZM28.0901 28.6768L15.0984 28.4598V27.0166L27.2802 26.808H27.4703L28.0901 26.7996V28.6768Z" fill="#9F9FAA"/>
<path d="M24.9661 24.7056H25.1231C25.3049 24.7056 25.3628 24.6555 25.3628 24.497V21.9024C25.3628 21.7522 25.3049 21.7021 25.1231 21.7021H24.9661C24.7843 21.7021 24.7264 21.7522 24.7264 21.9024V24.497C24.7347 24.6555 24.7925 24.7056 24.9661 24.7056Z" fill="#9F9FAA"/>
<path d="M22.8836 23.0788C23.0324 23.0788 23.1729 23.0371 23.2473 22.9786V21.7356C23.2473 21.552 23.1812 21.4853 22.9993 21.4853H22.8754C22.6935 21.4853 22.6274 21.552 22.6274 21.7356V22.8201C22.6274 23.0037 22.6935 23.0788 22.8836 23.0788Z" fill="#9F9FAA"/>
<path d="M21.4124 25.8653H26.3794L26.5529 21.3768C26.3711 21.2266 26.0157 20.968 25.462 20.7094C24.305 20.1671 22.7265 19.8501 21.181 19.7833L21.4124 25.8653ZM24.2058 21.9859C24.2058 21.7356 24.2719 21.5437 24.4042 21.4102C24.5364 21.2767 24.7347 21.2099 24.9744 21.2099H25.1232C25.3711 21.2099 25.5612 21.2767 25.6934 21.4102C25.8256 21.5437 25.8917 21.7356 25.8917 21.9859V24.4219C25.8917 24.6722 25.8256 24.8641 25.6934 24.9976C25.5612 25.1311 25.3711 25.1978 25.1232 25.1978H24.9744C24.7264 25.1978 24.5281 25.1311 24.3959 24.9976C24.2637 24.8641 24.1975 24.6722 24.1975 24.4136V21.9859H24.2058ZM22.0322 21.7439C22.0322 21.4686 22.1066 21.26 22.2471 21.1182C22.3876 20.9763 22.6025 20.9013 22.8752 20.9013H22.9992C23.2636 20.9013 23.4785 20.9763 23.619 21.1182C23.7678 21.26 23.8339 21.4769 23.8339 21.7439V24.4887C23.8339 24.764 23.7595 24.9726 23.619 25.1227C23.4785 25.2645 23.2636 25.3396 22.9909 25.3396H22.867C22.5942 25.3396 22.3794 25.2729 22.2389 25.1311C22.0984 24.9893 22.024 24.7807 22.024 24.5137V23.8546H22.6107V24.5137C22.6107 24.6973 22.6769 24.764 22.8587 24.764H22.9826C23.1645 24.764 23.2306 24.6973 23.2306 24.5137V23.5793C23.0984 23.6294 22.9579 23.6544 22.8174 23.6544H22.7926C22.3132 23.6544 22.024 23.3624 22.024 22.8785V21.7439H22.0322Z" fill="#9F9FAA"/>
<path d="M36.0157 8.57879C35.1479 7.7028 34.214 6.91024 33.2223 6.20943V5.45857H35.4289V3.09756H27.3711C26.8917 3.09756 26.3628 2.86396 25.6934 2.56362C24.9744 2.23825 24.0653 1.83779 22.8917 1.61253H22.9578V0.936768H19.1562V1.61253H19.2223C18.2058 1.81276 17.4042 2.14647 16.6769 2.46351C15.867 2.80556 15.1645 3.1059 14.3546 3.1059H6.68513V5.46692H8.89176V6.27617C7.93306 6.96027 7.02399 7.73614 6.18102 8.59549C2.19753 12.6 0.00744629 17.9394 0.00744629 23.6292C0.00744629 29.319 2.19753 34.6668 6.18926 38.688C10.1727 42.7093 15.4702 44.9284 21.1066 44.9284C26.743 44.9284 32.0405 42.7176 36.024 38.688C40.0075 34.6668 42.2058 29.319 42.2058 23.6292C42.2058 17.9394 39.9992 12.6 36.0157 8.57879ZM39.5694 14.3854C39.71 14.6941 39.8339 15.0027 39.9578 15.3198L2.13968 15.5951C2.181 15.4866 2.22232 15.3782 2.26364 15.2697L39.5694 14.3854ZM14.3959 9.2045C14.5364 9.16275 14.6768 9.11272 14.8173 9.07103L14.8835 9.05433L14.7843 8.73731C14.7265 8.55375 14.7512 8.3619 14.8422 8.19503C14.9413 8.01148 15.1231 7.87801 15.3297 7.81957C15.3959 7.80293 15.462 7.79458 15.5281 7.79458C15.8752 7.79458 16.1727 8.02817 16.2471 8.35355L16.3215 8.67892C16.4206 8.65388 16.5529 8.62883 16.5942 8.62048C16.9 8.55375 17.214 8.49536 17.5281 8.44533L17.5942 8.43698L17.5447 8.1116C17.5116 7.92805 17.5612 7.73614 17.6686 7.57762C17.7926 7.41076 17.9744 7.30234 18.1893 7.26895C18.2223 7.2606 18.2554 7.2606 18.2967 7.2606C18.6851 7.2606 18.9992 7.54429 19.0322 7.91135L19.0653 8.23672C19.1645 8.22837 19.305 8.21168 19.3463 8.21168C19.6273 8.18669 19.9165 8.16999 20.1975 8.15329L20.3628 8.14494L20.3463 7.81122C20.338 7.61937 20.4041 7.43581 20.5364 7.29399C20.6769 7.14383 20.8752 7.0604 21.0984 7.05205C21.3132 7.05205 21.5116 7.13548 21.6521 7.28565C21.7843 7.42746 21.8587 7.61102 21.8504 7.79458L21.8422 8.12825C21.9413 8.12825 22.0818 8.13659 22.1232 8.13659C22.4124 8.14494 22.6934 8.16164 22.9744 8.18669L23.1397 8.20338L23.1645 7.86966C23.1893 7.50254 23.5198 7.21056 23.9 7.21056C23.9331 7.21056 23.9661 7.21056 23.9992 7.21891C24.2141 7.24396 24.3959 7.35238 24.5281 7.51924C24.6438 7.67775 24.6934 7.86131 24.6604 8.05316L24.6108 8.37854C24.7099 8.39524 24.8421 8.41193 24.8835 8.42028C25.1645 8.47032 25.4537 8.52041 25.7264 8.57879L25.8835 8.61213L25.9496 8.28676C26.0157 7.95309 26.3132 7.7195 26.6686 7.7195C26.7347 7.7195 26.8008 7.72779 26.8587 7.74449C27.0653 7.79458 27.2471 7.92805 27.3463 8.1116C27.4455 8.27847 27.4702 8.47867 27.4124 8.65388L27.3215 8.9709C27.4207 8.99595 27.5529 9.03763 27.5942 9.04598C27.7512 9.09602 27.9083 9.13776 28.057 9.1878V13.8348L14.3959 13.8431V9.2045ZM39.3298 13.8681L33.2306 13.8598V6.40965C35.8008 8.35355 37.9083 10.9148 39.3298 13.8681ZM17.0488 3.69824C18.0983 3.24773 19.2388 2.25493 21.057 2.25493C23.0157 2.25493 24.3215 2.83893 25.3628 3.30613C26.0901 3.6315 26.7182 3.91515 27.3711 3.91515H34.6108V4.62429H32.6355H32.5529V5.04143V13.8681H30.8422L30.462 7.80293V7.76118L30.4372 7.74449C30.0901 7.47755 29.7182 7.25225 29.3463 7.05205C29.6852 7.29399 30.0157 7.55264 30.305 7.84461L29.9248 13.8765H28.8091V8.77899H28.8009V8.77065L28.7347 8.74566C28.5611 8.68721 28.3876 8.62883 28.2141 8.57045L28.1314 8.5454V8.46197C28.1231 7.83627 27.6686 7.28565 27.024 7.12713C26.9 7.09374 26.7761 7.08544 26.6603 7.08544C26.1975 7.08544 25.7678 7.30234 25.5116 7.6694L25.3628 7.88636L25.2967 7.63607C25.1562 7.08545 24.6686 6.66829 24.0736 6.59321C24.0157 6.58486 23.9496 6.58486 23.8917 6.58486C23.3546 6.58486 22.8752 6.86849 22.6438 7.31904L22.5198 7.55264L22.4289 7.31069C22.2223 6.78506 21.6852 6.43468 21.0901 6.43468C20.495 6.43468 19.9579 6.79341 19.7595 7.32739L19.6686 7.57762L19.5446 7.34403C19.305 6.90189 18.8339 6.62655 18.3049 6.62655C18.2388 6.62655 18.1727 6.6349 18.1066 6.64325C17.5116 6.71833 17.024 7.14383 16.8918 7.69445L16.8339 7.95309L16.6851 7.73614C16.4372 7.37742 16.0075 7.16888 15.5446 7.16888C15.4207 7.16888 15.2885 7.18552 15.1645 7.21891C14.5198 7.38577 14.0736 7.93639 14.0736 8.5621V8.64553L13.9909 8.67057C13.9 8.69556 13.8174 8.72896 13.7264 8.76235L13.6603 8.78734V8.79569H13.6521V13.8431H12.4868L12.3545 7.94474C12.7595 7.59432 13.2223 7.2773 13.7099 7.01036C14.2388 6.70998 14.8008 6.45137 15.3794 6.23445C16.5364 5.80063 17.7513 5.51697 18.9827 5.35011C19.6025 5.26669 20.2223 5.21663 20.8421 5.1916C21.462 5.16657 22.0901 5.16657 22.7182 5.19994C23.9661 5.26669 25.214 5.44189 26.4289 5.76726C25.2306 5.38349 23.9909 5.14155 22.7347 5.02474C22.1066 4.96635 21.4785 4.93298 20.8421 4.93298C20.2141 4.92463 19.5777 4.94966 18.9496 4.99972C17.6852 5.10818 16.4289 5.34177 15.2141 5.73388C14.6025 5.93411 14.0074 6.17606 13.4289 6.46805C12.8504 6.76007 12.2967 7.09374 11.776 7.52759L11.6604 7.61937V7.78623L11.5281 13.8431H10.1066L9.62728 4.61595L14.3463 4.38235C15.3297 4.38235 16.1975 4.06532 17.0488 3.69824ZM8.89999 6.46805V13.8431L2.94133 13.8348C2.70993 14.2185 2.48679 14.7942 2.28844 15.2113C3.6686 11.7157 5.97437 8.70391 8.89999 6.46805ZM2.96612 31.8802C2.99091 31.9303 3.01571 31.972 3.04051 32.0221C3.01571 31.9804 2.99091 31.9303 2.96612 31.8802ZM3.26365 32.4642C3.36282 32.6478 3.46199 32.8397 3.56943 33.0232C3.46199 32.8314 3.36282 32.6478 3.26365 32.4642ZM6.19755 36.619C6.2306 36.6524 6.26365 36.6857 6.2967 36.7275C6.25536 36.6857 6.2306 36.6524 6.19755 36.619ZM6.51982 36.961C6.55287 36.9944 6.58598 37.0278 6.61903 37.0695C6.58598 37.0361 6.55287 36.9944 6.51982 36.961ZM6.63556 37.0862C6.66861 37.1196 6.69337 37.1446 6.72648 37.1779C6.69337 37.1446 6.66032 37.1112 6.63556 37.0862ZM6.743 37.1946C6.76776 37.2196 6.80081 37.253 6.82563 37.2781C6.80081 37.253 6.77605 37.228 6.743 37.1946ZM6.85044 37.3031C6.92478 37.3699 6.99094 37.4449 7.06528 37.5117C6.99094 37.4449 6.91655 37.3699 6.85044 37.3031ZM7.18101 37.6284C7.28845 37.7369 7.40413 37.837 7.51987 37.9455C7.40413 37.837 7.29669 37.7369 7.18101 37.6284ZM7.5281 37.9455C7.68512 38.0873 7.83391 38.2208 7.99093 38.3543C7.83391 38.2208 7.67689 38.0873 7.5281 37.9455ZM9.52813 39.5556C9.80083 39.7475 10.0736 39.9311 10.3546 40.1063C10.0653 39.9311 9.79259 39.7392 9.52813 39.5556ZM11.3794 40.7153C11.4372 40.7487 11.4951 40.7821 11.5612 40.8154L11.2058 32.2474V32.239L11.1975 32.2307L11.148 32.1806C11.1314 32.1639 11.1149 32.1472 11.0984 32.1305C11.0653 32.0972 11.024 32.0721 10.9909 32.0388C10.9165 31.9804 10.8339 31.9303 10.7595 31.8719C10.8339 31.9303 10.9083 31.9887 10.9744 32.0554C11.0075 32.0888 11.0405 32.1222 11.0736 32.1556C11.0901 32.1723 11.1066 32.189 11.1231 32.2056L11.1645 32.2474L11.1066 33.4904L10.8091 40.3732C10.6521 40.2815 10.5033 40.1897 10.3546 40.0896V39.0134L9.04878 39.1886C8.68511 38.9216 8.33802 38.638 7.99916 38.3459L8.11489 36.4438L6.20578 36.6023C5.85869 36.2185 5.5281 35.8264 5.20579 35.4176L5.33802 33.8575L4.13968 33.9493C4.42893 34.3998 4.73472 34.8336 5.05703 35.2507C4.51158 34.5416 4.01571 33.7908 3.56943 33.0149L5.39588 33.1317L5.5529 31.3296L5.70991 33.1484L8.29667 33.3152L8.42064 31.3296L8.54461 33.3319L10.338 33.4487V32.239C10.2141 32.1639 9.00744 31.046 6.75124 30.9876C5.70167 30.9542 4.57769 31.1378 3.88348 31.3296C3.9248 31.2963 3.95786 31.2712 3.99918 31.2379C4.02397 31.2128 4.05703 31.1961 4.08182 31.1711L4.17274 31.1127C4.40414 30.9542 4.66034 30.8124 4.9248 30.6956C5.18927 30.5788 5.46199 30.4787 5.74296 30.4036C5.88345 30.3619 6.024 30.3285 6.1645 30.2951C6.30499 30.2701 6.45372 30.2367 6.59422 30.2117C6.8835 30.1616 7.18101 30.1366 7.47852 30.1116L7.92482 30.0866C8.07355 30.0782 8.22234 30.0782 8.37107 30.0782C8.66858 30.0782 8.96615 30.0949 9.26367 30.1282C8.97439 30.0699 8.67687 30.0282 8.37936 29.9948C8.23057 29.9781 8.08184 29.9697 7.93306 29.9614L7.48676 29.9447C7.18924 29.9364 6.8835 29.9364 6.57769 29.9614C6.42896 29.9697 6.27189 29.9864 6.12316 30.0031C5.97437 30.0282 5.81735 30.0449 5.66862 30.0699C5.0653 30.1783 4.47026 30.3702 3.91654 30.6706L3.8091 30.729C3.77604 30.7457 3.74299 30.7706 3.70992 30.7873C3.64381 30.8291 3.57769 30.8708 3.51158 30.9209C3.37935 31.0126 3.25538 31.1044 3.13141 31.2128C3.01571 31.313 2.90827 31.4214 2.80083 31.5382C2.82563 31.5883 2.85043 31.6466 2.87521 31.6967C1.5777 28.9937 0.842156 25.9652 0.842156 22.7616C0.842156 20.3171 1.26364 17.9728 2.04877 15.8036L40.2719 16.1958C40.9661 18.2564 41.338 20.4673 41.338 22.7616C41.338 26.5826 40.2967 30.1616 38.495 33.2151C38.5364 33.1484 38.5777 33.0816 38.6108 33.0149V32.2223C38.4868 32.1472 37.2802 31.0293 35.024 30.9709C33.9744 30.9375 32.8504 31.1211 32.1562 31.313C32.1975 31.2796 32.2306 31.2545 32.2719 31.2212C32.2967 31.1961 32.3297 31.1794 32.3546 31.1545L32.4455 31.096C32.6769 30.9375 32.9331 30.7957 33.1975 30.6789C33.462 30.5621 33.7347 30.462 34.0157 30.3869C34.1562 30.3452 34.2967 30.3118 34.4372 30.2785C34.5777 30.2534 34.7264 30.22 34.8669 30.195C35.1562 30.1449 35.4537 30.12 35.7512 30.0949L36.1975 30.0699C36.3463 30.0615 36.4951 30.0615 36.6438 30.0615C36.9414 30.0615 37.2389 30.0782 37.5364 30.1116C37.2471 30.0532 36.9496 30.0115 36.6521 29.9781C36.5033 29.9614 36.3546 29.9531 36.2058 29.9447L35.7595 29.928C35.462 29.9197 35.1562 29.9197 34.8504 29.9447C34.7017 29.9531 34.5447 29.9697 34.3959 29.9864C34.2471 30.0115 34.0901 30.0282 33.9413 30.0532C33.338 30.1616 32.743 30.3535 32.1892 30.6539L32.0818 30.7123C32.0488 30.729 32.0157 30.754 31.9826 30.7706C31.9165 30.8124 31.8504 30.8541 31.7843 30.9042C31.6521 30.9959 31.5281 31.0877 31.4041 31.1961C31.2802 31.3046 31.1645 31.413 31.0571 31.5382C30.9992 31.5966 30.9496 31.6633 30.9 31.7301L30.8587 31.7802L30.8256 31.8302C30.8174 31.8469 30.8008 31.8636 30.7926 31.8886L30.7761 31.922L30.7678 31.9387L30.7595 31.947L30.7512 31.9637L30.7843 40.6903C27.9083 42.2754 24.6025 43.1764 21.0901 43.1764C17.5777 43.2181 14.2637 42.3171 11.3794 40.7153ZM10.8008 40.3816C10.8587 40.4149 10.9165 40.4483 10.9744 40.4817C10.9248 40.4567 10.8587 40.4233 10.8008 40.3816ZM37.0405 35.3843C36.7182 35.793 36.3876 36.1935 36.0405 36.5773C36.0736 36.5355 36.1149 36.4939 36.148 36.4605L34.1314 36.6357L34.2388 38.3376C34.2802 38.3042 34.3215 38.2625 34.3628 38.2292C34.0074 38.5378 33.6438 38.8382 33.2719 39.1218V39.0884L31.9083 39.3471L31.9744 40.0312C32.1149 39.9394 32.2471 39.8477 32.3876 39.7559C32.2058 39.881 32.024 39.9978 31.8422 40.1146C31.6438 40.2398 31.4372 40.3649 31.2306 40.4817C31.2141 40.4901 31.1975 40.4984 31.1893 40.5067C31.1975 40.4984 31.2141 40.49 31.2223 40.49C31.2141 40.4984 31.1975 40.5067 31.1893 40.5067V31.9971L31.305 32.9815L33.6686 33.1317L33.7843 31.3296L33.9 33.1484L36.4537 33.3152L36.6438 31.3296L36.8339 33.3319L38.3711 33.432C38.2471 33.6323 38.1232 33.8325 37.9992 34.0244C38.0984 33.8742 38.1975 33.7157 38.2967 33.5655L36.8752 33.6573L37.0405 35.3843ZM37.9992 34.041C37.9744 34.0744 37.9579 34.1078 37.933 34.1412C37.9579 34.1078 37.9827 34.0744 37.9992 34.041ZM37.8504 34.2746C37.8256 34.308 37.8091 34.3414 37.7843 34.3748C37.8008 34.3414 37.8256 34.308 37.8504 34.2746ZM37.776 34.3831C37.6769 34.5333 37.5694 34.6834 37.462 34.8336C37.5611 34.6834 37.6686 34.5333 37.776 34.3831ZM37.3711 34.9504C37.3463 34.9838 37.3215 35.0088 37.305 35.0422C37.3215 35.0172 37.3463 34.9838 37.3711 34.9504ZM37.2884 35.0672C37.2636 35.1006 37.2471 35.1256 37.2223 35.159C37.2389 35.1256 37.2636 35.0922 37.2884 35.0672ZM37.2058 35.1757C37.181 35.2091 37.1562 35.234 37.1314 35.2674C37.1562 35.234 37.181 35.2007 37.2058 35.1757ZM37.1231 35.2758C37.0984 35.3091 37.0736 35.3425 37.0405 35.3843C37.0736 35.3509 37.0984 35.3175 37.1231 35.2758ZM33.2802 39.1135C33.0488 39.2887 32.8174 39.4639 32.5777 39.6307C32.8091 39.4639 33.0488 39.2887 33.2802 39.1135ZM31.1893 40.5067C31.1232 40.5401 31.0571 40.5818 30.9992 40.6152C31.0571 40.5818 31.1232 40.5485 31.1893 40.5067ZM34.3793 38.2125C34.4207 38.1791 34.4537 38.1457 34.495 38.1123C34.4537 38.1457 34.4124 38.1791 34.3793 38.2125ZM34.5033 38.104C34.5859 38.0372 34.6603 37.9622 34.743 37.8871C34.6603 37.9622 34.5859 38.0289 34.5033 38.104ZM34.7513 37.8787C34.7843 37.8454 34.8256 37.812 34.8587 37.7786C34.8256 37.812 34.7926 37.8454 34.7513 37.8787ZM34.8752 37.7703C34.9496 37.6952 35.0322 37.6201 35.1066 37.545C35.024 37.6201 34.9496 37.6952 34.8752 37.7703ZM35.1149 37.5367C35.1562 37.5033 35.1893 37.4616 35.2306 37.4282C35.1893 37.4616 35.1562 37.495 35.1149 37.5367ZM35.8173 36.8192C35.8917 36.7358 35.9661 36.6607 36.0405 36.5773C35.9661 36.6607 35.8917 36.7441 35.8173 36.8192ZM35.4702 37.1779C35.5446 37.1029 35.619 37.0194 35.6934 36.9444C35.619 37.0278 35.5446 37.1029 35.4702 37.1779Z" fill="#9F9FAA"/>
<path d="M24.1313 12.5668L24.2388 11.6074L22.3462 11.7325L22.528 12.5751L24.1313 12.5668Z" fill="#9F9FAA"/>
<path d="M26.4785 12.5667V11.4488L24.6521 11.574L24.7595 12.5667H26.4785Z" fill="#9F9FAA"/>
<path d="M26.9826 10.9483L26.9743 10.94L26.9412 10.9149C26.9329 10.9066 26.9247 10.8982 26.9082 10.8899C26.8834 10.8732 26.8668 10.8565 26.8421 10.8398C26.8007 10.8065 26.7512 10.7731 26.7016 10.7481C26.7429 10.7815 26.7842 10.8148 26.8256 10.8565C26.8421 10.8732 26.8668 10.8982 26.8834 10.9149C26.8917 10.9233 26.8999 10.9316 26.9082 10.9483L26.9329 10.9733L26.7759 12.9089H22.123V10.8231L22.2139 11.2653L24.2387 11.3571L24.3627 10.2308C24.3545 10.2308 24.3545 10.2308 24.3462 10.2308C23.7346 10.2141 23.0734 10.3143 22.6685 10.431C22.6933 10.4143 22.7098 10.3977 22.7346 10.381C22.7512 10.3727 22.7677 10.356 22.7842 10.3476L22.8338 10.3143C22.9743 10.2225 23.1231 10.1391 23.2718 10.0723C23.4288 10.0055 23.5858 9.94715 23.7512 9.89712C23.8338 9.87207 23.9165 9.85537 23.9991 9.83038C24.0817 9.81369 24.1644 9.79699 24.2553 9.78029C24.4289 9.7553 24.5941 9.7386 24.7677 9.72191L25.0321 9.71356C25.123 9.71356 25.2057 9.70521 25.2966 9.70521C25.4701 9.70521 25.6437 9.71356 25.8173 9.73026C25.6437 9.69686 25.4701 9.67187 25.2966 9.65517C25.2057 9.64682 25.123 9.63848 25.0321 9.63848L24.7677 9.63013C24.5941 9.63013 24.4123 9.63013 24.2387 9.63848C24.1479 9.63848 24.0652 9.65517 23.9743 9.66352C23.8834 9.68022 23.8007 9.68851 23.7098 9.70521C23.3545 9.77194 23.0073 9.88042 22.6851 10.0556L22.6272 10.089C22.6107 10.0973 22.5859 10.114 22.5693 10.1224C22.528 10.1474 22.4949 10.1724 22.4537 10.1974C22.3793 10.2475 22.3049 10.3059 22.2305 10.3727C22.1561 10.431 22.09 10.4978 22.0239 10.5729C21.9908 10.6062 21.9578 10.6479 21.933 10.6897L21.9082 10.723L21.8834 10.7564C21.8751 10.7648 21.8669 10.7815 21.8586 10.7898L21.8503 10.8065L21.842 10.8148V10.8231V10.8315L21.8669 13.1842H26.7594H26.7759H27.1231L27.1148 13.009L26.9826 10.9483Z" fill="#9F9FAA"/>
<path d="M24.6272 11.3487L26.4784 11.4322V10.9316C26.4123 10.8899 25.7429 10.2725 24.495 10.2057L24.6272 11.3487Z" fill="#9F9FAA"/>
<path d="M5.08185 26.833L5.20581 25.2813L3.5116 25.3897L3.70994 26.8664L5.08185 26.833Z" fill="#9F9FAA"/>
<path d="M7.95792 26.7579L8.08189 25.0977L5.90002 25.2395L6.01576 26.808L7.95792 26.7579Z" fill="#9F9FAA"/>
<path d="M5.37121 23.0954L3.23071 23.2289L3.37947 24.4052L5.26377 24.5304L5.37121 23.0954Z" fill="#9F9FAA"/>
<path d="M10.3381 26.6911V24.9559L8.75134 25.0559L8.87531 26.7329L10.3381 26.6911Z" fill="#9F9FAA"/>
<path d="M10.3378 22.7701L8.58582 22.8868L8.72631 24.7473L10.3378 24.8558V22.7701Z" fill="#9F9FAA"/>
<path d="M8.24729 22.9036L5.73486 23.0704L5.84231 24.5638L8.11503 24.7139L8.24729 22.9036Z" fill="#9F9FAA"/>
<path d="M11.206 21.6187V21.6104L11.1977 21.602L11.1481 21.552C11.1316 21.5353 11.1151 21.5186 11.0986 21.5019C11.0655 21.4685 11.0242 21.4435 10.9911 21.4102C10.9167 21.3517 10.8341 21.3017 10.7597 21.2433C10.8341 21.3017 10.9085 21.3601 10.9746 21.4268C11.0076 21.4602 11.0407 21.4936 11.0737 21.5269C11.0903 21.5436 11.1068 21.5603 11.1233 21.577L11.1647 21.6187L10.9002 27.5588H2.95805V21.3684L3.09854 22.1944L5.43739 22.3445L5.56136 20.701L5.68531 22.3612L8.28861 22.5281L8.4291 20.701L8.5696 22.5531L10.3547 22.6699V21.6104C10.2308 21.5353 9.02419 20.4173 6.76798 20.3589C5.71837 20.3255 4.59441 20.5091 3.90019 20.701C3.94152 20.6676 3.97458 20.6426 4.0159 20.6092C4.04069 20.5842 4.07375 20.5675 4.09855 20.5425L4.18945 20.4841C4.42086 20.3256 4.67706 20.1837 4.94152 20.067C5.20598 19.9501 5.47871 19.85 5.75971 19.7749C5.9002 19.7332 6.0407 19.6998 6.18119 19.6665C6.32168 19.6415 6.47047 19.6081 6.61096 19.5831C6.90019 19.533 7.1977 19.508 7.49522 19.483L7.94152 19.4579C8.0903 19.4496 8.23903 19.4496 8.38782 19.4496C8.68533 19.4496 8.98284 19.4663 9.28036 19.4996C8.99108 19.4412 8.69357 19.3995 8.39605 19.3661C8.24732 19.3495 8.09854 19.3411 7.94981 19.3328L7.50351 19.3161C7.20599 19.3077 6.90019 19.3077 6.59444 19.3328C6.44565 19.3411 6.28863 19.3578 6.13985 19.3745C5.99112 19.3995 5.8341 19.4162 5.68531 19.4412C5.08202 19.5497 4.48697 19.7416 3.93326 20.0419L3.82582 20.1003C3.79276 20.117 3.7597 20.142 3.72664 20.1587C3.66053 20.2004 3.59441 20.2421 3.52829 20.2922C3.39606 20.384 3.2721 20.4757 3.14813 20.5842C3.02416 20.6927 2.90846 20.8011 2.80102 20.9263C2.74317 20.9846 2.69358 21.0514 2.644 21.1181L2.60268 21.1682L2.56962 21.2182C2.56135 21.2349 2.54483 21.2516 2.53656 21.2766L2.52003 21.31L2.51176 21.3267L2.5035 21.3351L2.49524 21.3517L2.5283 27.9926H10.8837H10.9085H11.4952L11.4787 27.6923L11.206 21.6187Z" fill="#9F9FAA"/>
<path d="M17.7182 12.5668L17.8257 11.6074L15.9331 11.7325L16.1067 12.5751L17.7182 12.5668Z" fill="#9F9FAA"/>
<path d="M20.0571 12.5667V11.4488L18.2307 11.574L18.3382 12.5667H20.0571Z" fill="#9F9FAA"/>
<path d="M20.5694 10.9483L20.5612 10.94L20.5282 10.9149C20.5199 10.9066 20.5116 10.8982 20.495 10.8899C20.4703 10.8732 20.4538 10.8565 20.4289 10.8398C20.3876 10.8065 20.338 10.7731 20.2885 10.7481C20.3298 10.7815 20.3711 10.8148 20.4124 10.8565C20.4289 10.8732 20.4538 10.8982 20.4703 10.9149C20.4785 10.9233 20.4868 10.9316 20.495 10.9483L20.5199 10.9733L20.3628 12.9089H15.7099V10.8231L15.8009 11.2653L17.8257 11.3571L17.9496 10.2308C17.9413 10.2308 17.9413 10.2308 17.9331 10.2308C17.3215 10.2141 16.6604 10.3143 16.2554 10.431C16.2802 10.4143 16.2967 10.3977 16.3215 10.381C16.338 10.3727 16.3545 10.356 16.3711 10.3476L16.4207 10.3143C16.5612 10.2225 16.7099 10.1391 16.8587 10.0723C17.0157 10.0055 17.1728 9.94715 17.3381 9.89712C17.4207 9.87207 17.5033 9.85537 17.586 9.83038C17.6686 9.81369 17.7513 9.79699 17.8422 9.78029C18.0157 9.7553 18.181 9.7386 18.3546 9.72191L18.619 9.71356C18.71 9.71356 18.7926 9.70521 18.8835 9.70521C19.057 9.70521 19.2306 9.71356 19.4041 9.73026C19.2306 9.69686 19.057 9.67187 18.8835 9.65517C18.7926 9.64682 18.71 9.63848 18.619 9.63848L18.3546 9.63013C18.181 9.63013 17.9992 9.63013 17.8257 9.63848C17.7347 9.63848 17.6521 9.65517 17.5612 9.66352C17.4703 9.68022 17.3876 9.68851 17.2967 9.70521C16.9413 9.77194 16.5943 9.88042 16.2719 10.0556L16.2141 10.089C16.1975 10.0973 16.1728 10.114 16.1562 10.1224C16.1149 10.1474 16.0819 10.1724 16.0405 10.1974C15.9661 10.2475 15.8918 10.3059 15.8174 10.3727C15.743 10.431 15.6769 10.4978 15.6108 10.5729C15.5777 10.6062 15.5446 10.6479 15.5199 10.6897L15.4951 10.723L15.4703 10.7564C15.462 10.7648 15.4538 10.7815 15.4455 10.7898L15.4372 10.8065L15.429 10.8148V10.8231V10.8315L15.4538 13.1842H20.3463H20.3628H20.7099L20.7017 13.009L20.5694 10.9483Z" fill="#9F9FAA"/>
<path d="M20.0572 10.9399C19.9911 10.8982 19.3217 10.2808 18.0737 10.2141L18.1977 11.3571L20.0489 11.4405V10.9399H20.0572Z" fill="#9F9FAA"/>
<path d="M33.3627 26.833L33.4867 25.2813L31.7925 25.3897L31.9908 26.8664L33.3627 26.833Z" fill="#9F9FAA"/>
<path d="M36.2387 26.7579L36.3627 25.0977L34.1809 25.2395L34.2966 26.808L36.2387 26.7579Z" fill="#9F9FAA"/>
<path d="M33.6521 23.0954L31.5116 23.2289L31.6603 24.4052L33.5446 24.5304L33.6521 23.0954Z" fill="#9F9FAA"/>
<path d="M38.6189 26.6911V24.9559L37.0322 25.0559L37.1561 26.7329L38.6189 26.6911Z" fill="#9F9FAA"/>
<path d="M38.619 22.7701L36.8669 22.8868L37.0074 24.7473L38.619 24.8558V22.7701Z" fill="#9F9FAA"/>
<path d="M36.5281 22.9036L34.0157 23.0704L34.1314 24.5638L36.3959 24.7139L36.5281 22.9036Z" fill="#9F9FAA"/>
<path d="M39.1563 28.026H39.1811H39.7678L39.7513 27.7257L39.4786 21.6187V21.6104L39.4703 21.602L39.4207 21.552C39.4042 21.5353 39.3877 21.5186 39.3711 21.5019C39.3381 21.4685 39.2968 21.4435 39.2637 21.4102C39.1893 21.3517 39.1067 21.3017 39.0323 21.2433C39.1067 21.3017 39.1811 21.3601 39.2472 21.4268C39.2802 21.4602 39.3133 21.4936 39.3463 21.5269C39.3629 21.5436 39.3794 21.5603 39.396 21.577L39.4372 21.6187L39.1728 27.5588H31.2306V21.3768L31.3711 22.2027L33.71 22.3529L33.8339 20.7094L33.9579 22.3696L36.5612 22.5364L36.7018 20.7094L36.8422 22.5614L38.6273 22.6783V21.6104C38.5034 21.5353 37.2968 20.4173 35.0406 20.3589C33.991 20.3255 32.867 20.5091 32.1728 20.701C32.2141 20.6676 32.2472 20.6426 32.2885 20.6092C32.3133 20.5842 32.3464 20.5675 32.3711 20.5425L32.462 20.4841C32.6935 20.3256 32.9496 20.1837 33.2141 20.067C33.4786 19.9501 33.7513 19.85 34.0323 19.7749C34.1728 19.7332 34.3133 19.6998 34.4538 19.6665C34.5943 19.6415 34.7431 19.6081 34.8836 19.5831C35.1728 19.533 35.4703 19.508 35.7679 19.483L36.2141 19.4579C36.3629 19.4496 36.5116 19.4496 36.6604 19.4496C36.9579 19.4496 37.2554 19.4663 37.553 19.4996C37.2637 19.4412 36.9662 19.3995 36.6686 19.3661C36.5199 19.3495 36.3711 19.3411 36.2224 19.3328L35.7761 19.3161C35.4786 19.3077 35.1728 19.3077 34.867 19.3328C34.7182 19.3411 34.5612 19.3578 34.4124 19.3745C34.2637 19.3995 34.1067 19.4162 33.9579 19.4412C33.3546 19.5497 32.7596 19.7416 32.2059 20.0419L32.0984 20.1003C32.0654 20.117 32.0323 20.142 31.9992 20.1587C31.9331 20.2004 31.867 20.2421 31.8009 20.2922C31.6687 20.384 31.5447 20.4757 31.4207 20.5842C31.2967 20.6927 31.1811 20.8011 31.0736 20.9263C31.0158 20.9846 30.9662 21.0514 30.9166 21.1181L30.8753 21.1682L30.8422 21.2182C30.834 21.2349 30.8175 21.2516 30.8092 21.2766L30.7926 21.31L30.7843 21.3267L30.7761 21.3351L30.7678 21.3517L30.8009 27.9926H39.1563V28.026Z" fill="#9F9FAA"/>
</g>
</g>
</g>
</g>
<defs>
<clipPath id="clip0_1_72">
<rect width="121" height="44" fill="white" transform="translate(0.00744629 0.928589)"/>
</clipPath>
</defs>
</svg>
