<svg width="29" height="29" viewBox="0 0 29 29" fill="none" xmlns="http://www.w3.org/2000/svg">
<g clip-path="url(#clip0_272_68)">
<path fill-rule="evenodd" clip-rule="evenodd" d="M5.24092 -0.000976562H23.4001C26.1737 -0.000976562 28.4222 2.24753 28.4222 5.02119V23.1804C28.4222 25.954 26.1737 28.2025 23.4001 28.2025H5.24092C2.46725 28.2025 0.21875 25.954 0.21875 23.1804V5.02119C0.21875 2.24753 2.46725 -0.000976562 5.24092 -0.000976562Z" fill="#9F9FAA"/>
<path d="M13.7471 7.57935H20.1234C20.5322 7.57935 20.8637 7.91079 20.8637 8.31964V9.46779C20.8637 9.87664 20.5322 10.2081 20.1234 10.2081H13.7471C13.3382 10.2081 13.0068 9.87664 13.0068 9.46779V8.31964C13.0068 7.91079 13.3382 7.57935 13.7471 7.57935Z" fill="#020617"/>
<path d="M13.7532 12.8154H18.8147C19.2236 12.8154 19.555 13.1468 19.555 13.5557V14.6987C19.555 15.1075 19.2236 15.439 18.8147 15.439H13.7532C13.3443 15.439 13.0129 15.1075 13.0129 14.6987V13.5557C13.0129 13.1468 13.3443 12.8154 13.7532 12.8154Z" fill="#020617"/>
<path d="M20.8678 18.7878V19.9322C20.8678 20.3409 20.5361 20.6725 20.1275 20.6725H10.673C9.11664 20.573 7.87294 19.3293 7.77344 17.7729V8.26934C7.77344 7.8607 8.1051 7.52905 8.51374 7.52905H9.6476C10.0562 7.52905 10.3879 7.8607 10.3879 8.26934V16.1502C10.3879 17.2139 11.1527 18.0475 12.2164 18.0475H20.1275C20.5361 18.0475 20.8678 18.3791 20.8678 18.7878Z" fill="#020617"/>
</g>
<defs>
<clipPath id="clip0_272_68">
<rect width="29" height="29" fill="white"/>
</clipPath>
</defs>
</svg>
