<svg width="114" height="19" viewBox="0 0 114 19" fill="none" xmlns="http://www.w3.org/2000/svg">
<g clip-path="url(#clip0_431_97)">
<mask id="mask0_431_97" style="mask-type:luminance" maskUnits="userSpaceOnUse" x="0" y="0" width="114" height="19">
<path d="M113.417 0.928589H0.00732422V18.2822H113.417V0.928589Z" fill="white"/>
</mask>
<g mask="url(#mask0_431_97)">
<path d="M102.211 15.2959H105.203C108.243 15.2959 110.709 12.7431 110.709 9.60132C110.709 6.4595 108.235 3.91495 105.203 3.91495H102.211V15.2959ZM105.203 17.7995H99.5026V1.41132H105.203C109.658 1.41132 113.417 5.16677 113.417 9.6095C113.417 14.0522 109.658 17.8077 105.203 17.8077V17.7995ZM87.4558 9.06132H91.5954C93.0426 9.06132 94.1341 7.95677 94.1341 6.49222C94.1341 5.02768 93.0426 3.92313 91.5954 3.92313H87.4558V9.05313V9.06132ZM97.352 17.7913H94.3929L90.9648 11.565H87.4558V17.7913H84.7554V1.4195H91.5954C94.5788 1.4195 96.8346 3.59586 96.8346 6.49222C96.8346 9.73222 94.2312 11.0413 93.6733 11.2868L97.3601 17.7913H97.352ZM63.1682 17.7913H60.8558L52.0754 6.30404V17.7913H49.375V1.4195H51.6388L60.4678 12.915V1.4195H63.1682V17.7913ZM41.7265 17.7913L47.7418 1.4195H43.3839L39.5112 12.7431L35.6384 1.4195H31.2805L37.2878 17.7831H41.7426L41.7265 17.7913ZM13.3558 1.4195V4.99495H8.64222V17.7913H4.72094V4.99495H0.00732422V1.4195H13.3558ZM24.6184 1.4195H20.6971V5.38768H24.6184V1.4195ZM26.2839 10.6322V1.4195H30.2052V11.254C30.2052 15.3368 26.9792 18.2659 22.6537 18.2659C18.5626 18.2659 15.1022 15.5904 15.1022 11.254V1.4195H19.0235V10.6322C19.0235 13.054 20.5758 14.4859 22.6537 14.4859C24.7316 14.4859 26.2839 12.964 26.2839 10.6322ZM73.978 18.2822C69.038 18.2822 65.1652 14.4695 65.1652 9.60132C65.1652 4.73313 69.038 0.928589 73.978 0.928589C78.918 0.928589 82.7907 4.74132 82.7907 9.6095C82.7907 14.4777 78.918 18.2904 73.978 18.2822ZM73.978 3.43222C70.558 3.43222 67.8818 6.14041 67.8818 9.60132C67.8818 13.0622 70.558 15.7704 73.978 15.7704C77.398 15.7704 80.0741 13.0622 80.0741 9.60132C80.0741 6.14041 77.398 3.43222 73.978 3.43222Z" fill="#EBEDEF"/>
</g>
</g>
<defs>
<clipPath id="clip0_431_97">
<rect width="114" height="18" fill="white" transform="translate(0.00732422 0.928589)"/>
</clipPath>
</defs>
</svg>
