<svg width="114" height="19" viewBox="0 0 114 19" fill="none" xmlns="http://www.w3.org/2000/svg">
<g clip-path="url(#clip0_1_66)">
<mask id="mask0_1_66" style="mask-type:luminance" maskUnits="userSpaceOnUse" x="0" y="0" width="114" height="19">
<path d="M113.417 0.928589H0.00744629V18.2822H113.417V0.928589Z" fill="white"/>
</mask>
<g mask="url(#mask0_1_66)">
<path d="M102.211 15.2959H105.203C108.243 15.2959 110.709 12.7431 110.709 9.60132C110.709 6.4595 108.235 3.91495 105.203 3.91495H102.211V15.2959ZM105.203 17.7995H99.5028V1.41132H105.203C109.658 1.41132 113.417 5.16677 113.417 9.6095C113.417 14.0522 109.658 17.8077 105.203 17.8077V17.7995ZM87.456 9.06132H91.5955C93.0428 9.06132 94.1343 7.95677 94.1343 6.49223C94.1343 5.02768 93.0428 3.92313 91.5955 3.92313H87.456V9.05313V9.06132ZM97.3521 17.7913H94.393L90.9649 11.565H87.456V17.7913H84.7555V1.4195H91.5955C94.5789 1.4195 96.8347 3.59586 96.8347 6.49223C96.8347 9.73222 94.2313 11.0413 93.6734 11.2868L97.3602 17.7913H97.3521ZM63.1683 17.7913H60.856L52.0755 6.30404V17.7913H49.3751V1.4195H51.6389L60.4679 12.915V1.4195H63.1683V17.7913ZM41.7266 17.7913L47.7419 1.4195H43.384L39.5113 12.7431L35.6385 1.4195H31.2806L37.2879 17.7831H41.7428L41.7266 17.7913ZM13.356 1.4195V4.99495H8.64234V17.7913H4.72106V4.99495H0.00744629V1.4195H13.356ZM24.6185 1.4195H20.6972V5.38768H24.6185V1.4195ZM26.284 10.6322V1.4195H30.2053V11.254C30.2053 15.3368 26.9794 18.2659 22.6538 18.2659C18.5628 18.2659 15.1023 15.5904 15.1023 11.254V1.4195H19.0236V10.6322C19.0236 13.054 20.576 14.4859 22.6538 14.4859C24.7317 14.4859 26.284 12.964 26.284 10.6322ZM73.9781 18.2822C69.0381 18.2822 65.1653 14.4695 65.1653 9.60132C65.1653 4.73313 69.0381 0.928589 73.9781 0.928589C78.9181 0.928589 82.7909 4.74132 82.7909 9.6095C82.7909 14.4777 78.9181 18.2904 73.9781 18.2822ZM73.9781 3.43222C70.5581 3.43222 67.8819 6.14041 67.8819 9.60132C67.8819 13.0622 70.5581 15.7704 73.9781 15.7704C77.3981 15.7704 80.0743 13.0622 80.0743 9.60132C80.0743 6.14041 77.3981 3.43222 73.9781 3.43222Z" fill="#9F9FAA"/>
</g>
</g>
<defs>
<clipPath id="clip0_1_66">
<rect width="114" height="18" fill="white" transform="translate(0.00744629 0.928589)"/>
</clipPath>
</defs>
</svg>
