<svg width="250" height="76" viewBox="0 0 250 76" fill="none" xmlns="http://www.w3.org/2000/svg">
<g clip-path="url(#clip0_272_73)">
<path d="M249.142 38.0903C249.142 50.8585 241.631 61.0517 229.399 61.0517C217.167 61.0517 209.657 50.8585 209.657 38.0903C209.442 25.322 217.06 15.1289 229.399 15.1289C241.738 15.1289 249.142 25.322 249.142 38.0903ZM234.013 35.8371C228.541 24.7856 222.961 18.5624 219.957 20.1718C217.06 21.4594 218.777 29.6139 224.356 40.4508C229.936 51.5023 235.408 57.7255 238.412 56.2233C241.416 54.8285 239.7 46.9959 234.013 35.8371Z" fill="#9F9FAA"/>
<path d="M212.447 60.5142H192.704C193.026 59.9778 193.026 59.334 193.026 58.6902C193.026 55.6859 188.52 47.6387 185.301 42.8104V48.819C185.301 54.8275 185.515 59.0121 188.305 60.5142H169.528C172.425 58.7975 172.533 54.9348 172.533 49.2481V25.8576C172.533 20.1709 172.318 16.8447 169.528 15.9863H188.091C200.966 15.9863 207.189 20.8147 207.189 29.1838C207.189 34.8705 204.292 39.3769 197.318 41.4155L202.897 49.6773C207.189 56.1151 208.906 58.1537 212.447 60.5142ZM194.099 29.1838C194.099 21.7803 191.953 18.2395 185.194 18.2395V40.0207C192.168 40.0207 194.099 36.5872 194.099 29.1838Z" fill="#9F9FAA"/>
<path d="M149.892 15.8789H168.669C165.772 17.5956 165.665 21.4583 165.665 27.145V44.2051C165.665 52.2523 161.158 61.1579 148.283 61.1579C135.407 61.1579 130.901 52.2523 130.901 44.0978V27.145C130.901 21.4583 130.686 17.3811 127.896 15.8789H146.673C143.776 17.5956 143.669 21.4583 143.669 27.145V50.6429C143.669 60.7287 153.218 60.7287 153.218 50.6429V27.145C153.111 21.4583 152.682 17.3811 149.892 15.8789Z" fill="#9F9FAA"/>
<path d="M105.258 58.1536V27.145C105.258 21.4583 105.472 17.3811 108.262 15.8789H89.4854C92.3823 17.5956 92.4896 21.4583 92.4896 27.145V49.1407C92.4896 54.8274 92.275 58.9047 89.4854 60.4068H127.575V40.0205C127.575 40.0205 122.211 57.5098 105.258 58.1536Z" fill="#9F9FAA"/>
<mask id="mask0_272_73" style="mask-type:luminance" maskUnits="userSpaceOnUse" x="0" y="0" width="76" height="76">
<path d="M75.3 0H0V75.3H75.3V0Z" fill="white"/>
</mask>
<g mask="url(#mask0_272_73)">
<path d="M31.9002 30.5996H18.7002L18.9002 31.2996C19.4002 34.6996 20.9002 37.6996 23.4002 40.1996C25.4002 42.1996 27.8002 43.5996 30.5002 44.1996L32.2002 44.6996L31.0002 43.3996C28.1002 39.8996 28.1002 34.7996 31.3002 31.4996L31.9002 30.5996Z" fill="#9F9FAA"/>
<path d="M19.5 42.0008L18.5 40.8008L18.7 42.5008C19 46.2008 20.7 49.6008 23.2 52.1008C26.2 55.1008 30.3 56.8008 34.5 56.8008H56.8V48.7008H34.4C28.7 48.7008 23.4 46.2008 19.5 42.0008Z" fill="#9F9FAA"/>
<path d="M43 44.7008H56.6L56.5 44.0008C56 40.6008 54.5 37.6008 52 35.1008C50.2 33.3008 47.6 31.7008 45.1 31.1008L43.6 30.8008L44.6 32.1008C47.5 35.6008 47.1 40.7008 43.9 43.9008L43 44.7008Z" fill="#9F9FAA"/>
<path d="M37.6 0C16.8 0 0 16.8 0 37.6C0 58.4 16.8 75.2 37.6 75.2C58.4 75.2 75.2 58.4 75.2 37.6C75.2 16.8 58.5 0 37.6 0ZM60.7 60.7H34.4C23.5 60.7 14.6 51.8 14.6 40.9V14.6H40.8C51.7 14.6 60.6 23.5 60.6 34.4V60.7H60.7Z" fill="#9F9FAA"/>
<path d="M40.8 18.6992H18.5V26.7992H40.8C46.5 26.7992 51.9 29.2992 55.6 33.4992L56.6 34.6992L56.4 32.9992C56.1 29.2992 54.4 25.8992 51.9 23.3992C49.1 20.1992 45 18.6992 40.8 18.6992Z" fill="#9F9FAA"/>
</g>
</g>
<defs>
<clipPath id="clip0_272_73">
<rect width="250" height="76" fill="white"/>
</clipPath>
</defs>
</svg>
