<svg width="200" height="50" viewBox="0 0 200 50" fill="none" xmlns="http://www.w3.org/2000/svg">
<g clip-path="url(#clip0_272_14)">
<path d="M49.0723 47.8418C43.3611 44.8883 40.1602 39.6795 40.1602 33.192C40.1602 29.8934 40.918 26.9399 42.4888 24.3904C45.5201 19.3541 51.0537 16.3418 57.6964 16.3418C60.9605 16.3418 63.8141 16.9772 66.4349 18.3108C71.5619 21.0917 74.826 26.2417 74.826 33.3058C74.826 34 74.7076 35.0433 74.6524 35.8553H49.7157C50.0077 36.6672 50.2998 37.4752 50.7063 38.2283C52.3364 40.9503 55.2493 42.3977 59.1528 42.3977C62.6498 42.3977 65.2113 41.3543 67.4255 39.2716L72.4934 44.7157C69.5214 48.1321 64.86 49.9834 58.9199 49.9834C55.1901 49.9834 51.8707 49.2892 49.0723 47.8418ZM65.8507 30.2974C65.1521 26.2456 62.1209 23.5235 57.7516 23.5235C56.1215 23.5235 54.7204 23.8726 53.4968 24.508C51.401 25.7239 50.0591 27.6929 49.5933 30.2974H65.8468H65.8507Z" fill="#9F9FAA"/>
<path d="M87.2267 49.5156H77.7305V6.95898H87.2267V49.5156Z" fill="#9F9FAA"/>
<path d="M99.0254 47.8418C93.3142 44.8883 90.1133 39.6795 90.1133 33.192C90.1133 29.8934 90.8711 26.9399 92.442 24.3904C95.4732 19.3541 101.007 16.3418 107.649 16.3418C110.914 16.3418 113.767 16.9772 116.388 18.3108C121.515 21.0917 124.779 26.2417 124.779 33.3058C124.779 34 124.665 35.0433 124.605 35.8553H99.6688C99.9609 36.6672 100.253 37.4752 100.659 38.2283C102.29 40.9503 105.202 42.3977 109.106 42.3977C112.603 42.3977 115.164 41.3543 117.379 39.2716L122.447 44.7157C119.474 48.1321 114.813 49.9834 108.873 49.9834C105.143 49.9834 101.824 49.2892 99.0254 47.8418ZM115.804 30.2974C115.105 26.2456 112.074 23.5235 107.705 23.5235C106.075 23.5235 104.674 23.8726 103.45 24.508C101.354 25.7239 100.012 27.6929 99.5464 30.2974H115.8H115.804Z" fill="#9F9FAA"/>
<path d="M137.162 49.5166H127.666V16.8046H136.756V20.6838C139.321 17.848 143.166 16.3418 147.649 16.3418C150.27 16.3418 152.603 16.8046 154.699 17.848C158.776 19.9307 161.282 24.1589 161.282 30.819V49.5205H151.726V32.2663C151.726 26.9399 149.279 24.508 145.084 24.508C143.568 24.508 142.23 24.8571 141.062 25.4337C138.615 26.7084 137.158 29.254 137.158 33.3646V49.5166H137.162Z" fill="#9F9FAA"/>
<path d="M172.206 47.9152C167.253 45.0794 164.166 39.9844 164.166 33.2106C164.166 29.7355 164.865 26.7271 166.38 24.2365C169.234 19.2003 174.42 16.3606 180.597 16.3606C183.336 16.3606 185.783 16.9411 187.879 18.157C188.87 18.7375 189.742 19.3729 190.444 20.2397V6.98242H200V49.5391H190.91V45.7188C188.522 48.6134 185.025 50.0019 180.597 50.0019C177.51 50.0019 174.712 49.3076 172.206 47.9192V47.9152ZM186.478 41.1415C188.984 39.6942 190.614 36.9133 190.614 33.2106C190.614 31.3005 190.263 29.6806 189.509 28.347C187.993 25.625 185.373 24.1188 182.286 24.1188C180.656 24.1188 179.255 24.4679 177.976 25.2171C175.47 26.6644 173.84 29.3276 173.84 33.2067C173.84 35.058 174.191 36.623 175.004 37.9527C176.461 40.7296 179.081 42.2358 182.286 42.2358C183.802 42.2358 185.199 41.8867 186.482 41.1376L186.478 41.1415Z" fill="#9F9FAA"/>
<path d="M41.8174 0.00392161H36.2128C35.1432 0.00392161 34.2788 0.862899 34.2788 1.92583V5.04796C34.2788 6.1109 33.4144 6.96987 32.3448 6.96987H26.2784V20.2271C25.5798 19.3603 24.7036 18.721 23.713 18.1444C21.6172 16.9285 19.1701 16.348 16.4309 16.348C10.254 16.348 5.07176 19.1838 2.21421 24.2239C0.698601 26.7146 0 29.723 0 33.1981C0 39.9719 3.08647 45.0669 8.03983 47.9027C10.5461 49.2912 13.3405 49.9854 16.4309 49.9854C20.8594 49.9854 24.3563 48.5969 26.7442 45.7023V49.5226H35.8339V11.3354C35.8339 10.2724 36.6982 9.41345 37.7679 9.41345H41.8213C42.8909 9.41345 43.7553 8.55447 43.7553 7.49154V1.92191C43.7553 0.858976 42.8909 0 41.8213 0L41.8174 0.00392161ZM22.3118 41.1289C21.0291 41.882 19.6319 42.2272 18.1163 42.2272C14.9114 42.2272 12.2906 40.721 10.8342 37.944C10.0172 36.6105 9.6699 35.0494 9.6699 33.1981C9.6699 29.319 11.3 26.6558 13.8062 25.2084C15.089 24.4554 16.4862 24.1102 18.1163 24.1102C21.2027 24.1102 23.8274 25.6163 25.3391 28.3384C26.0969 29.672 26.4442 31.2919 26.4442 33.202C26.4442 36.9086 24.8141 39.6855 22.3079 41.1329L22.3118 41.1289Z" fill="#9F9FAA"/>
</g>
<defs>
<clipPath id="clip0_272_14">
<rect width="200" height="50" fill="white"/>
</clipPath>
</defs>
</svg>
