<svg width="140" height="47" viewBox="0 0 140 47" fill="none" xmlns="http://www.w3.org/2000/svg">
<path d="M61.1765 15.8295C62.6824 15.8295 63.953 16.0178 64.9647 16.3942C66 16.7707 66.8235 17.2884 67.4353 17.9707C68.0471 18.6531 68.4941 19.4766 68.753 20.4413C69.0118 21.3825 69.153 22.4413 69.153 23.6178V35.5001C68.4706 35.6648 67.4118 35.8531 65.9765 36.0648C64.5647 36.2766 62.9647 36.3707 61.1765 36.3707C60.0235 36.3707 58.9177 36.2766 57.953 36.0178C56.9647 35.806 56.1647 35.4295 55.4588 34.9354C54.7765 34.4413 54.2353 33.7825 53.8353 32.9825C53.4353 32.1825 53.2471 31.1942 53.2471 30.0178C53.2471 28.8884 53.4588 27.9472 53.9059 27.1707C54.353 26.3942 54.9412 25.7589 55.6706 25.2648C56.4 24.7942 57.2941 24.4178 58.2824 24.206C59.2706 23.9942 60.2824 23.9001 61.3882 23.9001C61.8824 23.9001 62.4235 23.9236 62.9647 23.9942C63.5294 24.0413 64.0941 24.1589 64.7294 24.3001V23.5707C64.7294 23.0531 64.6824 22.5354 64.5412 22.0648C64.4 21.5942 64.1882 21.1707 63.8824 20.7942C63.5765 20.4178 63.1765 20.1589 62.6353 19.9472C62.1412 19.7354 61.4824 19.6648 60.7059 19.6648C59.6471 19.6648 58.7059 19.7354 57.8118 19.9001C56.9412 20.0648 56.2353 20.206 55.6706 20.4178L55.1059 16.7472C55.6941 16.5354 56.5177 16.3472 57.6235 16.1354C58.753 15.9236 59.9059 15.8295 61.1765 15.8295ZM61.553 32.7707C62.9647 32.7707 64.0235 32.7001 64.753 32.5589V27.5236C64.5177 27.4531 64.1412 27.3589 63.6706 27.3119C63.2 27.2413 62.6588 27.2178 62.0941 27.2178C61.6 27.2178 61.0824 27.2413 60.5882 27.3119C60.0941 27.3825 59.6 27.5236 59.2235 27.7354C58.8 27.9472 58.4941 28.206 58.2118 28.5825C57.9765 28.9589 57.8353 29.406 57.8353 29.9472C57.8353 31.0295 58.1882 31.7825 58.8471 32.1589C59.4824 32.5589 60.4 32.7707 61.553 32.7707ZM79.0118 10.5825C79.0118 11.4295 78.7529 12.1119 78.1882 12.6295C77.6235 13.1472 76.9882 13.3589 76.2353 13.3589C75.4588 13.3589 74.8 13.1236 74.2588 12.6295C73.6941 12.1354 73.4353 11.4766 73.4353 10.5825C73.4353 9.68835 73.6941 9.02953 74.2588 8.51188C74.8235 8.01776 75.4824 7.78247 76.2353 7.78247C76.9647 7.78247 77.6471 8.01776 78.1882 8.51188C78.7294 9.02953 79.0118 9.71188 79.0118 10.5825ZM78.5177 35.9707H73.9765V16.3236H78.5177V35.9707ZM89.3647 35.9707C88.1177 33.406 86.8235 30.4413 85.5059 27.0766C84.1882 23.7354 82.9882 20.1354 81.9059 16.3472H86.753C87.0118 17.4531 87.3647 18.6295 87.6941 19.9001C88.0706 21.1707 88.4235 22.4413 88.8471 23.6884C89.2706 24.9589 89.6941 26.1825 90.1177 27.3589C90.5647 28.5589 90.9647 29.6178 91.3412 30.5589C91.7177 29.6178 92.1177 28.5589 92.5647 27.3589C92.9882 26.1589 93.4118 24.9589 93.8353 23.6884C94.2588 22.4178 94.6588 21.1472 95.0353 19.9001C95.4118 18.6295 95.7412 17.4766 96.0235 16.3472H100.706C99.6235 20.1825 98.4235 23.7589 97.1059 27.0766C95.7882 30.4178 94.4941 33.3825 93.2471 35.9707H89.3647ZM101.741 26.2295C101.741 24.5119 102 23.006 102.518 21.6884C103.012 20.3942 103.718 19.3119 104.565 18.4413C105.412 17.5707 106.4 16.9354 107.506 16.4884C108.612 16.0413 109.718 15.8295 110.894 15.8295C113.6 15.8295 115.718 16.6766 117.224 18.3472C118.729 20.0178 119.506 22.5354 119.506 25.8531C119.506 26.0884 119.506 26.3707 119.482 26.7001C119.482 27.006 119.459 27.2884 119.435 27.5472H106.494C106.635 29.1236 107.176 30.3472 108.165 31.1942C109.153 32.0648 110.588 32.4884 112.447 32.4884C113.553 32.4884 114.565 32.3942 115.459 32.206C116.376 31.9942 117.106 31.7825 117.624 31.5707L118.235 35.2648C118 35.406 117.647 35.5236 117.2 35.6648C116.753 35.806 116.282 35.9236 115.694 36.0413C115.129 36.1354 114.541 36.2531 113.859 36.3236C113.2 36.3942 112.541 36.4178 111.882 36.4178C110.165 36.4178 108.659 36.1589 107.388 35.6413C106.118 35.1472 105.059 34.4178 104.235 33.5001C103.412 32.5825 102.8 31.5236 102.376 30.2766C101.953 29.0531 101.741 27.7119 101.741 26.2295ZM114.918 24.206C114.918 23.5707 114.847 22.9825 114.659 22.4413C114.471 21.8766 114.235 21.3825 113.882 20.9825C113.529 20.5589 113.153 20.2531 112.635 19.9942C112.165 19.7589 111.576 19.6413 110.894 19.6413C110.212 19.6413 109.576 19.7825 109.035 20.0413C108.518 20.3001 108.047 20.6531 107.718 21.0766C107.341 21.5001 107.082 21.9942 106.871 22.5354C106.659 23.1001 106.518 23.6413 106.447 24.2295L114.918 24.206ZM123.506 16.9589C124.376 16.7236 125.506 16.4884 126.918 16.2531C128.329 16.0178 129.882 15.9001 131.576 15.9001C133.2 15.9001 134.518 16.1119 135.6 16.5589C136.682 17.006 137.529 17.6178 138.165 18.4178C138.8 19.2178 139.247 20.1589 139.506 21.2648C139.765 22.3707 139.906 23.5942 139.906 24.9119V35.9707H135.365V25.6413C135.365 24.5825 135.294 23.6884 135.153 22.9589C135.012 22.2295 134.776 21.6178 134.471 21.1707C134.165 20.7236 133.741 20.3707 133.2 20.1589C132.682 19.9472 132 19.8531 131.247 19.8531C130.659 19.8531 130.094 19.8766 129.459 19.9472C128.824 20.0178 128.376 20.0884 128.094 20.1354V35.9707H123.553V16.9589H123.506Z" fill="#9F9FAA"/>
<path d="M32.7295 29.594C33.4589 29.594 34.1883 29.7352 34.8472 29.9705C35.906 28.747 36.4707 27.4293 36.4707 26.0411C36.4707 23.7823 34.9413 21.6176 32.1883 19.9234C29.2236 18.1352 25.2472 17.147 21.0354 17.147C16.8001 17.147 12.8472 18.1352 9.88245 19.947C7.10598 21.6411 5.6001 23.8058 5.6001 26.0646C5.6001 27.4293 6.1648 28.7705 7.22363 29.994C7.90598 29.7587 8.61186 29.6176 9.34127 29.6176C11.0119 29.6176 12.5648 30.2529 13.7413 31.4529C14.5648 32.2764 15.106 33.2881 15.3883 34.3705C17.1766 34.794 19.0825 35.0058 21.0354 35.0058C22.9883 35.0058 24.9177 34.7705 26.6825 34.3705C26.9413 33.2646 27.506 32.2529 28.3295 31.4529C29.506 30.2529 31.0589 29.594 32.7295 29.594ZM21.0354 24.4176C19.1295 24.4176 17.5766 22.8646 17.5766 20.9587H24.4942C24.4942 22.8646 22.9413 24.4176 21.0354 24.4176Z" fill="#9F9FAA"/>
<path d="M9.01172 18.3236C9.34113 18.1118 9.69407 17.9236 10.047 17.7589H10.0235C9.1529 17.1001 8.1176 16.7942 7.10584 16.7942C5.62349 16.7942 4.16466 17.453 3.19996 18.7471L2.82349 19.2412L5.57643 21.3118C6.42349 20.206 7.57643 19.1942 9.01172 18.3236Z" fill="#9F9FAA"/>
<path d="M5.60009 30.8413C4.68244 29.6648 4.09421 28.3707 3.9295 27.006C3.88244 26.7001 3.85891 26.3707 3.85891 26.0648C3.85891 24.4884 4.37656 22.9589 5.38832 21.5942H5.03538C2.35303 21.5942 0.164795 23.7825 0.164795 26.4648V27.1472H3.78832C2.84715 27.9236 2.23538 29.0295 2.07068 30.2531C1.90597 31.5472 2.23538 32.8178 3.03538 33.8531L3.34127 34.2531C3.62362 33.1942 4.16479 32.2295 4.96479 31.4295C5.1295 31.2178 5.36479 31.0295 5.60009 30.8413Z" fill="#9F9FAA"/>
<path d="M36.4707 21.3118L39.2236 19.2412L38.8236 18.7C37.8589 17.4294 36.4001 16.7471 34.9177 16.7471C33.906 16.7471 32.8707 17.0765 32.0001 17.7118H31.9766C32.3295 17.9 32.6824 18.0882 33.0119 18.2765C34.4707 19.1941 35.6236 20.2059 36.4707 21.3118Z" fill="#9F9FAA"/>
<path d="M41.906 26.4411C41.906 23.7588 39.7178 21.5706 37.0354 21.5706H36.6825C37.6707 22.9588 38.2119 24.4647 38.2119 26.0411C38.2119 26.3706 38.1884 26.6764 38.1413 26.9823C37.9531 28.3235 37.3884 29.6176 36.4707 30.8176C36.706 31.0058 36.9413 31.1941 37.1531 31.4058C37.9531 32.2058 38.4942 33.1706 38.7766 34.2294L39.0825 33.8294C39.8825 32.7941 40.2119 31.5235 40.0472 30.2294C39.8825 29.0058 39.2707 27.9235 38.3295 27.1235H41.9531V26.4411H41.906Z" fill="#9F9FAA"/>
<path d="M15.1531 16.0175C17.8354 16.0175 20.0236 13.8293 20.0236 11.147C20.0236 8.4646 17.8354 6.27637 15.1531 6.27637C12.4707 6.27637 10.2825 8.4646 10.2825 11.147C10.2825 13.8293 12.4707 16.0175 15.1531 16.0175ZM15.1531 8.48813C15.1766 8.48813 15.1766 8.48813 15.1531 8.48813C14.8236 8.84107 14.6119 9.31166 14.6119 9.82931C14.6119 10.8646 15.4589 11.7117 16.4942 11.7117C17.0119 11.7117 17.4825 11.4999 17.8354 11.147V11.1705C17.8354 12.6528 16.6354 13.8528 15.1531 13.8528C13.6707 13.8528 12.4707 12.6528 12.4707 11.1705C12.4942 9.6646 13.6942 8.48813 15.1531 8.48813Z" fill="#9F9FAA"/>
<path d="M26.894 16.0175C29.5764 16.0175 31.7646 13.8293 31.7646 11.147C31.7646 8.4646 29.5764 6.27637 26.894 6.27637C24.2117 6.27637 22.0234 8.4646 22.0234 11.147C22.0234 13.8293 24.1881 16.0175 26.894 16.0175ZM26.894 8.48813C26.5646 8.84107 26.3528 9.31166 26.3528 9.82931C26.3528 10.8646 27.1999 11.7117 28.2352 11.7117C28.7528 11.7117 29.2234 11.4999 29.5764 11.147V11.1705C29.5764 12.6528 28.3764 13.8528 26.894 13.8528C25.4117 13.8528 24.2117 12.6528 24.2117 11.1705C24.2117 9.6646 25.4117 8.48813 26.894 8.48813Z" fill="#9F9FAA"/>
<path d="M9.31761 30.9587C6.63526 30.9587 4.44702 33.147 4.44702 35.8293C4.44702 38.5117 6.63526 40.6999 9.31761 40.6999C9.88232 40.6999 10.4235 40.6058 10.9176 40.4176L10.7764 40.2764C9.36467 38.8646 8.89408 37.0529 9.71761 36.2293C10.5411 35.4058 12.3529 35.8764 13.7647 37.2882L13.9058 37.4293C14.0941 36.9352 14.1882 36.394 14.1882 35.8293C14.1882 33.147 12.0235 30.9587 9.31761 30.9587Z" fill="#9F9FAA"/>
<path d="M32.7295 30.9587C30.0471 30.9587 27.8589 33.147 27.8589 35.8293C27.8589 36.394 27.953 36.9352 28.1412 37.4293L28.2824 37.2882C29.6942 35.8764 31.5059 35.4058 32.3295 36.2293C33.153 37.0529 32.6824 38.8646 31.2706 40.2764L31.1295 40.4176C31.6236 40.6058 32.1648 40.6999 32.7295 40.6999C35.4118 40.6999 37.6001 38.5117 37.6001 35.8293C37.6001 33.147 35.4118 30.9587 32.7295 30.9587Z" fill="#9F9FAA"/>
</svg>
