<svg width="201" height="43" viewBox="0 0 201 43" fill="none" xmlns="http://www.w3.org/2000/svg">
<g clip-path="url(#clip0_272_32)">
<path fill-rule="evenodd" clip-rule="evenodd" d="M36.5182 9.31341C35.749 20.0615 30.0167 29.799 21.0258 35.6314C12.0059 29.7814 6.27159 20.0087 5.5275 9.21959C10.2684 6.77055 15.5795 5.48055 20.9349 5.48055C26.36 5.48055 31.729 6.80377 36.5182 9.31341ZM40.6677 5.36718C34.6996 1.85682 27.8752 -0.00195312 20.9349 -0.00195312C14.0739 -0.00195312 7.31717 1.81577 1.39734 5.25382L0 6.063L0.0367211 7.69309C0.344019 21.6681 7.68245 34.1987 19.671 41.2116L21.0258 42.0051L22.3825 41.2116C34.3304 34.2221 41.6708 21.7326 42.0148 7.80646L42.0554 6.18418L40.6677 5.36718Z" fill="#9F9FAA"/>
<path fill-rule="evenodd" clip-rule="evenodd" d="M66.5426 23.2062H59.8632V30.4146H54.2178V11.5649H59.8632V18.2338H66.5426V11.5649H72.186V30.4146H66.5426V23.2062Z" fill="#9F9FAA"/>
<path fill-rule="evenodd" clip-rule="evenodd" d="M85.8087 16.2834C83.0971 16.2834 81.3383 18.3748 81.3383 21.0056C81.3383 23.6325 83.0971 25.7239 85.8087 25.7239C88.5183 25.7239 90.279 23.6325 90.279 21.0056C90.279 18.3748 88.5183 16.2834 85.8087 16.2834ZM85.8087 11.2544C91.5662 11.2544 96.0075 15.2084 96.0075 21.0056C96.0075 26.7969 91.5662 30.7529 85.8087 30.7529C80.0512 30.7529 75.6079 26.7969 75.6079 21.0056C75.6079 15.2084 80.0512 11.2544 85.8087 11.2544Z" fill="#9F9FAA"/>
<path fill-rule="evenodd" clip-rule="evenodd" d="M106.639 24.6492L103.23 30.4131H96.5796L102.812 20.7498L96.999 11.5654H103.622L106.639 16.9365L109.602 11.5654H116.281L110.468 20.7205L116.699 30.4131H110.048L106.639 24.6492Z" fill="#9F9FAA"/>
<path fill-rule="evenodd" clip-rule="evenodd" d="M131.438 23.2062H124.759V30.4146H119.114V11.5649H124.759V18.2338H131.438V11.5649H137.082V30.4146H131.438V23.2062Z" fill="#9F9FAA"/>
<path fill-rule="evenodd" clip-rule="evenodd" d="M141.509 11.5645H147.237V22.4708C147.237 24.2807 148.157 25.7232 150.48 25.7232C152.769 25.7232 153.694 24.2807 153.694 22.4708V11.5645H159.423V22.6409C159.423 27.3337 156.767 30.7522 150.48 30.7522C144.191 30.7522 141.509 27.3337 141.509 22.6721V11.5645Z" fill="#9F9FAA"/>
<path fill-rule="evenodd" clip-rule="evenodd" d="M169.493 20.2974V30.4141H163.848V11.5645H169.661L176.144 21.0616V11.5645H181.789V30.4141H176.368L169.493 20.2974Z" fill="#9F9FAA"/>
<path fill-rule="evenodd" clip-rule="evenodd" d="M190.214 16.5393H185.212V11.5649H200.832V16.5393H195.859V30.4146H190.214V16.5393Z" fill="#9F9FAA"/>
</g>
<defs>
<clipPath id="clip0_272_32">
<rect width="201" height="43" fill="white"/>
</clipPath>
</defs>
</svg>
