<svg width="127" height="33" viewBox="0 0 127 33" fill="none" xmlns="http://www.w3.org/2000/svg">
<path fill-rule="evenodd" clip-rule="evenodd" d="M17.7662 22.0467C20.742 22.0467 23.1514 19.6274 23.1514 16.6394C23.1514 13.6515 20.742 11.2322 17.7662 11.2322C14.7903 11.2322 12.3809 13.6515 12.3809 16.6394C12.3809 19.6274 14.7903 22.0467 17.7662 22.0467ZM17.7662 23.772C21.6923 23.772 24.8697 20.5816 24.8697 16.6394C24.8697 12.6973 21.6923 9.5069 17.7662 9.5069C13.84 9.5069 10.6626 12.6973 10.6626 16.6394C10.6626 20.5816 13.84 23.772 17.7662 23.772Z" fill="#EBEDEF"/>
<path fill-rule="evenodd" clip-rule="evenodd" d="M14.6465 25.3334C19.3982 25.3334 23.2572 21.4683 23.2572 16.6876C23.2572 11.9069 19.3982 8.04183 14.6465 8.04183C9.8948 8.04183 6.03584 11.9165 6.03584 16.6876C6.03584 21.4587 9.8948 25.3334 14.6465 25.3334ZM14.6465 27.0491C20.3485 27.0491 24.9658 22.4129 24.9658 16.6876C24.9658 10.9623 20.3485 6.32617 14.6465 6.32617C8.94446 6.32617 4.32715 10.9623 4.32715 16.6876C4.32715 22.4129 8.94446 27.0491 14.6465 27.0491Z" fill="#EBEDEF"/>
<path fill-rule="evenodd" clip-rule="evenodd" d="M14.6943 18.972C15.9807 18.972 17.0174 17.931 17.0174 16.6394C17.0174 15.3479 15.9807 14.3069 14.6943 14.3069C13.408 14.3069 12.3713 15.3479 12.3713 16.6394C12.3713 17.931 13.408 18.972 14.6943 18.972ZM14.6943 20.6876C16.9214 20.6876 18.7261 18.8756 18.7261 16.6394C18.7261 14.4033 16.9214 12.5912 14.6943 12.5912C12.4673 12.5912 10.6626 14.4033 10.6626 16.6394C10.6626 18.8756 12.4673 20.6876 14.6943 20.6876Z" fill="#EBEDEF"/>
<path fill-rule="evenodd" clip-rule="evenodd" d="M10.6338 11.1455C10.9986 11.4443 11.0562 11.984 10.749 12.3503C8.89629 14.5672 8.7619 18.4033 10.7874 21.1696C11.0658 21.5551 10.9794 22.0852 10.5954 22.3648C10.2114 22.6443 9.66424 22.5575 9.38586 22.172C6.94761 18.8274 7.02441 14.1334 9.41466 11.2611C9.72184 10.8949 10.269 10.8467 10.6338 11.1455Z" fill="#EBEDEF"/>
<path d="M111.197 26.1623C110.679 26.1623 110.16 26.0852 109.652 25.9213C109.143 25.7575 108.73 25.5358 108.404 25.2467L109.46 23.1744C109.681 23.3768 109.94 23.531 110.228 23.637C110.525 23.7527 110.813 23.8009 111.101 23.8009C111.514 23.8009 111.831 23.7045 112.071 23.5021C112.32 23.3189 112.541 23.0009 112.743 22.5479L113.261 21.3141L113.482 20.996L117.072 12.3214H119.865L115.344 23.0009C115.018 23.8105 114.653 24.4467 114.231 24.9093C113.818 25.372 113.357 25.69 112.858 25.8828C112.359 26.0756 111.802 26.1623 111.197 26.1623ZM112.906 22.7792L108.442 12.331H111.437L114.903 20.7454L112.906 22.7792Z" fill="#EBEDEF"/>
<path d="M102.894 22.3937V12.1093C102.894 10.972 103.23 10.0756 103.902 9.40089C104.574 8.71656 105.524 8.36957 106.772 8.36957C107.194 8.36957 107.598 8.41776 107.981 8.50451C108.375 8.59125 108.711 8.72619 108.989 8.91897L108.221 11.0298C108.058 10.9141 107.876 10.8274 107.684 10.7696C107.482 10.7117 107.271 10.6732 107.05 10.6732C106.628 10.6732 106.302 10.7985 106.062 11.0491C105.841 11.29 105.726 11.6467 105.726 12.1382V13.0732L105.802 14.3262V22.4033H102.894V22.3937ZM101.358 14.7985V12.5527H108.308V14.7985H101.358Z" fill="#EBEDEF"/>
<path d="M96.9421 22.3936V12.331H99.8507V22.3936H96.9421ZM98.3916 10.9334C97.854 10.9334 97.4221 10.7792 97.0861 10.4707C96.7501 10.1623 96.5869 9.77675 96.5869 9.3141C96.5869 8.85145 96.7597 8.46591 97.0861 8.15748C97.4221 7.84904 97.854 7.69482 98.3916 7.69482C98.9292 7.69482 99.3611 7.84904 99.6971 8.14784C100.033 8.43699 100.196 8.8129 100.196 9.26591C100.196 9.74784 100.024 10.1527 99.6971 10.4804C99.3803 10.7695 98.9388 10.9334 98.3916 10.9334Z" fill="#EBEDEF"/>
<path d="M92.9484 22.5382C91.7677 22.5382 90.8462 22.2394 90.1934 21.6418C89.5311 21.0346 89.2047 20.1286 89.2047 18.9334V10.1045H92.1133V18.8949C92.1133 19.319 92.2285 19.6467 92.4493 19.8876C92.6701 20.1093 92.9772 20.225 93.3612 20.225C93.822 20.225 94.2156 20.0997 94.5324 19.8491L95.3099 21.9021C95.0123 22.1141 94.6475 22.278 94.2348 22.384C93.822 22.49 93.3996 22.5382 92.9484 22.5382ZM87.6592 14.7985V12.5527H94.6091V14.7985H87.6592Z" fill="#EBEDEF"/>
<path d="M82.0723 22.5382C80.93 22.5382 79.9221 22.3165 79.0581 21.8635C78.2038 21.4105 77.5414 20.8033 77.0614 20.0322C76.5911 19.2515 76.3511 18.3551 76.3511 17.3623C76.3511 16.3503 76.5815 15.4635 77.0422 14.6924C77.5126 13.9117 78.1558 13.2948 78.9621 12.8611C79.7685 12.4081 80.6804 12.1864 81.6979 12.1864C82.6771 12.1864 83.5602 12.3984 84.3378 12.8225C85.1345 13.237 85.7585 13.8346 86.2193 14.6153C86.68 15.3864 86.9104 16.3213 86.9104 17.4009C86.9104 17.5165 86.9008 17.6418 86.8912 17.796C86.8816 17.931 86.8624 18.0659 86.8528 18.1912H78.7221V16.4852H85.3361L84.2226 16.9864C84.2226 16.4659 84.117 16.0033 83.9058 15.6177C83.6946 15.2322 83.4066 14.9334 83.0323 14.7213C82.6579 14.4997 82.2259 14.384 81.7267 14.384C81.2276 14.384 80.786 14.4997 80.402 14.7213C80.0276 14.9334 79.7397 15.2418 79.5285 15.637C79.3173 16.0225 79.2117 16.4852 79.2117 17.025V17.478C79.2117 18.0274 79.3269 18.5093 79.5669 18.9334C79.8165 19.3478 80.1524 19.6659 80.594 19.8876C81.0452 20.0997 81.5635 20.2057 82.1587 20.2057C82.6963 20.2057 83.157 20.1286 83.5506 19.9647C83.9634 19.8009 84.3282 19.5599 84.6642 19.2322L86.2097 20.9189C85.7489 21.4394 85.1729 21.8442 84.4818 22.1334C83.781 22.4033 82.9843 22.5382 82.0723 22.5382Z" fill="#EBEDEF"/>
<path d="M70.246 12.1865C71.0428 12.1865 71.7435 12.3503 72.3675 12.6684C73.001 12.9768 73.5002 13.4684 73.8554 14.1238C74.2202 14.7696 74.3929 15.6081 74.3929 16.6298V22.384H71.4843V17.0732C71.4843 16.2636 71.3019 15.666 70.9468 15.2804C70.6012 14.8949 70.102 14.7021 69.4589 14.7021C68.9981 14.7021 68.5853 14.7985 68.2109 15.0009C67.8462 15.184 67.5678 15.4828 67.3566 15.878C67.155 16.2732 67.059 16.784 67.059 17.4105V22.384H64.1504V8.51416H67.059V15.1166L66.4062 14.278C66.771 13.6033 67.2798 13.0925 67.9517 12.7262C68.6237 12.3599 69.3917 12.1865 70.246 12.1865Z" fill="#EBEDEF"/>
<path d="M58.0549 22.5382C56.9798 22.5382 56.0103 22.3165 55.1655 21.8828C54.3208 21.4298 53.6584 20.8129 53.1688 20.0322C52.6985 19.2515 52.4585 18.3551 52.4585 17.3623C52.4585 16.3503 52.6985 15.4635 53.1688 14.6924C53.6488 13.9117 54.3208 13.2948 55.1655 12.8611C56.0103 12.4081 56.9702 12.1864 58.0549 12.1864C59.1109 12.1864 60.0324 12.4081 60.81 12.8611C61.5875 13.2948 62.1731 13.931 62.5379 14.7503L60.2916 15.9551C60.0324 15.4828 59.706 15.1358 59.3029 14.9045C58.9189 14.6828 58.4965 14.5671 58.0357 14.5671C57.5366 14.5671 57.095 14.6828 56.6918 14.9045C56.2983 15.1262 55.9815 15.4442 55.7415 15.8587C55.5207 16.2731 55.4055 16.7647 55.4055 17.3527C55.4055 17.9406 55.5207 18.4418 55.7415 18.8466C55.9815 19.2611 56.2983 19.5792 56.6918 19.8009C57.0854 20.0225 57.5366 20.1382 58.0357 20.1382C58.4965 20.1382 58.9189 20.0322 59.3029 19.8201C59.6964 19.5984 60.0324 19.2418 60.2916 18.7503L62.5475 19.984C62.1731 20.7936 61.5971 21.4201 60.8196 21.8731C60.0228 22.3262 59.1109 22.5382 58.0549 22.5382Z" fill="#EBEDEF"/>
<path d="M45.3354 22.3936V12.331H48.1097V15.1744L47.7161 14.3551C48.0137 13.6418 48.4936 13.1117 49.1464 12.7454C49.8088 12.3695 50.6055 12.1864 51.5463 12.1864V14.8756C51.4215 14.8659 51.3063 14.8563 51.2103 14.8563C51.1143 14.8466 51.0087 14.837 50.8935 14.837C50.0967 14.837 49.4536 15.0683 48.9544 15.531C48.4744 15.984 48.2249 16.6876 48.2249 17.6418V22.3936H45.3354Z" fill="#EBEDEF"/>
<path d="M29.5732 22.3937L35.3809 9.3045H38.3567L44.1835 22.3937H41.0157L36.2448 10.837H37.4351L32.645 22.3937H29.5732ZM32.4819 19.5888L33.2786 17.2852H39.979L40.7949 19.5888H32.4819Z" fill="#EBEDEF"/>
</svg>
