<svg width="118" height="33" viewBox="0 0 118 33" fill="none" xmlns="http://www.w3.org/2000/svg">
<g clip-path="url(#clip0_1_39)">
<mask id="mask0_1_39" style="mask-type:luminance" maskUnits="userSpaceOnUse" x="0" y="0" width="119" height="33">
<path d="M118.007 0.928589H0.00744629V32.9286H118.007V0.928589Z" fill="white"/>
</mask>
<g mask="url(#mask0_1_39)">
<mask id="mask1_1_39" style="mask-type:luminance" maskUnits="userSpaceOnUse" x="0" y="0" width="119" height="33">
<path d="M118.007 0.928589H0.00744629V32.9286H118.007V0.928589Z" fill="white"/>
</mask>
<g mask="url(#mask1_1_39)">
<g style="mix-blend-mode:luminosity">
<path d="M63.546 16.9662L47.6707 0.928589V32.9662L63.546 16.9662Z" fill="#9F9FAA"/>
<path d="M31.7953 16.9662L47.6705 0.928589H15.92L31.7953 16.9662Z" fill="#9F9FAA"/>
<path d="M0.00744629 16.9662L15.9201 32.9662V0.928589L0.00744629 16.9662Z" fill="#9F9FAA"/>
<path d="M31.7953 16.9662L15.92 32.9662H47.6705L31.7953 16.9662Z" fill="#9F9FAA"/>
<path d="M77.4789 17.9074H71.7261V23.6297H68.8503V10.2274H71.7261V15.7238H77.4789V10.2274H80.3553V23.6297H77.4789V17.9074Z" fill="#9F9FAA"/>
<path d="M87.3027 23.8933C84.4263 23.8933 82.0733 22.7263 82.0358 19.5263H84.9122C84.9497 20.9569 85.7712 21.8227 87.3401 21.8227C88.4979 21.8227 89.8429 21.2203 89.8429 19.9027C89.8429 18.8486 88.9464 18.5474 87.4524 18.0957L86.4811 17.8321C84.3889 17.2298 82.2972 16.4015 82.2972 13.9921C82.2972 11.018 85.0613 10.0015 87.5641 10.0015C90.1417 10.0015 92.383 10.9051 92.4205 13.8792H89.5441C89.4318 12.6745 88.7219 11.9592 87.3775 11.9592C86.294 11.9592 85.2485 12.5239 85.2485 13.7286C85.2485 14.7074 86.1449 15.0086 88.0126 15.6109L89.133 15.9497C91.4117 16.6651 92.8684 17.4557 92.8684 19.7145C92.8309 22.7263 89.9177 23.8933 87.3027 23.8933Z" fill="#9F9FAA"/>
<path d="M94.4747 10.2652H99.1065C99.9655 10.2275 100.862 10.2652 101.722 10.4158C103.327 10.7922 104.56 11.8463 104.56 13.6534C104.56 15.3852 103.477 16.251 101.908 16.6652C103.701 17.004 105.046 17.9075 105.046 19.9028C105.046 22.9522 102.058 23.6299 99.7415 23.6299H94.5121L94.4747 10.2652ZM99.1065 15.8369C100.377 15.8369 101.684 15.5734 101.684 14.0299C101.684 12.6369 100.489 12.2604 99.293 12.2604H97.2762V15.8369H99.1065ZM99.3679 21.6346C100.713 21.6346 102.02 21.3334 102.02 19.6769C102.02 18.0205 100.899 17.7193 99.5176 17.7193H97.2388V21.6346H99.3679Z" fill="#9F9FAA"/>
<path d="M112.517 23.8933C108.221 23.8933 106.316 21.1451 106.316 17.0416C106.316 12.938 108.445 9.96393 112.666 9.96393C115.318 9.96393 117.895 11.1686 117.97 14.1804H114.982C114.832 12.8251 113.936 12.1474 112.666 12.1474C110.051 12.1474 109.267 14.971 109.267 17.1168C109.267 19.2627 110.051 21.7474 112.554 21.7474C113.861 21.7474 114.832 21.0322 115.019 19.6768H118.007C117.709 22.7639 115.281 23.8933 112.517 23.8933Z" fill="#9F9FAA"/>
</g>
</g>
</g>
</g>
<defs>
<clipPath id="clip0_1_39">
<rect width="118" height="32" fill="white" transform="translate(0.00744629 0.928589)"/>
</clipPath>
</defs>
</svg>
