<svg width="588" height="236" viewBox="0 0 588 236" fill="none" xmlns="http://www.w3.org/2000/svg">
<g clip-path="url(#clip0_272_62)">
<path d="M224.237 0H192.346C190.695 0 189.356 1.33748 189.356 2.98734V233.013C189.356 234.663 190.695 236 192.346 236H224.237C225.889 236 227.227 234.662 227.227 233.013V2.98734C227.227 1.33748 225.889 0 224.237 0Z" fill="#9F9FAA"/>
<path d="M34.8814 0H2.98983C1.33859 0 0 1.33748 0 2.98734V233.013C0 234.663 1.33859 236 2.98983 236H34.8814C36.5326 236 37.8712 234.663 37.8712 233.013V2.98734C37.8712 1.33748 36.5326 0 34.8814 0Z" fill="#9F9FAA"/>
<path d="M368.237 60.7427C366.586 60.7427 365.247 62.0802 365.247 63.7301V151.731C365.247 165.792 364.733 199.257 331.871 199.257H325.892C292.046 199.257 292.88 165.776 292.88 151.731V63.7301C292.88 62.0802 291.542 60.7427 289.891 60.7427H257.125C255.474 60.7427 254.136 62.0802 254.136 63.7301V149.24C254.136 174.544 258.122 236 323.898 236H333.864C399.641 236 403.627 174.412 403.627 149.109V63.7301C403.627 62.0802 402.289 60.7427 400.637 60.7427H368.237Z" fill="#9F9FAA"/>
<path d="M42.1701 142.073C41.1554 140.857 41.2659 139.062 42.422 137.979L123.994 61.6157C124.549 61.097 125.279 60.8083 126.039 60.8083H165.017C167.705 60.8083 169.028 64.0774 167.094 65.944L91.2397 139.181C90.1185 140.263 90.018 142.025 91.0088 143.228L163.406 231.114C165.011 233.063 163.624 236 161.097 236H119.16C118.246 236 117.382 235.582 116.815 234.867L63.9438 168.123C63.9399 168.118 63.9325 168.118 63.928 168.122C63.9236 168.127 63.9164 168.126 63.9124 168.121L42.1701 142.073Z" fill="#9F9FAA"/>
<path d="M425.616 148.173C425.616 136.422 427.217 125.255 431.239 114.567C435.262 103.878 441.31 94.1551 449.02 85.9846C456.729 77.8141 465.939 71.3659 476.093 67.0296C486.248 62.6932 497.135 60.5588 508.099 60.7551C556.581 60.7551 588 98.0477 588 152.708V159.37C588 161.02 586.661 162.357 585.01 162.357H472.976C471.169 162.357 469.768 163.949 470.087 165.726C471.837 175.487 475.479 183.257 483.148 189.724C491.679 196.919 503.823 200.084 515.465 200.084C530.14 199.875 544.325 195.547 555.903 186.286C557.138 185.298 558.93 185.352 560.044 186.474L579.757 206.336C580.98 207.568 580.899 209.581 579.563 210.689C553.268 232.506 534.183 236 510.916 235.854C498.305 236 488.429 234.767 477.889 230.629C467.349 226.491 457.752 220.086 449.717 211.826C441.682 203.567 435.386 193.636 431.235 182.673C427.084 171.71 425.616 160.321 425.616 148.173ZM508.099 95.7214C508.099 95.7127 508.092 95.7055 508.083 95.7052C498.245 95.4115 488.675 99.0911 481.353 105.983C474.808 112.145 470.507 118.863 469.118 127.562C468.844 129.278 470.229 130.759 471.967 130.759H544.184C545.882 130.759 547.262 129.344 547.025 127.665C546.536 124.21 545.458 121.542 543.822 117.894C541.732 113.233 538.775 109.056 535.124 105.609C531.473 102.161 527.202 99.5124 522.562 97.8175C517.926 96.1246 513.015 95.4176 508.116 95.7376C508.107 95.7382 508.099 95.7308 508.099 95.7214Z" fill="#9F9FAA"/>
</g>
<defs>
<clipPath id="clip0_272_62">
<rect width="588" height="236" fill="white"/>
</clipPath>
</defs>
</svg>
