<svg width="211" height="51" viewBox="0 0 211 51" fill="none" xmlns="http://www.w3.org/2000/svg">
<mask id="mask0_272_41" style="mask-type:alpha" maskUnits="userSpaceOnUse" x="1" y="0" width="50" height="50">
<path fill-rule="evenodd" clip-rule="evenodd" d="M1.30652 0.290771H50.6176V49.4574H1.30652V0.290771Z" fill="white"/>
</mask>
<g mask="url(#mask0_272_41)">
<path fill-rule="evenodd" clip-rule="evenodd" d="M28.042 46.883C27.9068 46.9693 27.0372 46.9796 26.8786 47.0056H25.3737C25.2151 46.9796 24.2081 46.97 24.0729 46.8837C13.1347 45.9805 4.24361 36.643 3.94084 25.7409C3.62465 14.3503 11.817 4.4523 22.8079 2.96031C23.3414 2.8878 23.9139 2.83143 24.4548 2.81365H25.4125H27.3279C35.0767 2.81036 43.4538 8.75602 46.6577 16.7663C52.1055 30.3857 42.6246 45.724 28.042 46.883ZM50.5377 22.6887C50.3993 21.3853 50.1635 20.6829 49.9638 19.704C47.3361 6.82334 34.6266 -1.66219 21.4893 0.679024C8.53133 2.98836 -0.491082 15.6513 1.61071 28.5786C4.48304 46.2453 24.1405 55.1539 39.2086 45.4968C45.8892 41.2151 49.9598 34.9124 50.5869 26.8935C50.6759 25.2049 50.5424 24.465 50.5479 22.8895C50.5481 22.8231 50.5447 22.7547 50.5377 22.6887Z" fill="#9F9FAA"/>
</g>
<path fill-rule="evenodd" clip-rule="evenodd" d="M35.5498 38.4022C35.1623 38.694 34.733 38.9355 34.3054 39.1682C33.3562 39.6846 32.5003 39.5741 31.9161 38.6215C31.3136 37.6387 31.7288 36.8658 32.5777 36.2548C33.0613 35.9069 33.567 35.5888 34.0411 35.229C40.48 30.3414 40.8676 20.5152 34.8327 15.135C34.1823 14.5552 33.4911 14.0291 32.5683 13.9646L32.0776 13.8959C31.7285 13.8725 31.6672 13.8959 31.2567 13.8959C30.9831 13.8959 30.8828 13.9012 30.8191 13.9226C30.7549 13.9399 30.6898 13.9573 30.6244 13.975C27.313 14.9739 26.3607 18.4453 28.7418 20.9599C29.5249 21.787 30.4358 22.5154 30.6376 23.7111C30.7095 24.1572 30.8463 24.9781 30.6479 26.0295C30.0006 28.1815 28.5398 29.3855 26.3194 29.555C24.3984 29.7017 22.6092 28.4981 21.8345 26.6934C21.0013 24.7522 21.4441 22.9115 23.3119 21.1813C24.6419 19.949 25.1261 18.4849 24.6479 16.799C24.2122 15.2621 23.2542 14.1289 21.5076 13.9536C20.9954 13.8959 20.585 13.8959 19.8673 13.9536C17.6947 14.2533 16.5282 15.9189 15.4314 17.4828C11.2097 23.5025 12.8504 31.7181 18.9883 35.7892C19.2141 35.9389 19.4532 36.0686 19.6761 36.2221C20.5702 36.8381 20.8504 37.6895 20.3114 38.6164C19.7505 39.5804 18.8207 39.643 17.9005 39.1454C15.913 38.0704 14.303 36.5372 12.9473 34.7563C8.91806 29.4631 8.59107 21.9495 12.101 16.2523C15.5656 10.6288 22.3766 7.49244 28.6835 8.61653C35.6462 9.85732 41.0337 14.8999 42.2579 21.5986C43.5277 28.5452 41.1836 34.1593 35.5498 38.4022ZM44.4828 20.714C42.7355 12.8264 36.3622 7.0341 28.287 5.98758C28.2461 5.98239 28.2063 5.97459 28.1662 5.96501C26.6288 5.59807 23.9303 5.96063 23.9303 5.96063C18.2896 6.6387 13.7928 9.28365 10.4992 13.8994C4.11332 22.8493 6.95638 35.6952 16.4973 41.1531C18.5394 42.3214 20.8514 41.8668 22.1292 40.0462C23.4839 38.1159 23.1194 35.833 21.1896 34.2784C20.7691 33.9396 20.2966 33.6661 19.8548 33.3529C14.3755 29.4687 13.88 21.4226 18.8421 16.9216C19.7239 16.1216 20.7077 15.6266 21.6954 16.6358C22.6847 17.6467 22.2408 18.5406 21.2922 19.3987C20.0648 20.5091 19.1414 21.856 19.08 23.6099C18.95 24.5933 18.9432 24.8413 19.1053 26.1833C19.7674 29.7949 22.8057 32.0489 26.6679 31.7946C30.0396 31.5727 32.8576 28.7267 33.0868 25.339C33.2525 22.8871 32.3524 20.8927 30.548 19.2743C29.8738 18.6694 29.583 17.9558 29.9693 17.0963C30.2596 16.4508 30.7999 16.1051 31.5241 16.119C32.2332 16.1324 32.7141 16.5898 33.1952 17.0308C38.3971 21.7993 37.5232 29.7278 31.339 33.8842C29.0819 35.4009 28.4101 37.9185 29.7348 39.8977C31.1225 41.9714 33.5443 42.3681 35.8775 40.904C42.8326 36.5391 46.2252 28.5795 44.4828 20.714Z" fill="#9F9FAA"/>
<path fill-rule="evenodd" clip-rule="evenodd" d="M28.2997 24.8876C28.2826 26.0818 27.3276 26.998 26.1068 26.9913C24.9143 26.9849 23.962 26.0154 23.979 24.8254C23.9959 23.6315 24.9679 22.6981 26.1682 22.7229C27.3885 22.7481 28.3166 23.6909 28.2997 24.8876Z" fill="#9F9FAA"/>
<mask id="mask1_272_41" style="mask-type:alpha" maskUnits="userSpaceOnUse" x="61" y="13" width="21" height="24">
<path fill-rule="evenodd" clip-rule="evenodd" d="M61.9358 13.1028H81.6646V36.7985H61.9358V13.1028Z" fill="white"/>
</mask>
<g mask="url(#mask1_272_41)">
<path fill-rule="evenodd" clip-rule="evenodd" d="M73.5366 23.3205L81.5317 35.55C81.8825 36.0867 81.4975 36.7985 80.8565 36.7985H75.9123C75.64 36.7985 75.3864 36.6613 75.2371 36.4336L69.9038 28.2868C69.6094 27.8369 68.9656 27.7954 68.6159 28.2035L67.8847 29.057C67.7593 29.2032 67.6905 29.3891 67.6905 29.5819V35.9916C67.6905 36.4371 67.3291 36.7985 66.8837 36.7985H62.7425C62.2971 36.7985 61.9357 36.4371 61.9357 35.9916V14.0112C61.9357 13.5655 62.2971 13.2044 62.7425 13.2044H66.8837C67.3291 13.2044 67.6905 13.5655 67.6905 14.0112V18.1786C67.6905 18.9302 68.6273 19.2737 69.1132 18.7001L73.6095 13.3882C73.763 13.2071 73.9883 13.1028 74.2253 13.1028H79.6644C80.3506 13.1028 80.7235 13.9048 80.2812 14.4297L73.595 22.3588C73.3656 22.6311 73.3417 23.0223 73.5366 23.3205Z" fill="#9F9FAA"/>
</g>
<path fill-rule="evenodd" clip-rule="evenodd" d="M93.9851 13.1365H110.888C111.334 13.1365 111.695 13.4976 111.695 13.9433V18.1183C111.695 18.5638 111.334 18.9249 110.888 18.9249H99.7396C99.2942 18.9249 98.9328 19.2863 98.9328 19.7317V21.2663C98.9328 21.7118 99.2942 22.0732 99.7396 22.0732H108.112C108.558 22.0732 108.919 22.4343 108.919 22.8801V27.0209C108.919 27.4666 108.558 27.8277 108.112 27.8277H99.7396C99.2942 27.8277 98.9328 28.1892 98.9328 28.6346V30.1692C98.9328 30.6146 99.2942 30.9757 99.7396 30.9757H110.888C111.334 30.9757 111.695 31.3372 111.695 31.7826V35.9237C111.695 36.3692 111.334 36.7306 110.888 36.7306H93.9851C93.5393 36.7306 93.1782 36.3692 93.1782 35.9237V13.9433C93.1782 13.4976 93.5393 13.1365 93.9851 13.1365Z" fill="#9F9FAA"/>
<path fill-rule="evenodd" clip-rule="evenodd" d="M139.433 13.2041H143.574C144.02 13.2041 144.381 13.5652 144.381 14.011V35.9914C144.381 36.4372 144.02 36.7983 143.574 36.7983H138.519C138.248 36.7983 137.995 36.6621 137.846 36.4354L130.291 24.9644C129.85 24.2957 128.81 24.6074 128.81 25.4081V35.9237C128.81 36.3694 128.448 36.7305 128.003 36.7305H123.862C123.416 36.7305 123.055 36.3694 123.055 35.9237V13.9094C123.055 13.4636 123.416 13.1025 123.862 13.1025H128.951C129.222 13.1025 129.475 13.239 129.624 13.4654L137.146 24.8718C137.587 25.5401 138.626 25.2281 138.626 24.4274V14.011C138.626 13.5652 138.988 13.2041 139.433 13.2041Z" fill="#9F9FAA"/>
<path fill-rule="evenodd" clip-rule="evenodd" d="M168.016 13.1025H173.771V27.6639C173.771 32.5773 169.75 36.7188 164.838 36.6276C160.073 36.5391 156.236 32.6471 156.236 27.8615V27.4818C156.236 26.9064 156.702 26.4399 157.278 26.4399H160.949C161.524 26.4399 161.99 26.9064 161.99 27.4818V27.752C161.99 29.3536 163.194 30.7566 164.792 30.8672C166.545 30.9881 168.016 29.5903 168.016 27.8615V13.1025Z" fill="#9F9FAA"/>
<mask id="mask2_272_41" style="mask-type:alpha" maskUnits="userSpaceOnUse" x="185" y="12" width="25" height="26">
<path fill-rule="evenodd" clip-rule="evenodd" d="M185.114 12.7981H209.351V37.0352H185.114V12.7981Z" fill="white"/>
</mask>
<g mask="url(#mask2_272_41)">
<path fill-rule="evenodd" clip-rule="evenodd" d="M203.597 24.9165C203.597 21.3959 200.753 18.5524 197.232 18.5524C193.746 18.5524 190.868 21.3959 190.868 24.9165C190.868 28.437 193.746 31.2805 197.232 31.2805C200.753 31.2805 203.597 28.437 203.597 24.9165ZM209.351 24.9165C209.351 31.6188 203.935 37.035 197.232 37.035C190.564 37.035 185.114 31.6188 185.114 24.9165C185.114 18.2479 190.564 12.7979 197.232 12.7979C203.935 12.7979 209.351 18.2479 209.351 24.9165Z" fill="#9F9FAA"/>
</g>
</svg>
