<svg width="118" height="33" viewBox="0 0 118 33" fill="none" xmlns="http://www.w3.org/2000/svg">
<g clip-path="url(#clip0_409_245)">
<mask id="mask0_409_245" style="mask-type:luminance" maskUnits="userSpaceOnUse" x="0" y="0" width="119" height="33">
<path d="M118.007 0.928589H0.00732422V32.9286H118.007V0.928589Z" fill="white"/>
</mask>
<g mask="url(#mask0_409_245)">
<mask id="mask1_409_245" style="mask-type:luminance" maskUnits="userSpaceOnUse" x="0" y="0" width="119" height="33">
<path d="M118.007 0.928589H0.00732422V32.9286H118.007V0.928589Z" fill="white"/>
</mask>
<g mask="url(#mask1_409_245)">
<g style="mix-blend-mode:luminosity">
<path d="M63.5458 16.9662L47.6704 0.928589V32.9662L63.5458 16.9662Z" fill="#EBEDEF"/>
<path d="M31.7952 16.9662L47.6705 0.928589H15.9199L31.7952 16.9662Z" fill="#EBEDEF"/>
<path d="M0.00732422 16.9662L15.9199 32.9662V0.928589L0.00732422 16.9662Z" fill="#EBEDEF"/>
<path d="M31.7952 16.9662L15.9199 32.9662H47.6705L31.7952 16.9662Z" fill="#EBEDEF"/>
<path d="M77.4787 17.9074H71.7259V23.6297H68.8501V10.2274H71.7259V15.7238H77.4787V10.2274H80.3551V23.6297H77.4787V17.9074Z" fill="#EBEDEF"/>
<path d="M87.3025 23.8933C84.4261 23.8933 82.0731 22.7263 82.0356 19.5263H84.9121C84.9495 20.9569 85.771 21.8227 87.3399 21.8227C88.4977 21.8227 89.8427 21.2203 89.8427 19.9027C89.8427 18.8486 88.9463 18.5474 87.4522 18.0957L86.4809 17.8321C84.3887 17.2298 82.297 16.4015 82.297 13.9921C82.297 11.018 85.0611 10.0015 87.5639 10.0015C90.1415 10.0015 92.3829 10.9051 92.4203 13.8792H89.5439C89.4316 12.6745 88.7217 11.9592 87.3774 11.9592C86.2938 11.9592 85.2483 12.5239 85.2483 13.7286C85.2483 14.7074 86.1447 15.0086 88.0124 15.6109L89.1328 15.9498C91.4116 16.6651 92.8682 17.4557 92.8682 19.7145C92.8307 22.7263 89.9175 23.8933 87.3025 23.8933Z" fill="#EBEDEF"/>
<path d="M94.4746 10.2652H99.1064C99.9654 10.2275 100.862 10.2652 101.721 10.4158C103.327 10.7922 104.56 11.8463 104.56 13.6534C104.56 15.3852 103.477 16.251 101.908 16.6652C103.701 17.004 105.046 17.9075 105.046 19.9028C105.046 22.9522 102.058 23.6299 99.7415 23.6299H94.512L94.4746 10.2652ZM99.1064 15.8369C100.377 15.8369 101.684 15.5734 101.684 14.0299C101.684 12.6369 100.489 12.2604 99.2929 12.2604H97.2762V15.8369H99.1064ZM99.3678 21.6346C100.713 21.6346 102.02 21.3334 102.02 19.6769C102.02 18.0204 100.899 17.7193 99.5175 17.7193H97.2387V21.6346H99.3678Z" fill="#EBEDEF"/>
<path d="M112.517 23.8933C108.221 23.8933 106.316 21.1451 106.316 17.0416C106.316 12.938 108.445 9.96393 112.666 9.96393C115.318 9.96393 117.895 11.1686 117.97 14.1804H114.982C114.832 12.8251 113.936 12.1474 112.666 12.1474C110.051 12.1474 109.267 14.971 109.267 17.1168C109.267 19.2627 110.051 21.7474 112.554 21.7474C113.861 21.7474 114.832 21.0322 115.019 19.6768H118.007C117.709 22.7639 115.281 23.8933 112.517 23.8933Z" fill="#EBEDEF"/>
</g>
</g>
</g>
</g>
<defs>
<clipPath id="clip0_409_245">
<rect width="118" height="32" fill="white" transform="translate(0.00732422 0.928589)"/>
</clipPath>
</defs>
</svg>
